<svg width="321" height="172" viewBox="0 0 321 172" fill="none" xmlns="http://www.w3.org/2000/svg">
<path d="M163.794 80.0638C162.704 88.3492 155.423 94.3182 146.99 94.232C146.223 94.232 145.455 94.1673 144.677 94.0488C143.764 93.9195 142.893 93.7148 142.032 93.4562C141.597 93.3269 141.182 93.1761 140.756 93.0145C137.831 103.735 127.034 110.814 115.292 109.154C112.647 108.788 110.168 107.991 107.917 106.881C103.011 112.71 95.1383 115.942 86.7781 114.757C81.4881 114.014 76.8516 111.611 73.325 108.174C69.0516 110.512 63.9587 111.535 58.6687 110.792C49.9662 109.575 42.9856 103.853 39.9361 96.4299C35.0506 100.761 28.2359 103.002 21.0789 102C11.3807 100.632 3.81915 93.6933 1.45423 85.0307C0.94598 83.1776 0.665924 81.249 0.665924 79.2665C0.665924 78.3076 0.728159 77.3487 0.852628 76.379C2.35664 64.8829 12.6046 56.6837 24.3463 57.0823C28.2567 47.9781 38.152 42.2677 48.8253 43.7761C51.3769 44.1316 53.7729 44.8751 55.9615 45.9309C62.102 32.4847 76.9139 24.1131 92.8771 26.3649C103.581 27.8733 112.554 33.853 118.051 42.0414C120.001 41.8367 122.013 41.8475 124.046 42.1384C134.543 43.6145 142.52 51.6198 144.138 61.2735C145.694 61.0688 147.312 61.0472 148.951 61.2735C154.22 62.0169 158.638 65.0122 161.263 69.0848C161.605 69.6236 161.927 70.173 162.207 70.7548C163.607 73.5562 164.219 76.7669 163.783 80.053L163.794 80.0638Z" fill="white" fill-opacity="0.35"/>
<path d="M320.193 55.2787C318.993 63.7503 310.97 69.8534 301.679 69.7653C300.834 69.7653 299.988 69.6992 299.131 69.578C298.125 69.4458 297.165 69.2365 296.216 68.9721C295.736 68.8399 295.279 68.6857 294.811 68.5204C291.588 79.4817 279.691 86.7195 266.754 85.023C263.84 84.6484 261.109 83.8332 258.629 82.6985C253.223 88.6584 244.549 91.9633 235.338 90.7515C229.509 89.9913 224.401 87.5347 220.515 84.0205C215.807 86.411 210.195 87.4576 204.367 86.6974C194.779 85.4526 187.087 79.6029 183.727 72.0126C178.345 76.4412 170.836 78.7326 162.951 77.7081C152.265 76.309 143.934 69.2145 141.328 60.3573C140.768 58.4625 140.46 56.4905 140.46 54.4635C140.46 53.4831 140.528 52.5026 140.665 51.5111C142.322 39.7566 153.614 31.3732 166.551 31.7808C170.859 22.4719 181.762 16.6333 193.521 18.1756C196.333 18.5391 198.973 19.2992 201.384 20.3788C208.15 6.63039 224.469 -1.92934 242.058 0.37308C253.852 1.91537 263.737 8.02947 269.794 16.4019C271.943 16.1926 274.16 16.2036 276.4 16.5011C287.965 18.0103 296.754 26.1955 298.536 36.0662C300.251 35.8568 302.033 35.8348 303.839 36.0662C309.645 36.8263 314.513 39.8888 317.405 44.053C317.782 44.6039 318.136 45.1657 318.445 45.7606C319.987 48.6248 320.662 51.9077 320.182 55.2677L320.193 55.2787Z" fill="white" fill-opacity="0.35"/>
<path d="M299.576 105.316C297.723 119.157 285.34 129.128 270.999 128.984C269.694 128.984 268.388 128.876 267.065 128.678C265.513 128.462 264.031 128.12 262.567 127.688C261.826 127.472 261.121 127.22 260.398 126.95C255.423 144.858 237.06 156.683 217.092 153.912C212.594 153.3 208.378 151.968 204.55 150.114C196.207 159.851 182.818 165.251 168.6 163.271C159.604 162.029 151.719 158.015 145.722 152.274C138.454 156.179 129.793 157.889 120.797 156.647C105.997 154.614 94.1252 145.056 88.9391 132.656C80.6308 139.891 69.0415 143.635 56.87 141.961C40.3769 139.675 27.5175 128.084 23.4956 113.613C22.6313 110.518 22.155 107.296 22.155 103.984C22.155 102.382 22.2608 100.78 22.4725 99.1605C25.0303 79.9562 42.4584 66.2595 62.4266 66.9254C69.0768 51.7168 85.9051 42.1776 104.056 44.6974C108.396 45.2913 112.471 46.5332 116.193 48.2971C126.635 25.8351 151.825 11.8503 178.972 15.612C197.177 18.1317 212.435 28.1209 221.784 41.7996C225.1 41.4577 228.523 41.4757 231.98 41.9616C249.831 44.4274 263.396 57.8002 266.148 73.9268C268.794 73.5848 271.546 73.5488 274.333 73.9268C283.294 75.1687 290.809 80.1722 295.271 86.9756C295.854 87.8755 296.4 88.7935 296.877 89.7654C299.258 94.445 300.299 99.8085 299.558 105.298L299.576 105.316Z" fill="white"/>
<path d="M299.576 113.613C297.723 127.454 285.34 137.425 270.999 137.281C269.694 137.281 268.388 137.173 267.065 136.975C265.513 136.759 264.031 136.417 262.567 135.985C261.826 135.769 261.121 135.517 260.398 135.247C255.423 153.156 237.06 164.981 217.092 162.209C212.594 161.597 208.378 160.265 204.55 158.411C196.207 168.148 182.818 173.548 168.6 171.586C159.604 170.344 151.719 166.33 145.722 160.589C138.454 164.495 129.793 166.204 120.797 164.963C105.997 162.929 94.1252 153.372 88.9391 140.971C80.6308 148.206 69.0415 151.95 56.87 150.276C40.3769 147.99 27.5175 136.399 23.4956 121.928C22.6313 118.833 22.155 115.611 22.155 112.299C22.155 110.697 22.2608 109.096 22.4725 107.476C25.0303 88.2714 42.4584 74.5746 62.4266 75.2405C69.0768 60.0319 85.9051 50.4927 104.056 53.0125C108.396 53.6065 112.471 54.8484 116.193 56.6122C126.618 34.1322 151.807 20.1294 178.955 23.9091C197.159 26.4289 212.417 36.418 221.767 50.0968C225.083 49.7548 228.505 49.7728 231.962 50.2588C249.814 52.7245 263.379 66.0973 266.131 82.2239C268.777 81.8819 271.528 81.8459 274.315 82.2239C283.276 83.4658 290.791 88.4693 295.254 95.2727C295.836 96.1727 296.383 97.0906 296.859 98.0625C299.24 102.742 300.281 108.106 299.54 113.595L299.576 113.613Z" fill="#F8F8F8"/>
</svg>
