<svg width="375" height="545" viewBox="0 0 375 545" fill="none" xmlns="http://www.w3.org/2000/svg">
<path d="M39.1421 127H41.9146" stroke="#FFF9EF" stroke-width="2" stroke-linejoin="round"/>
<path d="M98.0425 93.0112C98.0425 93.0112 97.0468 93.0112 95.49 93.0112" stroke="#FFF9EF" stroke-width="2" stroke-linejoin="round"/>
<path d="M45.7434 126.994L79.3277 126.983C81.7097 126.983 83.6405 125.104 83.6405 122.785C83.6405 121.617 83.1564 120.568 82.3753 119.812C81.5941 119.05 80.5159 118.582 79.3277 118.582H62.8133C60.4259 118.582 58.4895 116.703 58.4895 114.384V113.995C58.4895 111.676 60.4204 109.797 62.8133 109.797H88.7841L89.6478 109.791C90.8415 109.791 91.9197 109.323 92.6954 108.561C93.4765 107.8 93.9606 106.756 93.9606 105.593C93.9606 103.274 92.0297 101.396 89.6478 101.396H75.6474C73.2655 101.396 71.3346 99.5168 71.3346 97.1978C71.3346 96.0412 71.8187 94.9917 72.5998 94.23C73.3645 93.4909 74.4097 93.0226 75.5649 93C75.5814 93 85.3734 93 92.0297 93" stroke="#FFF9EF" stroke-width="2" stroke-linejoin="round"/>
<path d="M335.607 127H332.835" stroke="#FFF9EF" stroke-width="2" stroke-linejoin="round"/>
<path d="M276.707 93.0112C276.707 93.0112 277.703 93.0112 279.26 93.0112" stroke="#FFF9EF" stroke-width="2" stroke-linejoin="round"/>
<path d="M329.006 126.994L295.422 126.983C293.04 126.983 291.109 125.104 291.109 122.785C291.109 121.617 291.593 120.568 292.374 119.812C293.155 119.05 294.234 118.582 295.422 118.582H311.936C314.324 118.582 316.26 116.703 316.26 114.384V113.995C316.26 111.676 314.329 109.797 311.936 109.797H285.965L285.102 109.791C283.908 109.791 282.83 109.323 282.054 108.561C281.273 107.8 280.789 106.756 280.789 105.593C280.789 103.274 282.72 101.396 285.102 101.396H299.102C301.484 101.396 303.415 99.5168 303.415 97.1978C303.415 96.0412 302.931 94.9917 302.15 94.23C301.385 93.4909 300.34 93.0226 299.185 93C299.168 93 289.376 93 282.72 93" stroke="#FFF9EF" stroke-width="2" stroke-linejoin="round"/>
<g clip-path="url(#clip0_369_1746)">
<path d="M85.4309 96.306C151.425 72.5492 223.634 72.5492 289.619 96.306" stroke="#FFF9EF" stroke-width="53" stroke-miterlimit="10"/>
<path d="M73.4202 67.6192L94.3976 125.722" stroke="#DC7818" stroke-width="4.55635" stroke-linecap="round" stroke-linejoin="round"/>
<path d="M301.329 67.6192L280.352 125.722" stroke="#DC7818" stroke-width="4.55635" stroke-linecap="round" stroke-linejoin="round"/>
<path d="M123.531 103.659C121.957 103.989 121.005 103.368 120.675 101.794L117.742 87.8059C117.599 87.1247 117.695 86.5284 118.029 86.0169C118.363 85.5055 118.871 85.1783 119.552 85.0355L124.168 84.0677L128.784 83.1C129.465 82.9571 130.061 83.0528 130.573 83.387C131.084 83.7211 131.411 84.2288 131.554 84.91L133.985 96.5019C134.206 97.5589 134.273 98.4032 134.185 99.0348C134.059 99.7232 133.728 100.308 133.191 100.788C132.612 101.302 131.83 101.723 130.845 102.052C130.145 102.224 129.488 102.19 128.874 101.951C128.283 101.707 127.804 101.292 127.436 100.707C127.02 100.01 126.899 99.4342 127.074 98.9808C127.267 98.4988 127.766 98.1859 128.569 98.0419C128.922 97.9681 129.063 97.7667 128.994 97.4379L128.655 95.8171L124.532 96.6815L125.397 100.804C125.727 102.378 125.105 103.329 123.531 103.659ZM142.802 99.4349C140.618 99.8929 139.045 99.8181 138.084 99.2104C137.146 98.5978 136.448 97.1992 135.99 95.0147L133.33 82.3305C133.188 81.6493 133.283 81.053 133.617 80.5416C133.952 80.0301 134.459 79.703 135.14 79.5601L140.813 78.3707C141.236 78.2821 141.403 78.0264 141.314 77.6036L141.292 77.4979C141.218 77.1455 141.005 77.0063 140.653 77.0802L134.875 78.2917C134.193 78.4345 133.597 78.3389 133.086 78.0047C132.574 77.6706 132.247 77.1629 132.104 76.4817L130.715 69.8577C130.371 68.2135 131.091 67.2042 132.876 66.8299C133.581 66.6822 134.17 66.7426 134.643 67.0112C135.116 67.2798 135.424 67.7547 135.567 68.4359L135.582 68.5064L143.368 66.8737C144.731 66.5881 145.555 67.1264 145.84 68.4888C146.126 69.8512 145.588 70.6752 144.225 70.9609L141.336 71.5666L136.438 72.5935L136.608 73.4039C136.692 73.8032 136.934 73.961 137.333 73.8773L142.97 72.6953C143.652 72.5524 144.248 72.6481 144.759 72.9823C145.271 73.3164 145.598 73.8241 145.741 74.5053L146.612 78.6629C146.755 79.3441 146.66 79.9404 146.326 80.4518C145.991 80.9633 145.484 81.2904 144.802 81.4333L139.376 82.5709C138.836 82.6842 138.623 83.011 138.736 83.5512L138.758 83.6569L145.946 82.1499C146.885 81.9529 147.454 82.3242 147.651 83.2637C147.853 84.2268 147.484 84.8068 146.544 85.0038L139.357 86.5109L139.571 87.5327L146.582 86.0625C147.522 85.8655 148.09 86.2368 148.287 87.1764C148.489 88.1394 148.12 88.7195 147.181 88.9165L140.169 90.3866L140.369 91.3379L146.852 89.9786C147.533 89.8358 148.129 89.9314 148.641 90.2656C149.152 90.5998 149.479 91.1074 149.622 91.7886L149.703 92.1762C150.26 92.2557 150.66 92.2944 150.905 92.2921C151.47 92.2963 151.773 92.7477 151.814 93.6464C151.776 95.1012 151.437 96.1775 150.799 96.8754C150.166 97.5967 149.085 98.1174 147.559 98.4376L142.802 99.4349ZM142.763 95.2131L146.216 94.4891C146.639 94.4004 146.924 94.2425 147.073 94.0151C147.221 93.7878 147.288 93.4059 147.274 92.8695L140.967 94.1919C141.109 94.7507 141.293 95.1043 141.521 95.2529C141.738 95.3544 142.152 95.3411 142.763 95.2131ZM123.867 93.5104L127.99 92.6461L127.753 91.5186L125.674 91.9544L123.631 92.3829L123.867 93.5104ZM122.966 89.2119L125.01 88.7834L127.088 88.3475L126.941 87.6429C126.877 87.3375 126.692 87.2168 126.387 87.2808L123.568 87.8719C123.004 87.9901 122.781 88.331 122.9 88.8948L122.966 89.2119ZM117.625 84.2626C116.215 84.5581 115.363 84.0012 115.067 82.5919C114.772 81.1825 115.329 80.3301 116.738 80.0346L117.513 79.872C117.095 78.9298 116.728 78.1731 116.412 77.6017C116.274 77.41 116.329 77.2636 116.577 77.1624L116.676 77.1051L116.605 77.1198C115.219 77.4104 114.381 76.8628 114.091 75.4769C113.79 74.0441 114.345 73.1799 115.754 72.8844L118.89 72.2269L118.875 72.1564C118.717 71.4048 118.822 70.7942 119.19 70.3248C119.552 69.8319 120.121 69.5042 120.896 69.3417C121.672 69.1792 122.312 69.2532 122.819 69.5639C123.344 69.8462 123.685 70.3631 123.843 71.1148L123.858 71.1852L126.923 70.5425C127.604 70.3997 128.182 70.5238 128.656 70.9148C129.107 71.3107 129.409 71.8727 129.562 72.6009C129.665 73.0941 129.622 73.5323 129.433 73.9153C129.243 74.2983 128.925 74.5366 128.479 74.6302L128.409 74.645L128.592 74.6433C128.538 74.8509 128.479 75.1574 128.417 75.5628C128.21 76.5626 128.063 77.2676 127.978 77.6779L128.859 77.4933C130.268 77.1977 131.12 77.7547 131.416 79.164C131.711 80.5734 131.155 81.4258 129.745 81.7213L123.685 82.992L117.625 84.2626ZM121.636 79.0077L124.137 78.4832L123.841 78.4718C123.817 78.4767 123.803 78.4675 123.798 78.444C123.887 77.3464 123.944 76.3904 123.969 75.5758L120.446 76.3146C120.737 76.7685 120.981 77.2322 121.179 77.7058C121.428 78.193 121.625 78.6054 121.769 78.9429L121.636 79.0077Z" fill="url(#paint0_linear_369_1746)"/>
<path d="M172.78 95.7775C170.986 95.9276 170.015 95.1178 169.867 93.348L169.474 88.6484L156.164 89.7627C154.49 89.9028 153.583 89.1358 153.443 87.4617C153.303 85.7875 154.07 84.8804 155.744 84.7402L158.722 84.491L158.016 76.4939C157.645 76.9585 157.21 77.2237 156.71 77.2897C156.21 77.3556 155.692 77.2183 155.158 76.8777C153.146 75.577 152.796 74.1252 154.107 72.5222C155.589 70.3751 156.769 67.9281 157.647 65.1813C157.89 64.3421 158.308 63.7291 158.902 63.3422C159.496 62.9553 160.22 62.8344 161.075 62.9796C162.859 63.2879 163.498 64.3061 162.993 66.0343L172.786 65.2144L180.069 64.6047C181.743 64.4646 182.65 65.2316 182.79 66.9057C182.931 68.5799 182.164 69.487 180.489 69.6272L173.315 70.2278L173.621 73.887L180.042 73.3494C181.645 73.2153 182.513 73.9494 182.647 75.5518C182.783 77.1781 182.05 78.0583 180.448 78.1925L174.026 78.7301L174.399 83.1785L183.654 82.4037C185.329 82.2635 186.236 83.0305 186.376 84.7047C186.516 86.3788 185.749 87.2859 184.075 87.4261L174.819 88.2009L175.213 92.9005C175.361 94.6703 174.55 95.6293 172.78 95.7775ZM163.923 84.0555L169.053 83.626L168.681 79.1776L166.098 79.3938L163.551 79.607L163.923 84.0555ZM158.876 75.1214L163.576 74.7279L168.276 74.3345L167.969 70.6753L160.938 71.264C160.307 72.6414 159.619 73.9272 158.876 75.1214Z" fill="url(#paint1_linear_369_1746)"/>
<path d="M220.38 93.4067C219.221 94.7782 217.738 94.9241 215.931 93.8443C211.698 90.9397 208.481 86.622 206.28 80.8912C204.156 86.0437 200.709 90.0393 195.937 92.8781C193.928 93.9039 192.396 93.7716 191.341 92.4812C189.923 90.6961 190.61 89.0899 193.404 87.6625C197.814 84.8576 200.759 80.8062 202.241 75.5083L193.14 75.1505C191.341 75.0798 190.478 74.1331 190.549 72.3105C190.62 70.5119 191.555 69.648 193.353 69.7187L203.318 70.1104C203.53 68.3654 203.688 66.174 203.792 63.536C203.888 61.7144 204.871 60.8403 206.741 60.9138C208.66 60.9893 209.571 61.9618 209.473 63.8314C209.323 66.4195 209.13 68.5856 208.893 70.3296L215.728 70.5984L219.901 70.7624C221.699 70.8331 222.563 71.7678 222.493 73.5664C222.421 75.389 221.486 76.2649 219.687 76.1942L210.262 75.8237C212.033 81.4896 214.941 85.7351 218.985 88.5602C220.206 89.2567 220.947 89.9703 221.206 90.7011C221.486 91.5287 221.211 92.4306 220.38 93.4067Z" fill="url(#paint2_linear_369_1746)"/>
<path d="M230.613 95.8034C229.926 95.691 229.404 95.3867 229.048 94.8906C228.691 94.3944 228.569 93.8029 228.682 93.1161L230.136 84.2343C230.248 83.5475 230.553 83.0258 231.049 82.6693C231.545 82.3127 232.136 82.1907 232.823 82.3032L242.984 83.9667L253.18 85.6361C253.867 85.7485 254.389 86.0528 254.745 86.5489C255.102 87.0451 255.224 87.6365 255.111 88.3234L253.657 97.2051C253.545 97.892 253.24 98.4137 252.744 98.7702C252.248 99.1267 251.657 99.2488 250.97 99.1363L230.613 95.8034ZM234.371 91.5669L241.405 92.7186L248.439 93.8703L249.126 89.6781L235.057 87.3747L234.371 91.5669ZM232.343 79.8898C230.709 79.6223 230.025 78.6714 230.293 77.0371C230.56 75.4029 231.511 74.7195 233.145 74.9871L241.281 76.3191L241.793 73.1927L231.241 71.4652C229.631 71.2015 228.957 70.2644 229.221 68.6538C229.485 67.0433 230.422 66.3698 232.033 66.6335L242.584 68.3611L242.799 67.0466C243.094 65.2465 244.141 64.4939 245.941 64.7886C247.741 65.0833 248.494 66.1306 248.199 67.9307L247.984 69.2452L258.607 70.9843C260.217 71.248 260.891 72.1851 260.627 73.7957C260.363 75.4063 259.426 76.0797 257.816 75.816L247.193 74.0769L246.681 77.2032L254.995 78.5643C256.629 78.8319 257.312 79.7828 257.045 81.417C256.777 83.0513 255.826 83.7346 254.192 83.467L243.25 81.6755L232.343 79.8898Z" fill="url(#paint3_linear_369_1746)"/>
</g>
<rect x="139.875" y="128" width="95" height="28" rx="14" fill="url(#paint4_linear_369_1746)"/>
<path d="M164.249 150.422C163.709 150.422 163.439 150.152 163.439 149.612V143.87C162.887 144.422 162.389 144.872 161.945 145.22C161.669 145.424 161.435 145.514 161.243 145.49C161.051 145.454 160.883 145.286 160.739 144.986C160.607 144.722 160.565 144.5 160.613 144.32C160.661 144.128 160.811 143.948 161.063 143.78C161.927 143.156 162.737 142.406 163.493 141.53C164.273 140.63 164.903 139.694 165.383 138.722H163.187H161.747C161.243 138.722 160.991 138.47 160.991 137.966C160.991 137.462 161.243 137.21 161.747 137.21H163.439V134.708C163.439 134.168 163.709 133.898 164.249 133.898C164.789 133.898 165.059 134.168 165.059 134.708V137.21H166.301C166.649 137.21 166.889 137.318 167.021 137.534C167.153 137.75 167.159 138.056 167.039 138.452C166.679 139.424 166.145 140.438 165.437 141.494C166.013 141.998 166.727 142.664 167.579 143.492C167.759 143.66 167.837 143.816 167.813 143.96C167.801 144.068 167.705 144.236 167.525 144.464C167.309 144.752 167.117 144.902 166.949 144.914C166.781 144.926 166.589 144.8 166.373 144.536C166.001 144.08 165.563 143.588 165.059 143.06V149.612C165.059 150.152 164.789 150.422 164.249 150.422ZM173.789 150.404C173.237 150.404 172.961 150.128 172.961 149.576V141.476H170.153C170.057 144.884 169.361 147.548 168.065 149.468C167.633 150.032 167.201 150.122 166.769 149.738C166.349 149.354 166.361 148.874 166.805 148.298C167.489 147.23 167.963 145.946 168.227 144.446C168.419 143.39 168.515 142.112 168.515 140.612V136.454C168.515 136.106 168.611 135.86 168.803 135.716C169.007 135.572 169.271 135.548 169.595 135.644L169.649 135.662C171.653 135.278 173.339 134.852 174.707 134.384C175.055 134.264 175.379 134.366 175.679 134.69C176.219 135.242 176.159 135.626 175.499 135.842C174.047 136.286 172.271 136.676 170.171 137.012V139.964H173.573H176.237C176.741 139.964 176.993 140.216 176.993 140.72C176.993 141.224 176.741 141.476 176.237 141.476H174.617V149.576C174.617 150.128 174.341 150.404 173.789 150.404ZM182.123 150.404C181.571 150.404 181.295 150.134 181.295 149.594V143.96C180.887 144.38 180.443 144.794 179.963 145.202C179.687 145.418 179.453 145.508 179.261 145.472C179.081 145.436 178.913 145.268 178.757 144.968C178.625 144.704 178.583 144.482 178.631 144.302C178.679 144.11 178.829 143.93 179.081 143.762C179.909 143.138 180.683 142.388 181.403 141.512C182.147 140.612 182.753 139.682 183.221 138.722H179.765C179.261 138.722 179.009 138.47 179.009 137.966C179.009 137.462 179.261 137.21 179.765 137.21H181.295V134.708C181.295 134.168 181.571 133.898 182.123 133.898C182.663 133.898 182.933 134.168 182.933 134.708V137.21H184.157C184.493 137.21 184.727 137.318 184.859 137.534C184.991 137.738 184.997 138.032 184.877 138.416C184.493 139.508 183.971 140.534 183.311 141.494C183.575 141.71 184.097 142.166 184.877 142.862C185.105 143.078 185.261 143.222 185.345 143.294V142.79C185.345 142.538 185.471 142.412 185.723 142.412H189.989H193.463C193.811 142.412 194.093 142.52 194.309 142.736C194.525 142.952 194.633 143.234 194.633 143.582V149.576C194.633 150.104 194.357 150.368 193.805 150.368C193.301 150.368 193.049 150.128 193.049 149.648V149.612H186.875V149.648C186.875 150.152 186.623 150.404 186.119 150.404C185.603 150.404 185.345 150.152 185.345 149.648V143.744L184.913 144.338C184.805 144.482 184.685 144.566 184.553 144.59C184.433 144.602 184.331 144.554 184.247 144.446C183.839 143.942 183.401 143.444 182.933 142.952V149.594C182.933 150.134 182.663 150.404 182.123 150.404ZM186.875 148.262H189.143V146.642H188.009H186.875V148.262ZM190.655 148.262H193.049V146.642H191.843H190.655V148.262ZM186.875 145.364H188.009H189.143V143.798H187.307C187.019 143.798 186.875 143.942 186.875 144.23V145.364ZM190.655 145.364H191.843H193.049V144.23C193.049 143.942 192.905 143.798 192.617 143.798H190.655V145.364ZM187.415 141.422C187.067 141.422 186.785 141.314 186.569 141.098C186.353 140.882 186.245 140.6 186.245 140.252V138.308C186.245 137.96 186.353 137.678 186.569 137.462C186.785 137.246 187.067 137.138 187.415 137.138H192.671C193.019 137.138 193.301 137.246 193.517 137.462C193.733 137.678 193.841 137.96 193.841 138.308V140.252C193.841 140.6 193.733 140.882 193.517 141.098C193.301 141.314 193.019 141.422 192.671 141.422H190.043H187.415ZM188.171 140.126H190.025H191.879C192.167 140.126 192.311 139.982 192.311 139.694V138.884C192.311 138.596 192.167 138.452 191.879 138.452H188.171C187.883 138.452 187.739 138.596 187.739 138.884V139.694C187.739 139.982 187.883 140.126 188.171 140.126ZM185.957 136.13C185.489 136.13 185.255 135.89 185.255 135.41C185.255 134.942 185.489 134.708 185.957 134.708H194.021C194.489 134.708 194.723 134.942 194.723 135.41C194.723 135.89 194.489 136.13 194.021 136.13H189.989H185.957ZM204.551 150.404C203.963 150.404 203.669 150.116 203.669 149.54V141.998H197.801C197.249 141.998 196.973 141.722 196.973 141.17C196.973 140.618 197.249 140.342 197.801 140.342H203.669V134.762C203.669 134.186 203.963 133.898 204.551 133.898C205.127 133.898 205.415 134.186 205.415 134.762V136.292H210.185C210.713 136.292 210.977 136.556 210.977 137.084C210.977 137.624 210.713 137.894 210.185 137.894H205.415V140.342H209.159H212.075C212.627 140.342 212.903 140.618 212.903 141.17C212.903 141.722 212.627 141.998 212.075 141.998H205.415V143.798L205.613 143.474C205.709 143.318 205.835 143.264 205.991 143.312C207.839 143.84 209.519 144.416 211.031 145.04C211.295 145.16 211.439 145.31 211.463 145.49C211.475 145.646 211.403 145.862 211.247 146.138C211.103 146.39 210.965 146.552 210.833 146.624C210.677 146.696 210.479 146.678 210.239 146.57C208.883 145.946 207.275 145.328 205.415 144.716V149.54C205.415 150.116 205.127 150.404 204.551 150.404Z" fill="#FFF9EF"/>
<path d="M329.461 499.733H316.546C316.02 499.733 315.595 499.308 315.595 498.781V489.338C315.595 486.896 317.585 484.905 320.025 484.905H329.461C329.987 484.905 330.412 485.33 330.412 485.856V498.781C330.412 499.308 329.987 499.733 329.461 499.733ZM317.503 497.83H328.517V486.808H320.031C318.637 486.808 317.503 487.943 317.503 489.338V497.83ZM313.377 506.195C311.083 506.195 309.214 504.324 309.214 502.029C309.214 499.733 311.083 497.862 313.377 497.862H316.59C317.116 497.862 317.541 498.287 317.541 498.813V502.029C317.541 504.324 315.671 506.195 313.377 506.195ZM313.377 499.771C312.129 499.771 311.115 500.786 311.115 502.035C311.115 503.284 312.129 504.299 313.377 504.299C314.626 504.299 315.639 503.284 315.639 502.035V499.771H313.377ZM332.706 486.808H329.493C328.967 486.808 328.542 486.383 328.542 485.856V482.641C328.542 480.345 330.412 478.474 332.706 478.474C335 478.474 336.869 480.345 336.869 482.641C336.869 484.937 335 486.808 332.706 486.808ZM330.45 484.905H332.712C333.96 484.905 334.974 483.89 334.974 482.641C334.974 481.391 333.96 480.377 332.712 480.377C331.464 480.377 330.45 481.391 330.45 482.641V484.905ZM335.919 506.195H323.003C322.477 506.195 322.053 505.77 322.053 505.244V492.319C322.053 491.792 322.477 491.367 323.003 491.367H335.919C336.445 491.367 336.869 491.792 336.869 492.319V505.244C336.869 505.77 336.445 506.195 335.919 506.195ZM323.954 504.293H334.968V493.27H323.954V504.293ZM329.461 60.0888H320.025C317.585 60.0888 315.595 58.0974 315.595 55.6557V46.2123C315.595 45.6859 316.02 45.261 316.546 45.261H329.461C329.987 45.261 330.412 45.6859 330.412 46.2123V59.1375C330.412 59.6639 329.987 60.0888 329.461 60.0888ZM317.503 47.1699V55.662C317.503 57.0573 318.637 58.1925 320.031 58.1925H328.517V47.1699H317.503ZM316.59 47.1319H313.377C311.083 47.1319 309.214 45.261 309.214 42.9651C309.214 40.6693 311.083 38.7984 313.377 38.7984C315.671 38.7984 317.541 40.6693 317.541 42.9651V46.1806C317.541 46.707 317.116 47.1319 316.59 47.1319ZM313.377 40.7073C312.129 40.7073 311.115 41.7221 311.115 42.9715C311.115 44.2209 312.129 45.2356 313.377 45.2356H315.639V42.9715C315.639 41.7221 314.626 40.7073 313.377 40.7073ZM332.706 66.5197C330.412 66.5197 328.542 64.6488 328.542 62.3529V59.1375C328.542 58.6111 328.967 58.1862 329.493 58.1862H332.706C335 58.1862 336.869 60.0571 336.869 62.3529C336.869 64.6488 335 66.5197 332.706 66.5197ZM330.45 60.0888V62.3529C330.45 63.6023 331.464 64.6171 332.712 64.6171C333.96 64.6171 334.974 63.6023 334.974 62.3529C334.974 61.1035 333.96 60.0888 332.712 60.0888H330.45ZM335.919 53.6262H323.003C322.477 53.6262 322.053 53.2013 322.053 52.6749V39.7497C322.053 39.2233 322.477 38.7984 323.003 38.7984H335.919C336.445 38.7984 336.869 39.2233 336.869 39.7497V52.6749C336.869 53.2013 336.445 53.6262 335.919 53.6262ZM323.954 51.7236H334.968V40.701H323.954V51.7236ZM52.6329 60.0888H43.1968C42.6708 60.0888 42.2462 59.6639 42.2462 59.1375V46.2123C42.2462 45.6859 42.6708 45.261 43.1968 45.261H56.1121C56.6381 45.261 57.0627 45.6859 57.0627 46.2123V55.6557C57.0627 58.0974 55.0728 60.0888 52.6329 60.0888ZM44.1537 58.1862H52.6393C54.0335 58.1862 55.1678 57.0509 55.1678 55.6557V47.1636H44.1537V58.1862ZM59.2807 47.1319H56.0677C55.5417 47.1319 55.1171 46.707 55.1171 46.1806V42.9651C55.1171 40.6693 56.9866 38.7984 59.2807 38.7984C61.5748 38.7984 63.4443 40.6693 63.4443 42.9651C63.4443 45.261 61.5748 47.1319 59.2807 47.1319ZM57.0246 45.2292H59.287C60.5355 45.2292 61.5494 44.2145 61.5494 42.9651C61.5494 41.7157 60.5355 40.701 59.287 40.701C58.0386 40.701 57.0246 41.7157 57.0246 42.9651V45.2292ZM39.9521 66.5197C37.658 66.5197 35.7886 64.6488 35.7886 62.3529C35.7886 60.0571 37.658 58.1862 39.9521 58.1862H43.1651C43.6911 58.1862 44.1157 58.6111 44.1157 59.1375V62.3529C44.1157 64.6488 42.2462 66.5197 39.9521 66.5197ZM39.9521 60.0888C38.7037 60.0888 37.6897 61.1035 37.6897 62.3529C37.6897 63.6023 38.7037 64.6171 39.9521 64.6171C41.2006 64.6171 42.2145 63.6023 42.2145 62.3529V60.0888H39.9521ZM49.6544 53.6262H36.7391C36.2131 53.6262 35.7886 53.2013 35.7886 52.6749V39.7497C35.7886 39.2233 36.2131 38.7984 36.7391 38.7984H49.6544C50.1804 38.7984 50.605 39.2233 50.605 39.7497V52.6749C50.605 53.2013 50.1804 53.6262 49.6544 53.6262ZM37.6961 51.7236H48.7102V40.701H37.6961V51.7236ZM329.461 512.658H43.2031C42.6771 512.658 42.2525 512.233 42.2525 511.707V499.733H30.2878C29.7618 499.733 29.3372 499.308 29.3372 498.781V46.2186C29.3372 45.6922 29.7618 45.2673 30.2878 45.2673H42.2525V33.2934C42.2525 32.767 42.6771 32.3421 43.2031 32.3421H329.467C329.993 32.3421 330.418 32.767 330.418 33.2934V45.2673H342.383C342.909 45.2673 343.333 45.6922 343.333 46.2186V498.781C343.333 499.308 342.909 499.733 342.383 499.733H330.418V511.707C330.418 512.233 329.993 512.658 329.467 512.658H329.461ZM44.1537 510.755H328.517V498.781C328.517 498.255 328.941 497.83 329.467 497.83H341.432V47.1699H329.467C328.941 47.1699 328.517 46.745 328.517 46.2186V34.2447H44.1537V46.2186C44.1537 46.745 43.7291 47.1699 43.2031 47.1699H31.2384V497.83H43.2031C43.7291 497.83 44.1537 498.255 44.1537 498.781V510.755ZM56.1121 499.733H43.1968C42.6708 499.733 42.2462 499.308 42.2462 498.781V485.856C42.2462 485.33 42.6708 484.905 43.1968 484.905H52.6329C55.0728 484.905 57.0627 486.896 57.0627 489.338V498.781C57.0627 499.308 56.6381 499.733 56.1121 499.733ZM44.1537 497.83H55.1678V489.338C55.1678 487.943 54.0335 486.808 52.6393 486.808H44.1537V497.83ZM59.2807 506.195C56.9866 506.195 55.1171 504.324 55.1171 502.029V498.813C55.1171 498.287 55.5417 497.862 56.0677 497.862H59.2807C61.5748 497.862 63.4443 499.733 63.4443 502.029C63.4443 504.324 61.5748 506.195 59.2807 506.195ZM57.0246 499.771V502.035C57.0246 503.284 58.0386 504.299 59.287 504.299C60.5355 504.299 61.5494 503.284 61.5494 502.035C61.5494 500.786 60.5355 499.771 59.287 499.771H57.0246ZM43.1651 486.808H39.9521C37.658 486.808 35.7886 484.937 35.7886 482.641C35.7886 480.345 37.658 478.474 39.9521 478.474C42.2462 478.474 44.1157 480.345 44.1157 482.641V485.856C44.1157 486.383 43.6911 486.808 43.1651 486.808ZM39.9521 480.383C38.7037 480.383 37.6897 481.398 37.6897 482.647C37.6897 483.897 38.7037 484.911 39.9521 484.911H42.2145V482.647C42.2145 481.398 41.2006 480.383 39.9521 480.383ZM49.6544 506.195H36.7391C36.2131 506.195 35.7886 505.77 35.7886 505.244V492.319C35.7886 491.792 36.2131 491.367 36.7391 491.367H49.6544C50.1804 491.367 50.605 491.792 50.605 492.319V505.244C50.605 505.77 50.1804 506.195 49.6544 506.195ZM37.6961 504.293H48.7102V493.27H37.6961V504.293ZM336.375 519H36.6251C36.0991 519 35.6745 518.575 35.6745 518.049C35.6745 511.58 30.4146 506.316 23.9506 506.316C23.4246 506.316 23 505.891 23 505.365V39.6355C23 39.1091 23.4246 38.6842 23.9506 38.6842C30.4146 38.6842 35.6745 33.4203 35.6745 26.9513C35.6745 26.4249 36.0991 26 36.6251 26H336.375C336.901 26 337.326 26.4249 337.326 26.9513C337.326 33.4203 342.585 38.6842 349.049 38.6842C349.575 38.6842 350 39.1091 350 39.6355V505.365C350 505.891 349.575 506.316 349.049 506.316C342.585 506.316 337.326 511.58 337.326 518.049C337.326 518.575 336.901 519 336.375 519ZM37.544 517.097H335.456C335.925 510.337 341.343 504.914 348.099 504.445V40.5551C341.343 40.0858 335.925 34.6633 335.456 27.9026H37.544C37.075 34.6633 31.6567 40.0858 24.9012 40.5551V504.445C31.6567 504.914 37.075 510.337 37.544 517.097Z" fill="#FFF9EF"/>
<defs>
<linearGradient id="paint0_linear_369_1746" x1="127.868" y1="61.5246" x2="137.853" y2="109.143" gradientUnits="userSpaceOnUse">
<stop stop-color="#D34802"/>
<stop offset="1" stop-color="#FB8C24"/>
</linearGradient>
<linearGradient id="paint1_linear_369_1746" x1="167.475" y1="55.6602" x2="171.534" y2="104.144" gradientUnits="userSpaceOnUse">
<stop stop-color="#D34802"/>
<stop offset="1" stop-color="#FB8C24"/>
</linearGradient>
<linearGradient id="paint2_linear_369_1746" x1="207.313" y1="54.7115" x2="205.402" y2="103.328" gradientUnits="userSpaceOnUse">
<stop stop-color="#D34802"/>
<stop offset="1" stop-color="#FB8C24"/>
</linearGradient>
<linearGradient id="paint3_linear_369_1746" x1="247.057" y1="58.6684" x2="239.196" y2="106.683" gradientUnits="userSpaceOnUse">
<stop stop-color="#D34802"/>
<stop offset="1" stop-color="#FB8C24"/>
</linearGradient>
<linearGradient id="paint4_linear_369_1746" x1="187.774" y1="128" x2="187.774" y2="156" gradientUnits="userSpaceOnUse">
<stop stop-color="#E25710"/>
<stop offset="1" stop-color="#FD8F26"/>
</linearGradient>
<clipPath id="clip0_369_1746">
<rect width="232.465" height="76" fill="white" transform="translate(71.1421 52)"/>
</clipPath>
</defs>
</svg>
