<svg width="327" height="94" viewBox="0 0 327 94" fill="none" xmlns="http://www.w3.org/2000/svg">
<g clip-path="url(#clip0_395_10019)">
<path d="M268.756 79.975H58.5892C58.5892 73.0796 53.0006 67.4892 46.1073 67.4892V26.3308C53.0006 26.3308 58.5892 20.7404 58.5892 13.845H268.756C268.756 20.7404 274.345 26.3308 281.238 26.3308V67.4892C274.345 67.4892 268.756 73.0796 268.756 79.975Z" fill="#FEF0DB" stroke="#823B21" stroke-width="1.86995" stroke-miterlimit="10"/>
<path d="M61.0914 76.9657C59.9523 70.7617 55.0549 65.8628 48.8529 64.7331V28.571C55.0549 27.4314 59.9523 22.5326 61.0914 16.3286H266.254C267.393 22.5326 272.29 27.4314 278.492 28.571V64.7331C272.29 65.8726 267.393 70.7715 266.254 76.9657H61.0914Z" fill="#FEF0DB" stroke="#823B21" stroke-width="0.934976" stroke-miterlimit="10"/>
<path d="M98.8486 36.518C99.5009 36.1187 100.085 35.8557 100.591 35.7096C100.913 35.544 101.263 35.5343 101.643 35.6706C101.925 35.768 102.178 35.8557 102.412 35.9531C102.782 36.0894 103.016 36.2453 103.113 36.4108C103.279 36.6446 103.356 36.9368 103.356 37.2874C103.337 37.5698 103.308 37.7841 103.288 37.9496C103.269 38.1542 103.249 38.349 103.249 38.5048C103.249 38.6411 103.201 38.7483 103.113 38.8164C102.909 39.021 102.685 39.2352 102.451 39.4495C102.334 39.5859 102.208 39.7027 102.071 39.8001C101.672 40.1702 101.292 40.404 100.922 40.5014C100.669 40.5695 100.28 40.5695 99.7735 40.5014C99.3744 40.4137 99.0336 40.2481 98.722 40.0144C98.4007 39.7612 98.0892 39.5274 97.8165 39.3132C97.466 39.0307 97.2908 38.7872 97.2908 38.5827C97.2713 38.3003 97.1837 38.0276 97.0474 37.7451C96.7942 37.2289 96.7066 36.927 96.804 36.8394C96.9403 36.7225 97.2324 36.7322 97.6802 36.8783C98.0307 36.9465 98.4202 36.8296 98.8681 36.5277L98.8486 36.518ZM98.7123 48.5363C98.2936 48.4876 97.875 48.3513 97.4563 48.1175C97.2226 47.913 97.0961 47.6987 97.0766 47.4845C97.0571 47.2994 97.1545 47.1338 97.3882 46.9975C97.9431 46.5787 98.5857 46.1794 99.3062 45.8093C99.7443 45.5268 100.075 45.2736 100.28 45.0399C100.397 44.9035 100.63 44.9133 100.981 45.0788C101.215 45.1957 101.536 45.2834 101.954 45.3613C102.49 45.3808 102.84 45.4976 103.006 45.7119C103.094 45.8482 103.133 46.0333 103.113 46.267C103.045 46.5495 102.996 46.8222 102.977 47.1046C102.928 47.3189 102.753 47.5624 102.451 47.8351C102.169 48.0688 101.916 48.5363 101.682 49.2278C101.497 49.7829 101.399 50.1822 101.399 50.416C101.38 50.5523 101.399 50.7276 101.468 50.9419C101.584 51.1075 101.896 51.3412 102.412 51.6431C102.714 51.8282 102.977 52.1301 103.21 52.5489C103.376 52.8313 103.405 53.1527 103.318 53.5228C103.298 53.7079 103.064 53.9514 102.617 54.2533C102.383 54.4189 102.13 54.6136 101.847 54.8474C101.916 54.8279 102.003 54.8084 102.091 54.8084C102.393 54.8279 102.977 54.9253 103.834 55.0909C104.768 55.1396 105.693 55.2954 106.628 55.5778C107.28 54.9253 107.757 54.3896 108.059 53.9708C108.244 53.6884 108.41 53.4449 108.546 53.2404C108.38 53.2599 108.293 53.2794 108.264 53.2794C107.894 53.2794 107.563 53.2014 107.29 53.0359C106.92 52.7826 106.618 52.4807 106.384 52.1301C106.131 51.6918 105.956 51.4191 105.859 51.3315C105.761 51.2146 105.732 51.1075 105.752 51.0198C105.8 50.8835 106.102 50.7374 106.657 50.601C107.173 50.4647 107.572 50.3478 107.874 50.2504C108.079 50.1335 108.332 50.0362 108.604 49.968C108.419 49.4323 108.254 48.7311 108.118 47.874C107.699 47.6695 107.417 47.4552 107.28 47.241C107.115 46.9585 106.92 46.7735 106.686 46.6858C106.55 46.5884 106.394 46.4326 106.229 46.1989C106.044 45.8969 106.19 45.7606 106.686 45.7801C107.037 45.7801 107.426 45.7411 107.874 45.6729C107.825 45.186 107.816 44.7964 107.835 44.5237C107.855 44.1244 107.855 43.8517 107.835 43.6861C107.816 43.5985 107.796 43.5108 107.796 43.4426C107.446 43.6764 107.124 43.9101 106.823 44.1439C106.404 44.4458 106.151 44.6016 106.053 44.6016C105.849 44.6211 105.693 44.5529 105.596 44.3873C105.43 44.1536 105.245 43.8517 105.041 43.4816C104.875 43.1991 104.807 42.9459 104.836 42.7122C104.836 42.4784 104.914 42.3129 105.08 42.2252C105.245 42.157 105.333 42.0499 105.362 41.9136C105.43 41.5922 105.469 40.8227 105.469 39.6053C105.489 37.9496 105.489 36.9368 105.469 36.5667C105.45 36.3621 105.391 36.2063 105.294 36.1089C105.197 35.9433 105.167 35.8167 105.187 35.7291C105.352 35.5246 105.508 35.4272 105.674 35.4466C105.956 35.5635 106.199 35.6706 106.404 35.7583C106.706 35.9433 106.969 36.1576 107.202 36.3914C107.319 36.4887 107.417 36.6154 107.485 36.7712C107.553 36.703 107.64 36.6348 107.728 36.5569C107.962 36.3524 108.195 36.1576 108.429 36.0018C108.896 35.1642 109.247 34.424 109.481 33.7715C109.597 33.4014 109.646 33.1774 109.617 33.1092C109.597 33.1287 109.539 33.1579 109.442 33.1774C109.257 33.3137 109.023 33.489 108.741 33.7033C108.575 33.8202 108.419 33.8883 108.254 33.9078C108.118 33.976 107.933 34.0052 107.699 33.976C107.494 33.9565 107.339 33.8981 107.241 33.8007C107.076 33.6643 106.881 33.4793 106.647 33.2455C106.326 32.9242 106.151 32.6904 106.122 32.5443C106.073 32.3787 106.005 32.2619 105.917 32.1937C105.781 32.0768 105.752 31.9697 105.849 31.882C105.917 31.7652 106.092 31.697 106.375 31.6775C106.677 31.6288 106.969 31.5606 107.251 31.473C107.991 31.1516 108.76 30.8399 109.558 30.5672C110.113 30.2848 110.552 30.2264 110.853 30.3919C111.593 30.8302 112.158 31.21 112.528 31.5119C112.509 31.4633 112.489 31.434 112.489 31.4048C112.44 31.2003 112.499 31.0445 112.664 30.9471C112.917 30.8107 113.161 30.6938 113.395 30.5965C114.466 30.0608 115.313 29.6907 115.945 29.4764C116.432 29.3109 116.715 29.1843 116.783 29.0966C117.016 28.8629 117.494 28.9018 118.214 29.2037C118.769 29.4862 119.236 29.8076 119.606 30.1777C119.791 30.3627 119.967 30.6646 120.132 31.0834C120.229 31.3659 120.054 31.8626 119.606 32.5833C119.09 33.304 118.526 34.0929 117.893 34.9597C117.893 34.9402 117.902 34.9402 117.932 34.9597C117.951 35.0571 117.971 35.135 117.971 35.2032V35.4466C117.951 35.5635 117.922 35.6901 117.902 35.8265C117.834 35.9433 117.786 36.0505 117.766 36.1381C117.717 36.255 117.562 36.3914 117.279 36.5569C116.841 36.927 116.432 37.1997 116.062 37.3653C115.624 37.5698 115.352 37.6867 115.264 37.7159C115.079 37.7841 114.952 37.8328 114.884 37.8523H114.816C114.797 38.0178 114.767 38.2126 114.748 38.4464C114.699 38.982 114.689 39.2645 114.709 39.2839C114.845 39.4008 115.059 39.3911 115.342 39.245C115.897 39.0112 116.228 38.8164 116.315 38.6509C116.452 38.4853 116.676 38.3587 116.978 38.271C117.328 38.2223 117.795 38.2126 118.37 38.2321C119.11 38.349 119.499 38.4853 119.519 38.6509C119.587 38.8359 119.558 39.0112 119.412 39.1768C119.158 39.4982 118.983 39.8391 118.886 40.1897C118.818 40.3942 118.603 40.55 118.253 40.6474C117.162 40.852 116.325 41.076 115.741 41.3097C115.994 41.3779 116.276 41.5337 116.578 41.7675C116.812 41.933 116.978 42.1278 117.065 42.3616C117.318 42.459 117.601 42.605 117.902 42.8193C118.224 43.0336 118.399 43.1991 118.428 43.3452C118.477 43.5108 118.38 43.8127 118.146 44.251C117.98 44.5724 117.902 44.7867 117.902 44.8743C117.883 45.0107 117.61 45.186 117.104 45.4002C116.87 45.4684 116.676 45.5561 116.51 45.6437C116.374 46.043 116.257 46.4229 116.16 46.793C115.994 47.1144 115.829 47.465 115.673 47.8448C115.673 47.8253 115.683 47.8059 115.712 47.8059C116.384 47.6403 116.948 47.4845 117.386 47.3189C117.786 47.1338 118.058 47.0851 118.224 47.1825C118.662 47.5039 119.11 47.7182 119.548 47.8156C120.015 47.9325 120.366 48.1662 120.599 48.5168C120.668 48.6532 120.697 48.8967 120.668 49.2473C120.599 49.5297 120.512 49.7829 120.424 50.0167C120.327 50.2017 120.239 50.3673 120.142 50.5036C120.044 50.6205 119.898 50.64 119.684 50.5718C119.519 50.5231 119.324 50.4647 119.09 50.3965C118.72 50.3089 118.185 50.2894 117.484 50.3576C116.997 50.377 116.578 50.4257 116.228 50.4939C116.715 50.679 117.182 50.9224 117.62 51.2244C118.691 52.0132 119.304 52.734 119.47 53.3865C119.538 53.8735 119.489 54.302 119.334 54.6818C119.197 55.1006 118.983 55.4999 118.701 55.87C118.516 56.1719 118.272 56.357 117.971 56.4252C117.649 56.4933 117.26 56.1719 116.822 55.4512C115.916 54.0975 115.098 52.5489 114.378 50.8056C114.31 50.7861 114.261 50.7861 114.242 50.8056C113.336 51.0101 112.45 51.2925 111.593 51.6431C111.175 51.7795 110.824 51.9353 110.542 52.1009C110.824 52.1983 111.038 52.3054 111.204 52.4515C111.389 52.5879 111.564 52.7729 111.73 53.0066C111.866 53.2404 111.905 53.4254 111.837 53.5618C111.739 53.7955 111.613 53.9611 111.457 54.0488C111.107 54.1656 110.785 54.3604 110.483 54.6429C110.162 54.8961 109.812 55.1298 109.432 55.3441C108.994 55.5973 108.585 55.7726 108.215 55.87C108.049 55.9187 107.962 55.9479 107.933 55.9771C108.001 55.9966 108.069 56.0258 108.137 56.0453C109.49 56.4933 111.223 56.99 113.336 57.5452C115.108 58.0127 117.036 58.2075 119.129 58.1393C120.833 58.0906 121.992 58.149 122.625 58.3146C123.997 58.4996 124.689 58.636 124.689 58.7334C124.708 58.9671 124.611 59.1619 124.377 59.3275C124.095 59.5612 123.598 59.8924 122.878 60.3404C121.826 61.0124 120.911 61.4701 120.122 61.7039C119.519 61.8889 118.993 62.1324 118.555 62.4343C118.253 62.6194 117.776 62.6291 117.124 62.4733C115.03 61.8889 112.781 61.2169 110.386 60.4475C108.079 59.6781 106.813 59.2496 106.579 59.1522C106.297 59.0353 105.868 58.9087 105.284 58.7723C104.379 58.5678 103.668 58.4509 103.152 58.4217L101.857 58.2854C101.623 58.2659 101.399 58.2659 101.195 58.2854C100.874 58.3535 100.621 58.4412 100.465 58.5289C100.095 58.7626 99.793 58.8113 99.5593 58.6652C99.1602 58.4607 98.8875 58.2367 98.722 58.0029C98.537 57.7692 98.4299 57.5354 98.4105 57.3017C98.3423 56.9803 98.206 56.766 97.9918 56.6686C97.7095 56.5323 97.7484 56.3083 98.0989 56.0064C98.4202 55.7044 98.6928 55.5097 98.8973 55.4123C99.5301 55.1298 100.241 54.9545 101.03 54.8863C101.312 54.5162 101.497 54.2241 101.584 54.0098C101.672 53.7566 101.623 53.5813 101.409 53.4839C100.806 53.182 100.319 52.8216 99.9391 52.4028C99.6567 52.1009 99.4717 51.76 99.3841 51.3899C99.1796 50.3673 99.1212 49.6076 99.2088 49.1207C99.1894 48.7506 99.0238 48.546 98.722 48.5266L98.7123 48.5363ZM113.755 43.2284C113.774 42.7901 113.774 42.381 113.755 42.0109C113.706 41.8454 113.677 41.6895 113.648 41.524L113.609 41.4558C113.541 41.4071 113.492 41.3779 113.472 41.3487C112.986 40.9981 112.694 40.5014 112.596 39.8488C112.548 39.5956 112.577 38.8554 112.664 37.6477C112.762 36.4401 112.771 35.7875 112.703 35.6901C112.635 35.5538 112.606 35.4466 112.635 35.3785C112.703 35.2421 112.732 35.0863 112.703 34.9207C112.684 34.7844 112.713 34.6967 112.81 34.6772C112.927 34.6285 113.102 34.6578 113.336 34.7454C113.638 34.8818 113.979 35.0668 114.349 35.3005C114.349 35.2811 114.358 35.2616 114.388 35.2616C114.826 34.9402 115.274 34.3753 115.712 33.5864C116.111 32.9631 116.423 32.3982 116.656 31.9113C116.724 31.6775 116.744 31.5509 116.724 31.5314C116.705 31.4827 116.646 31.473 116.549 31.4925C116.267 31.5899 115.975 31.7165 115.673 31.8723C115.371 32.0379 115.098 32.184 114.874 32.3301C114.436 32.4956 114.027 32.5346 113.657 32.4664C113.356 32.369 113.132 32.2521 112.995 32.1158C113.015 32.4177 112.859 32.8949 112.509 33.5475C112.158 34.1026 111.769 34.8428 111.321 35.7486C111.34 35.7486 111.36 35.7583 111.36 35.7875V36.4206C111.34 36.518 111.311 36.5764 111.292 36.5959C111.038 36.8978 110.795 37.1705 110.561 37.3945C110.425 37.5796 110.269 37.7549 110.104 37.9204C109.705 38.4074 109.266 38.7385 108.78 38.8944C108.478 39.0112 108.01 39.0599 107.387 39.0307H107.348C107.3 39.8683 107.27 40.6182 107.241 41.261C107.241 41.3292 107.28 41.3584 107.348 41.3292C107.864 41.0078 108.565 40.589 109.481 40.0728C110.318 39.6053 110.922 39.2255 111.292 38.9236C111.545 38.6898 111.72 38.6217 111.817 38.7191C111.915 38.7678 111.876 38.9041 111.71 39.1378C111.545 39.3716 111.399 39.6346 111.253 39.9462C111.038 40.4624 110.756 40.9007 110.376 41.2708C109.938 41.7577 109.49 42.1765 109.052 42.5271C108.799 42.6635 108.585 42.8193 108.419 42.9849C108.857 43.2186 109.296 43.3452 109.714 43.3647C110.201 43.4134 110.62 43.764 110.97 44.4166C110.97 44.436 110.98 44.4847 111.009 44.5529C111.847 44.1536 112.762 43.7153 113.765 43.2284H113.755ZM111.029 47.6987V48.361C111.029 48.6434 111.019 48.8869 110.99 49.0914C111.428 48.9064 111.905 48.77 112.421 48.6727H112.46C112.645 48.3707 112.81 48.0299 112.947 47.6598C112.995 47.426 113.054 47.202 113.122 46.9975C112.382 47.2312 111.681 47.465 111.029 47.6987Z" stroke="#3E220E" stroke-width="3.89573" stroke-linecap="round" stroke-linejoin="round"/>
<path d="M132.711 50.4548C132.273 50.8249 131.932 51.0295 131.699 51.0489C131.514 51.0976 131.338 51.0879 131.173 51.01C131.007 50.9613 130.852 50.8736 130.686 50.7275C130.384 50.4938 130.19 50.2308 130.092 49.9192C130.073 49.7536 130.073 49.627 130.092 49.5393C130.16 49.403 130.131 49.179 129.985 48.8771C129.868 48.5946 129.917 48.4485 130.121 48.4193C130.404 48.3706 130.657 48.2732 130.891 48.1077C132.127 47.2506 132.896 46.6955 133.198 46.4617C133.636 46.1403 134.152 45.7507 134.736 45.3125C134.736 44.5236 134.746 43.7347 134.775 42.9361V42.5855C134.493 42.6536 134.279 42.7023 134.113 42.7218C133.597 42.7413 132.964 42.4686 132.195 41.8842C131.173 41.0953 130.433 40.3357 129.995 39.615C129.713 39.0988 129.8 38.7969 130.238 38.7092C130.706 38.6118 131.192 38.456 131.708 38.2222C132.643 37.8034 133.519 37.3847 134.357 36.9659C134.454 36.8685 134.581 36.81 134.736 36.7906C134.736 35.4855 134.727 34.755 134.697 34.5895C134.561 33.635 134.376 32.7585 134.143 31.9696C133.977 31.3171 133.977 30.9177 134.143 30.7814C134.376 30.5769 134.775 30.5866 135.33 30.8203C136.752 31.4242 137.648 31.8138 138.018 31.9696C138.417 32.252 138.689 32.5247 138.855 32.8072C138.991 33.0604 139.079 33.3818 139.098 33.7519C139.118 33.9856 139.02 34.3557 138.787 34.8719C138.767 34.8914 138.748 34.9206 138.748 34.9401C138.816 34.9206 138.884 34.9011 138.952 34.9011C139.166 34.8816 139.332 34.9011 139.478 34.9693C139.663 35.0375 139.877 35.1933 140.111 35.427C140.345 35.6413 140.578 35.8945 140.812 36.1965C141.026 36.4789 141.046 36.8003 140.88 37.1704C140.715 37.4918 140.52 37.8424 140.286 38.2222C140.072 38.5729 139.682 38.9332 139.098 39.3033C138.66 39.6052 138.251 39.9071 137.881 40.2091C137.813 41.0272 137.774 41.894 137.774 42.8289C138.563 42.1082 139.322 41.3973 140.043 40.696C140.228 40.4623 140.364 40.3941 140.461 40.4915C140.53 40.6084 140.452 40.9882 140.218 41.6407C140.033 42.1764 139.838 42.5952 139.624 42.8971C139.371 43.3646 139.098 43.7444 138.826 44.0464C138.758 44.0658 138.709 44.1145 138.689 44.1827C138.826 44.0658 139.108 43.9977 139.527 43.9782C140.13 43.91 140.607 43.8223 140.958 43.7347C142.535 43.2185 144.346 42.79 146.371 42.4394C146.42 42.2738 146.449 42.1472 146.478 42.0595C146.547 41.6602 146.595 41.3486 146.615 41.1148C146.43 41.183 146.293 41.2317 146.196 41.2512C145.865 41.368 145.427 41.4167 144.872 41.3875C144.434 41.3193 144.132 41.1733 143.966 40.9687C143.684 40.6473 143.48 40.3746 143.334 40.1701C143.217 39.9851 143.11 39.8195 143.022 39.6831C142.905 39.5176 142.915 39.4007 143.061 39.3325C143.48 39.128 143.801 39.0209 144.035 39.0209C144.551 38.9722 145.427 38.8358 146.693 38.6021V38.3586C146.624 38.0372 146.537 37.7547 146.449 37.521C146.05 37.6184 145.563 37.6476 144.979 37.6281C144.658 37.6087 144.405 37.5113 144.249 37.3457C144.064 37.4626 143.898 37.5307 143.762 37.5502C143.596 37.5989 143.509 37.5697 143.48 37.482C143.411 37.3652 143.363 37.3067 143.343 37.3067C143.275 37.258 143.188 37.1509 143.1 36.9951C142.983 36.81 142.925 36.7029 142.925 36.6834C142.905 36.5958 142.876 36.5276 142.856 36.5081C142.788 36.4594 142.701 36.2159 142.613 35.7777C142.428 34.9596 142.185 34.1415 141.883 33.3039C141.678 32.7487 141.416 32.2228 141.114 31.7358C140.909 31.3852 140.87 31.2197 141.007 31.2489C141.094 31.2489 141.182 31.2002 141.25 31.1125C141.338 31.0151 141.61 30.9859 142.048 31.0054C142.818 31.0736 143.343 31.1223 143.616 31.1417C146.547 30.5087 149.039 30.1483 151.084 30.0607C152.203 29.973 153.05 29.7685 153.635 29.4666C153.917 29.2621 154.433 29.34 155.202 29.7101C156.02 30.1094 156.575 30.4405 156.877 30.723C157.11 30.908 157.217 31.1515 157.188 31.4534C157.14 31.8235 156.964 32.3299 156.662 32.9533C156.341 33.4207 156.02 33.859 155.718 34.2778C155.718 34.2973 155.728 34.346 155.757 34.4142C155.776 34.5505 155.65 34.8719 155.377 35.3589C155.309 35.5439 155.066 35.6511 154.647 35.6705C152.456 36.0698 150.723 36.4205 149.448 36.7224C149.652 36.8879 149.847 37.073 150.003 37.2775C150.12 37.3749 150.217 37.5015 150.285 37.6574C150.821 37.4528 151.308 37.258 151.755 37.1022C151.94 36.9659 152.106 36.9366 152.242 37.034C152.495 37.1996 152.846 37.3165 153.294 37.3847C153.576 37.4041 153.849 37.5405 154.131 37.7645C154.316 37.9008 154.423 38.0859 154.443 38.3196C154.462 38.4852 154.306 38.8942 153.956 39.537C153.839 39.7221 153.527 39.8487 153.011 39.9169C151.843 40.1019 150.83 40.2772 149.974 40.4428L149.691 41.9134C151.317 41.6602 152.602 41.4947 153.527 41.4265C154.598 41.3096 155.494 41.144 156.215 40.9395C156.701 40.7545 157.032 40.7447 157.188 40.9006C157.675 41.2999 158.142 41.5726 158.581 41.7381C159.067 41.9232 159.428 42.2251 159.661 42.6439C159.729 42.8289 159.72 43.1114 159.622 43.4815C159.554 43.8029 159.447 44.0853 159.311 44.3191C159.194 44.5041 159.067 44.6794 158.931 44.845C158.814 44.9424 158.639 44.9424 158.405 44.845C158.22 44.7768 158.006 44.6989 157.772 44.6015C157.169 44.397 156.331 44.2801 155.26 44.2509C154.706 44.2314 154.199 44.2314 153.761 44.2509C153.664 44.4164 153.576 44.5723 153.479 44.7378C153.245 45.1079 152.885 45.4878 152.398 45.8579C152.602 45.9942 152.934 46.0819 153.372 46.1014C153.605 46.1208 153.858 46.2377 154.141 46.452C154.306 46.5688 154.394 46.7344 154.423 46.9389C154.443 47.1045 154.306 47.4746 154.004 48.059C153.907 48.244 153.625 48.3706 153.128 48.4388C151.94 48.6725 150.947 48.8673 150.159 49.0329L150.198 49.0718C150.451 49.4225 150.568 49.7439 150.548 50.0458C150.499 50.114 150.47 50.2211 150.441 50.3574C151.395 50.1724 152.164 50.0653 152.749 50.0458C153.187 50.0458 153.527 49.9679 153.761 49.8023C153.897 49.5978 154.014 49.4906 154.112 49.4906C154.248 49.4906 154.472 49.5686 154.774 49.7341C155.095 49.8997 155.475 50.0263 155.893 50.114C156.176 50.2114 156.361 50.338 156.448 50.4938C156.536 50.6594 156.633 50.8541 156.731 51.0879C156.779 51.3216 156.789 51.5164 156.77 51.682C156.701 51.867 156.594 52.0423 156.458 52.2079C156.322 52.393 156.176 52.5683 156.039 52.7338C155.942 52.8312 155.835 52.8604 155.689 52.841C155.572 52.841 155.465 52.8312 155.377 52.802C153.985 52.7533 152.583 52.8702 151.191 53.1526C150.772 53.2013 150.412 53.2695 150.11 53.3572V54.0584C150.091 56.2692 150.061 57.7399 150.042 58.4606C150.022 58.8794 149.993 59.3468 149.974 59.8533C149.906 60.2916 149.798 60.7006 149.662 61.0707C149.497 61.4895 149.341 61.7817 149.175 61.9472C148.942 62.1518 148.718 62.2979 148.513 62.366C148.211 62.5024 147.978 62.6193 147.812 62.7167C147.695 62.7848 147.588 62.6387 147.501 62.2589C147.403 61.957 147.325 61.5869 147.257 61.1389C147.16 60.3695 147.101 59.415 147.082 58.2755C146.985 56.7659 146.946 55.7238 146.946 55.1687C146.926 54.7986 146.907 54.4577 146.907 54.1558C146.469 54.2532 146.06 54.37 145.69 54.5064C144.57 54.8765 143.801 55.1492 143.382 55.305C143.08 55.4706 142.886 55.5582 142.788 55.5875C142.652 55.5875 142.535 55.5485 142.438 55.4803C142.34 55.4122 142.185 55.2563 141.951 55.0226C141.698 54.7888 141.484 54.5551 141.318 54.3213C141.182 54.1558 141.065 53.9999 140.968 53.8344C140.87 53.7175 140.792 53.5519 140.724 53.3474C140.676 53.1624 140.666 53.026 140.685 52.9286C140.753 52.7923 140.822 52.7241 140.89 52.7241C140.977 52.7241 141.143 52.7338 141.377 52.7631C141.562 52.7436 141.776 52.7144 142.009 52.6949C143.45 52.0716 145.047 51.5456 146.79 51.1268V50.6691C146.77 50.3867 146.722 50.114 146.654 49.8315C146.069 49.9679 145.699 50.0847 145.534 50.1821C145.164 50.3185 144.658 50.3769 144.035 50.3574C143.635 50.2893 143.363 50.1724 143.197 50.0068C142.915 49.6854 142.73 49.4419 142.642 49.2764C142.525 49.0718 142.418 48.916 142.331 48.8186C142.233 48.6823 142.233 48.5751 142.331 48.507C142.701 48.2927 143.003 48.1953 143.236 48.1953C143.587 48.1271 144.054 48.0784 144.628 48.059C144.56 47.9421 144.512 47.835 144.492 47.7473C144.21 47.1629 143.996 46.5786 143.83 46.004C143.129 46.2572 142.574 46.5396 142.155 46.8415C141.639 47.0948 141.269 47.2116 141.036 47.1922C140.617 47.1435 140.267 47.0071 139.984 46.7734C139.585 46.452 139.283 46.0721 139.079 45.6533C138.826 45.1177 138.65 44.806 138.553 44.7086C138.485 44.6112 138.446 44.5333 138.446 44.4651C138.212 44.6989 137.979 44.9911 137.745 45.3417C137.745 47.2993 137.784 48.916 137.852 50.1919C137.969 51.9839 137.988 53.6785 137.92 55.2855C137.94 55.7335 137.881 56.1329 137.745 56.503C137.579 57.0581 137.317 57.4964 136.947 57.7983C136.625 58.1002 136.304 58.3729 136.002 58.5969C135.7 58.782 135.476 58.8794 135.34 58.8794C135.038 58.8794 134.668 58.519 134.22 57.7983C134.016 57.4477 133.792 57.0873 133.558 56.7172C133.344 56.464 133.198 56.2303 133.101 56.016C132.984 55.8504 132.964 55.7238 133.033 55.6362C133.081 55.568 133.383 55.6167 133.938 55.7725C134.172 55.8212 134.337 55.8504 134.425 55.8796C134.59 55.8309 134.659 55.6946 134.639 55.4608C134.688 54.8278 134.717 52.5975 134.746 48.7602C134.094 49.364 133.422 49.9289 132.721 50.4354L132.711 50.4548ZM144.687 35.7874C145.427 35.6997 146.585 35.4952 148.143 35.1933C148.163 35.057 148.26 34.8816 148.426 34.6674C148.523 34.5018 148.601 34.346 148.669 34.1804C148.786 33.9272 148.893 33.6253 148.981 33.2747C149.068 32.9727 149.136 32.7098 149.156 32.476C149.205 32.2423 149.224 32.0475 149.224 31.8819C148.708 31.9793 148.202 32.067 147.686 32.1644C147.588 32.1839 147.51 32.2131 147.442 32.2325C147.51 32.4858 147.559 32.7293 147.588 32.963V33.5181C147.608 33.6545 147.588 33.8395 147.52 34.0733C147.501 34.2388 147.452 34.3655 147.374 34.4531C147.306 34.57 147.218 34.6771 147.121 34.7648C146.955 34.8816 146.858 34.9401 146.839 34.9401C146.722 34.9596 146.644 34.9303 146.624 34.8329C146.527 34.6966 146.4 34.5408 146.235 34.3752C146.089 34.2778 146.011 34.1317 145.982 33.9175V32.5247C145.329 32.6611 144.813 32.8364 144.443 33.0507C144.463 33.4207 144.512 33.7519 144.58 34.0246C144.648 34.4921 144.687 35.0764 144.687 35.7679V35.7874ZM145.943 45.3222C145.943 45.3222 145.884 45.3319 145.904 45.3612C146.323 45.78 146.576 46.1695 146.673 46.5104C146.673 46.8805 146.595 47.2116 146.43 47.4843C146.362 47.5525 146.313 47.6207 146.293 47.6889C146.693 47.572 147.131 47.4649 147.618 47.3772C148.172 47.2409 148.708 47.0948 149.224 46.9584C149.759 46.3059 150.178 45.741 150.48 45.2443C150.684 44.8937 150.84 44.6015 150.938 44.3678C150.655 44.3872 150.412 44.4164 150.207 44.4359C148.786 44.6405 147.364 44.9326 145.953 45.3125L145.943 45.3222ZM150.86 31.6287C150.86 31.6287 150.908 31.6092 150.928 31.6287C151.113 31.7651 151.22 31.9404 151.239 32.1546C151.239 32.3884 151.191 32.6221 151.103 32.8559C151.035 32.924 150.947 33.0993 150.86 33.3818C150.743 33.635 150.616 33.8785 150.48 34.1122C150.363 34.2973 150.227 34.5116 150.061 34.7453C150.762 34.5408 151.434 34.3265 152.086 34.1122C152.388 33.6448 152.583 33.3331 152.68 33.1675C152.885 32.7487 153.041 32.3299 153.138 31.9111C153.157 31.7066 153.157 31.5898 153.138 31.5605C153.07 31.4242 152.817 31.3657 152.369 31.3852C151.853 31.4534 151.356 31.5411 150.869 31.6287H150.86Z" stroke="#3E220E" stroke-width="3.89573" stroke-linecap="round" stroke-linejoin="round"/>
<path d="M167.587 42.8777C169.096 42.2252 169.972 41.7285 170.206 41.3779C170.391 41.2123 170.673 41.1831 171.043 41.2708C173.234 41.8064 174.402 42.157 174.567 42.3226C174.772 42.5077 174.869 42.7901 174.85 43.1602C174.85 43.5108 174.743 43.803 174.538 44.0367C174.334 44.2705 174.003 45.0301 173.565 46.306C173.214 47.2799 172.961 48.0201 172.795 48.5071C172.425 49.5589 172.017 50.3673 171.578 50.9517C170.838 51.9743 170.04 52.8119 169.203 53.4644C168.434 54.1169 167.343 54.7305 165.922 55.3149C165.571 55.4512 165.347 55.4804 165.26 55.383C165.162 55.2857 165.376 54.9156 165.892 54.263C166.71 53.2404 167.265 52.4028 167.567 51.7503C168.2 50.6303 168.735 49.6466 169.174 48.7798C169.66 47.8253 170.06 46.793 170.361 45.6729C170.478 45.2054 170.488 44.962 170.4 44.9425C170.332 44.9425 170.157 44.9912 169.875 45.0788C169.037 45.6145 168.122 46.0333 167.119 46.3352C166.769 46.4521 166.447 46.5203 166.146 46.5495C165.678 46.6177 165.308 46.5884 165.026 46.4423C164.724 46.2768 164.432 46.043 164.15 45.7411C163.828 45.3418 163.614 45.0009 163.517 44.6893C163.449 44.436 163.517 44.29 163.721 44.2705C163.935 44.251 164.15 44.2315 164.383 44.2315C164.753 44.1146 165.824 43.6569 167.596 42.868L167.587 42.8777ZM174.606 30.8984C174.655 30.4991 174.684 30.2945 174.714 30.2653C174.762 30.2653 174.899 30.2751 175.132 30.3043C175.415 30.353 175.619 30.3432 175.765 30.2653C176.047 30.129 176.339 30.0608 176.641 30.0608C176.807 30.0803 177.196 30.2361 177.829 30.5185C178.413 30.801 179.027 31.2295 179.679 31.8139C180 32.0963 180.234 32.3495 180.38 32.5833C180.546 32.7878 180.614 32.9826 180.584 33.1384C180.565 33.3235 180.507 33.6059 180.409 33.976C180.107 35.1642 179.942 37.4432 179.922 40.8227V41.2415C180.02 41.3389 180.078 41.4266 180.098 41.524C180.263 41.7577 180.39 42.0596 180.477 42.4297C181.5 41.4071 182.512 40.2676 183.515 39.0112C184.586 37.638 185.161 36.6933 185.229 36.1868C185.326 35.7875 185.521 35.6025 185.823 35.6317C186.105 35.6804 186.397 35.7875 186.699 35.9433C187.02 36.1284 187.439 36.4693 187.955 36.9562C188.51 37.4724 188.87 37.9107 189.036 38.2808C189.24 38.7678 189.162 39.1671 188.792 39.469C187.322 40.6377 186.095 41.4363 185.092 41.8746C183.768 42.4784 182.405 43.0238 181.013 43.5205C181.383 44.0562 181.928 44.7574 182.649 45.6145C183.817 47.0072 185.414 48.546 187.468 50.2212C188.86 51.3607 190.691 52.471 192.95 53.5423C193.466 53.7468 193.972 53.9708 194.488 54.2046C194.838 54.3702 195.199 54.5552 195.569 54.7597C195.919 54.9935 196.055 55.1883 195.987 55.3538C195.939 55.4902 195.588 55.6655 194.936 55.8798C194.468 56.0453 193.982 56.1719 193.466 56.2596C193.096 56.3083 192.794 56.3765 192.56 56.4641C191.976 56.7855 191.372 57.0972 190.749 57.3699C190.467 57.4867 190.155 57.5354 189.805 57.5062C189.522 57.4867 189.133 57.3212 188.617 57.0193C187.828 56.6005 186.864 55.8895 185.715 54.8863C183.924 53.2988 182.318 51.5263 180.896 49.5395C180.614 49.1207 180.361 48.7603 180.127 48.4584C180.176 49.0622 180.234 49.6953 180.302 50.3478C180.604 53.815 180.536 56.2791 180.098 57.7497C179.913 58.7723 179.504 59.6684 178.881 60.4378C178.511 60.8371 178.102 61.1682 177.664 61.4507C177.264 61.7039 176.953 61.9181 176.719 62.0837C176.534 62.3175 176.369 62.4441 176.232 62.4635C176.047 62.5122 175.853 62.4538 175.638 62.2882C175.453 62.1519 175.288 61.8889 175.152 61.5188C174.918 60.8663 174.548 60.2819 174.032 59.7755C173.448 59.2398 172.971 58.8892 172.601 58.7236C172.348 58.5581 172.202 58.4704 172.182 58.4412C172.182 58.373 172.328 58.3048 172.64 58.2269C173.36 58.2951 174.071 58.3438 174.772 58.3633C175.21 58.2951 175.444 58.2269 175.473 58.1588C175.541 58.0419 175.58 57.7984 175.58 57.4283C175.765 41.8064 175.668 33.6351 175.298 32.9144C174.83 31.9405 174.606 31.2587 174.636 30.8886L174.606 30.8984Z" stroke="#3E220E" stroke-width="3.89573" stroke-linecap="round" stroke-linejoin="round"/>
<path d="M210.806 61.3825C210.368 61.5675 210.066 61.6454 209.9 61.6259C209.667 61.6259 209.501 61.5578 209.414 61.4117C209.297 61.2753 209.102 61.0124 208.82 60.6423C208.489 60.2429 208.245 59.8729 208.089 59.5222C207.973 59.269 207.846 58.9963 207.71 58.7139C207.642 58.5093 207.554 58.2464 207.466 57.9445C207.418 57.6912 207.447 57.4867 207.534 57.3504C207.7 57.1848 207.827 57.1069 207.914 57.1069C208.05 57.1751 208.265 57.2238 208.547 57.2432C208.829 57.3114 209.141 57.3406 209.491 57.3114C210.192 57.1264 210.923 56.99 211.692 56.8926C211.575 56.7271 211.439 56.6589 211.273 56.6881C211.039 56.7076 210.747 56.6784 210.397 56.581C210.144 56.4836 210.027 56.2596 210.046 55.8797C210.066 55.4415 210.163 55.0616 210.329 54.7597C210.494 54.3896 210.864 53.8734 211.448 53.2209C211.147 52.6852 210.816 51.9158 210.475 50.9127C209.92 49.3739 209.589 48.2831 209.501 47.6305C209.433 47.2604 209.365 46.9682 209.297 46.754C209.229 46.5495 209.19 46.3936 209.19 46.2962C208.703 46.5981 208.177 46.8903 207.622 47.1728C207.184 47.387 206.95 47.4455 206.921 47.3481C206.872 47.2799 206.999 47.0656 207.301 46.715C208.138 45.7119 208.907 44.5821 209.608 43.3257C209.91 42.7706 210.183 42.2349 210.416 41.7187C210.3 41.6506 210.192 41.5629 210.105 41.4753C209.735 41.1052 209.375 40.6961 209.024 40.2578C209.005 40.3065 208.975 40.365 208.956 40.4332C208.722 40.9493 208.352 41.485 207.836 42.0401C207.203 42.7122 206.746 43.1309 206.444 43.2965C206.142 43.4621 205.947 43.5887 205.85 43.6764C205.714 43.8127 205.5 43.9296 205.217 44.027C205.052 44.0951 204.896 44.1828 204.73 44.2704C204.662 45.4392 204.555 46.5884 204.419 47.7279C204.536 47.7279 204.604 47.7377 204.623 47.7669C205.276 47.8837 205.918 48.1467 206.541 48.5655C207.515 49.218 208.089 49.8316 208.255 50.416C208.323 50.8348 208.313 51.1951 208.216 51.497C208.119 51.8184 207.973 52.1593 207.758 52.5099C207.593 52.7437 207.398 52.8898 207.164 52.9677C206.931 53.0358 206.609 52.7924 206.191 52.2372C205.451 51.3315 204.779 50.3186 204.205 49.1985C203.951 50.5913 203.601 52.0035 203.153 53.4254C202.618 55.0811 201.81 56.3959 200.748 57.3698C199.745 58.2756 198.918 58.8502 198.266 59.084C197.896 59.2495 197.662 59.2982 197.565 59.2203C197.399 59.1327 197.496 58.8989 197.847 58.5191C198.285 57.886 198.762 57.0874 199.278 56.1135C199.901 54.9253 200.466 53.2696 200.953 51.1562C201.469 48.994 201.751 47.0267 201.829 45.2541C201.897 43.764 201.936 42.381 201.936 41.0954C201.936 39.4203 201.926 37.8328 201.897 36.3426C201.878 35.5732 201.829 34.8623 201.761 34.2097C201.712 33.6546 201.576 33.2163 201.342 32.9144C201.245 32.5443 201.186 32.3106 201.167 32.2132C201.147 32.0768 201.147 31.9599 201.167 31.8625C201.235 31.7749 201.352 31.7554 201.517 31.8236C201.751 31.8918 201.917 31.8431 202.004 31.6872C202.121 31.5022 202.433 31.4924 202.949 31.6483C203.786 31.9502 204.429 32.2911 204.867 32.6612C205.188 32.9631 205.276 33.4793 205.11 34.2C205.042 34.6383 204.993 35.1544 204.974 35.7388C204.925 36.5764 204.896 38.6022 204.867 41.8161C204.847 42.2544 204.818 42.7219 204.799 43.2089C205.237 42.605 205.577 42.0791 205.811 41.6408C206.21 40.8519 206.454 40.1994 206.541 39.6832C206.561 39.3813 206.463 39.1183 206.23 38.8846C205.908 38.534 205.85 38.3489 206.055 38.3295C206.22 38.31 206.308 38.2223 206.337 38.086C206.386 37.9691 206.561 37.9009 206.863 37.8814C207.301 37.8328 207.739 37.862 208.158 37.9496C208.528 38.047 208.8 38.1736 208.966 38.3295C209.131 38.5145 209.219 38.7288 209.248 38.9625C209.55 38.8943 209.891 38.8943 210.261 38.9625C210.796 39.0307 211.166 39.1865 211.38 39.4203C211.818 38.1444 212.12 37.0146 212.286 36.031C212.403 35.7778 212.393 35.6317 212.247 35.6122C211.526 35.7096 210.874 35.7972 210.29 35.8946C210.124 35.8946 209.93 35.8167 209.696 35.6511C209.394 35.4174 209.199 35.1544 209.102 34.8525C209.034 34.6675 209.005 34.5409 209.034 34.4727C209.053 34.3558 209.19 34.2876 209.414 34.2682C210.251 34.0344 211.127 33.7422 212.033 33.3916C212.383 33.2553 212.675 33.0702 212.909 32.8365C213.094 32.5833 213.259 32.4372 213.396 32.4177C213.513 32.369 213.717 32.3592 214.029 32.3787C214.515 32.4274 215.002 32.4566 215.499 32.4859C215.849 32.5053 216.093 32.6222 216.229 32.8365C216.297 33.002 216.326 33.1579 216.297 33.3234C216.229 33.4403 216.18 33.5474 216.161 33.6351C216.862 33.0507 217.426 32.5443 217.874 32.0963C218.575 31.4243 218.965 30.947 219.062 30.6646C219.276 30.2653 219.461 30.1387 219.617 30.2848C219.822 30.3822 220.153 30.4211 220.591 30.4211C221.146 30.4016 221.584 30.538 221.886 30.8399C222.285 31.1418 222.489 31.4438 222.519 31.7457C222.519 31.8625 222.509 31.9697 222.48 32.0573C222.411 32.1742 222.363 32.3106 222.343 32.4761C222.324 32.7099 222.119 32.9436 221.749 33.1774C220.863 33.6156 220.007 33.9565 219.169 34.1902C218.4 34.424 217.689 34.5896 217.037 34.6772C217.475 35.1447 218.059 35.768 218.78 36.5666C218.984 36.8199 219.198 37.0633 219.413 37.2971C220.231 36.8101 220.922 36.3426 221.506 35.9044C222.392 35.2713 222.918 34.8136 223.074 34.5116C223.327 34.1415 223.541 34.0247 223.697 34.161C223.93 34.2974 224.271 34.4045 224.709 34.4727C225.293 34.5214 225.722 34.7259 226.004 35.1057C226.355 35.4564 226.52 35.807 226.491 36.1576C226.471 36.2745 226.442 36.3816 226.423 36.4692C226.355 36.5861 226.286 36.7225 226.218 36.888C226.199 37.1218 225.965 37.3166 225.517 37.4821C224.446 37.8328 223.443 38.086 222.519 38.2515C221.779 38.3684 221.107 38.4366 220.532 38.4658C221.623 39.5858 222.811 40.6474 224.096 41.6408C225.702 42.9167 226.861 43.6763 227.591 43.9101C228.428 44.2315 229.091 44.5724 229.577 44.923C230.045 45.2444 230.395 45.5853 230.629 45.9359C230.726 46.1014 230.58 46.3157 230.21 46.5981C229.655 46.9975 229.013 47.2409 228.292 47.3286C227.552 47.4942 226.929 47.65 226.442 47.8156C225.955 48.0006 225.527 48.0493 225.147 47.9519C224.729 47.835 224.232 47.5526 223.648 47.1143C222.811 46.4813 221.837 45.5366 220.717 44.251C219.783 43.1991 219.062 42.2154 218.556 41.2805V41.3876C218.536 41.524 218.507 41.67 218.488 41.8064C218.439 42.0207 218.371 42.2252 218.283 42.4395C218.186 42.6245 218.098 42.7901 218.001 42.9264C217.884 43.0628 217.582 43.2478 217.095 43.4816C216.609 43.7348 216.151 43.9393 215.732 44.0757C215.314 44.212 215.031 44.2802 214.895 44.2802C214.564 44.3776 214.36 44.436 214.262 44.4555C213.96 44.5529 213.454 44.1049 212.763 43.1309C212.665 43.0141 212.588 42.9069 212.519 42.8193C212.218 43.3063 211.887 43.8127 211.546 44.3191C211.224 44.7574 210.64 45.2736 209.803 45.858C209.686 45.9067 209.618 45.9651 209.599 46.0333H209.637C210.105 46.1696 210.523 46.2281 210.893 46.2086C211.108 46.1599 211.293 46.2086 211.448 46.3449C213.337 45.7606 214.934 45.371 216.268 45.1567C216.92 45.0399 217.436 44.8645 217.806 44.6308C218.157 44.4263 218.76 44.5432 219.617 44.9814C220.571 45.4684 221.233 45.8872 221.603 46.2378C221.905 46.491 222.022 46.7735 221.954 47.0754C221.886 47.5623 221.662 48.1662 221.292 48.8869C220.824 49.5589 220.338 50.153 219.822 50.6692C219.802 50.7374 219.783 50.825 219.783 50.9127C219.763 50.9614 219.744 50.9906 219.744 51.0198C219.929 51.1172 220.104 51.2049 220.269 51.3022C220.62 51.5068 220.873 51.7308 221.039 51.9645C221.175 52.2177 221.233 52.4612 221.214 52.695C221.165 52.8605 221.097 53.0066 221.009 53.1527C220.873 53.2501 220.785 53.3767 220.766 53.5326C220.552 54.0487 220.192 54.6234 219.685 55.2759C219.383 55.646 219.052 56.0258 218.712 56.3959C219.033 56.3959 219.345 56.4057 219.617 56.4349C220.036 56.4836 220.357 56.4543 220.591 56.3667C220.824 56.0843 221.009 55.9576 221.146 55.9869C221.311 55.9869 221.613 56.1622 222.051 56.5128C222.45 56.8342 222.937 57.1166 223.521 57.3504C223.891 57.4867 224.125 57.7107 224.222 58.0126C224.291 58.2172 224.368 58.5093 224.466 58.8892C224.534 59.2106 224.505 59.493 224.359 59.7268C224.222 59.98 224.047 60.2137 223.833 60.428C223.599 60.613 223.346 60.8078 223.064 61.0221C222.898 61.139 222.742 61.1877 222.577 61.1584C222.441 61.1098 222.285 61.0513 222.119 60.9831C220.834 60.7299 219.559 60.613 218.283 60.6325C216.54 60.652 214.817 60.7689 213.113 60.9831C211.994 61.1487 211.254 61.2753 210.884 61.363L210.806 61.3825ZM197.613 40.7838C197.75 40.7351 198.042 40.8617 198.489 41.1636C199.122 41.5337 199.677 42.0694 200.164 42.7706C200.885 43.8419 201.235 44.699 201.216 45.3515C201.147 45.7508 201.031 46.0625 200.865 46.2962C200.68 46.5495 200.446 46.7929 200.164 47.0267C199.96 47.2117 199.736 47.2896 199.502 47.2702C199.249 47.2507 199.035 46.9488 198.869 46.3644C198.285 44.8256 197.857 43.1407 197.574 41.3C197.526 40.9786 197.535 40.8032 197.613 40.774V40.7838ZM213.289 52.8605C213.289 52.8605 213.24 52.9092 213.22 52.9287C213.172 53.0456 213.143 53.1722 213.113 53.3085C212.88 53.9611 212.685 54.9253 212.519 56.2109C212.451 56.4641 212.364 56.6686 212.276 56.805C213.016 56.6686 213.785 56.581 214.583 56.5615C214.905 56.1914 215.226 55.7921 215.528 55.3733C216.132 54.4383 216.579 53.5228 216.852 52.6171C216.92 52.247 216.949 52.0132 216.92 51.9158C215.713 52.1203 214.496 52.4417 213.289 52.8605ZM214.33 48.0104C213.561 48.2636 212.987 48.5071 212.617 48.7408C212.753 49.4615 212.87 50.1043 212.967 50.6594C213.269 50.5231 213.629 50.377 214.048 50.2407C214.768 49.9874 215.518 49.7732 216.278 49.6076C216.463 49.3252 216.599 49.1401 216.696 49.0525C216.949 48.5655 217.164 48.098 217.329 47.6597C217.378 47.4455 217.388 47.3383 217.368 47.3091C217.349 47.1922 217.193 47.1728 216.91 47.2409C216.054 47.4747 215.187 47.7279 214.33 48.0104ZM214.262 38.758C214.029 39.4787 213.736 40.2384 213.386 41.0273C213.805 40.813 214.33 40.6085 214.953 40.3942C215.138 40.2773 215.314 40.2091 215.479 40.1897C215.684 40.141 215.908 40.1312 216.141 40.1507C216.54 40.2189 216.92 40.2189 217.29 40.1507C217.504 40.102 217.689 40.1118 217.845 40.1897C217.446 39.5371 216.969 38.7775 216.414 37.9204C215.927 37.1802 215.499 36.5472 215.119 36.031V36.0992C214.837 36.9367 214.545 37.823 214.243 38.7482L214.262 38.758Z" stroke="#3E220E" stroke-width="3.89573" stroke-linecap="round" stroke-linejoin="round"/>
<path d="M98.8486 36.518C99.5009 36.1187 100.085 35.8557 100.591 35.7096C100.913 35.544 101.263 35.5343 101.643 35.6706C101.925 35.768 102.178 35.8557 102.412 35.9531C102.782 36.0894 103.016 36.2453 103.113 36.4108C103.279 36.6446 103.356 36.9368 103.356 37.2874C103.337 37.5698 103.308 37.7841 103.288 37.9496C103.269 38.1542 103.249 38.349 103.249 38.5048C103.249 38.6411 103.201 38.7483 103.113 38.8164C102.909 39.021 102.685 39.2352 102.451 39.4495C102.334 39.5859 102.208 39.7027 102.071 39.8001C101.672 40.1702 101.292 40.404 100.922 40.5014C100.669 40.5695 100.28 40.5695 99.7735 40.5014C99.3744 40.4137 99.0336 40.2481 98.722 40.0144C98.4007 39.7612 98.0892 39.5274 97.8165 39.3132C97.466 39.0307 97.2908 38.7872 97.2908 38.5827C97.2713 38.3003 97.1837 38.0276 97.0474 37.7451C96.7942 37.2289 96.7066 36.927 96.804 36.8394C96.9403 36.7225 97.2324 36.7322 97.6802 36.8783C98.0307 36.9465 98.4202 36.8296 98.8681 36.5277L98.8486 36.518ZM98.7123 48.5363C98.2936 48.4876 97.875 48.3513 97.4563 48.1175C97.2226 47.913 97.0961 47.6987 97.0766 47.4845C97.0571 47.2994 97.1545 47.1338 97.3882 46.9975C97.9431 46.5787 98.5857 46.1794 99.3062 45.8093C99.7443 45.5268 100.075 45.2736 100.28 45.0399C100.397 44.9035 100.63 44.9133 100.981 45.0788C101.215 45.1957 101.536 45.2834 101.954 45.3613C102.49 45.3808 102.84 45.4976 103.006 45.7119C103.094 45.8482 103.133 46.0333 103.113 46.267C103.045 46.5495 102.996 46.8222 102.977 47.1046C102.928 47.3189 102.753 47.5624 102.451 47.8351C102.169 48.0688 101.916 48.5363 101.682 49.2278C101.497 49.7829 101.399 50.1822 101.399 50.416C101.38 50.5523 101.399 50.7276 101.468 50.9419C101.584 51.1075 101.896 51.3412 102.412 51.6431C102.714 51.8282 102.977 52.1301 103.21 52.5489C103.376 52.8313 103.405 53.1527 103.318 53.5228C103.298 53.7079 103.064 53.9514 102.617 54.2533C102.383 54.4189 102.13 54.6136 101.847 54.8474C101.916 54.8279 102.003 54.8084 102.091 54.8084C102.393 54.8279 102.977 54.9253 103.834 55.0909C104.768 55.1396 105.693 55.2954 106.628 55.5778C107.28 54.9253 107.757 54.3896 108.059 53.9708C108.244 53.6884 108.41 53.4449 108.546 53.2404C108.38 53.2599 108.293 53.2794 108.264 53.2794C107.894 53.2794 107.563 53.2014 107.29 53.0359C106.92 52.7826 106.618 52.4807 106.384 52.1301C106.131 51.6918 105.956 51.4191 105.859 51.3315C105.761 51.2146 105.732 51.1075 105.752 51.0198C105.8 50.8835 106.102 50.7374 106.657 50.601C107.173 50.4647 107.572 50.3478 107.874 50.2504C108.079 50.1335 108.332 50.0362 108.604 49.968C108.419 49.4323 108.254 48.7311 108.118 47.874C107.699 47.6695 107.417 47.4552 107.28 47.241C107.115 46.9585 106.92 46.7735 106.686 46.6858C106.55 46.5884 106.394 46.4326 106.229 46.1989C106.044 45.8969 106.19 45.7606 106.686 45.7801C107.037 45.7801 107.426 45.7411 107.874 45.6729C107.825 45.186 107.816 44.7964 107.835 44.5237C107.855 44.1244 107.855 43.8517 107.835 43.6861C107.816 43.5985 107.796 43.5108 107.796 43.4426C107.446 43.6764 107.124 43.9101 106.823 44.1439C106.404 44.4458 106.151 44.6016 106.053 44.6016C105.849 44.6211 105.693 44.5529 105.596 44.3873C105.43 44.1536 105.245 43.8517 105.041 43.4816C104.875 43.1991 104.807 42.9459 104.836 42.7122C104.836 42.4784 104.914 42.3129 105.08 42.2252C105.245 42.157 105.333 42.0499 105.362 41.9136C105.43 41.5922 105.469 40.8227 105.469 39.6053C105.489 37.9496 105.489 36.9368 105.469 36.5667C105.45 36.3621 105.391 36.2063 105.294 36.1089C105.197 35.9433 105.167 35.8167 105.187 35.7291C105.352 35.5246 105.508 35.4272 105.674 35.4466C105.956 35.5635 106.199 35.6706 106.404 35.7583C106.706 35.9433 106.969 36.1576 107.202 36.3914C107.319 36.4887 107.417 36.6154 107.485 36.7712C107.553 36.703 107.64 36.6348 107.728 36.5569C107.962 36.3524 108.195 36.1576 108.429 36.0018C108.896 35.1642 109.247 34.424 109.481 33.7715C109.597 33.4014 109.646 33.1774 109.617 33.1092C109.597 33.1287 109.539 33.1579 109.442 33.1774C109.257 33.3137 109.023 33.489 108.741 33.7033C108.575 33.8202 108.419 33.8883 108.254 33.9078C108.118 33.976 107.933 34.0052 107.699 33.976C107.494 33.9565 107.339 33.8981 107.241 33.8007C107.076 33.6643 106.881 33.4793 106.647 33.2455C106.326 32.9242 106.151 32.6904 106.122 32.5443C106.073 32.3787 106.005 32.2619 105.917 32.1937C105.781 32.0768 105.752 31.9697 105.849 31.882C105.917 31.7652 106.092 31.697 106.375 31.6775C106.677 31.6288 106.969 31.5606 107.251 31.473C107.991 31.1516 108.76 30.8399 109.558 30.5672C110.113 30.2848 110.552 30.2264 110.853 30.3919C111.593 30.8302 112.158 31.21 112.528 31.512C112.509 31.4633 112.489 31.434 112.489 31.4048C112.44 31.2003 112.499 31.0445 112.664 30.9471C112.917 30.8107 113.161 30.6938 113.395 30.5965C114.466 30.0608 115.313 29.6907 115.945 29.4764C116.432 29.3109 116.715 29.1843 116.783 29.0966C117.016 28.8629 117.494 28.9018 118.214 29.2037C118.769 29.4862 119.236 29.8076 119.606 30.1777C119.791 30.3627 119.967 30.6646 120.132 31.0834C120.229 31.3659 120.054 31.8626 119.606 32.5833C119.09 33.304 118.526 34.0929 117.893 34.9597C117.893 34.9402 117.902 34.9402 117.932 34.9597C117.951 35.0571 117.971 35.135 117.971 35.2032V35.4466C117.951 35.5635 117.922 35.6901 117.902 35.8265C117.834 35.9433 117.786 36.0505 117.766 36.1381C117.717 36.255 117.562 36.3914 117.279 36.5569C116.841 36.927 116.432 37.1997 116.062 37.3653C115.624 37.5698 115.352 37.6867 115.264 37.7159C115.079 37.7841 114.952 37.8328 114.884 37.8523H114.816C114.797 38.0178 114.767 38.2126 114.748 38.4464C114.699 38.982 114.689 39.2645 114.709 39.2839C114.845 39.4008 115.059 39.3911 115.342 39.245C115.897 39.0112 116.228 38.8164 116.315 38.6509C116.452 38.4853 116.676 38.3587 116.978 38.271C117.328 38.2223 117.795 38.2126 118.37 38.2321C119.11 38.349 119.499 38.4853 119.519 38.6509C119.587 38.8359 119.558 39.0112 119.412 39.1768C119.158 39.4982 118.983 39.8391 118.886 40.1897C118.818 40.3942 118.603 40.55 118.253 40.6474C117.162 40.852 116.325 41.076 115.741 41.3097C115.994 41.3779 116.276 41.5337 116.578 41.7675C116.812 41.933 116.978 42.1278 117.065 42.3616C117.318 42.459 117.601 42.605 117.902 42.8193C118.224 43.0336 118.399 43.1991 118.428 43.3452C118.477 43.5108 118.38 43.8127 118.146 44.251C117.98 44.5724 117.902 44.7867 117.902 44.8743C117.883 45.0107 117.61 45.186 117.104 45.4002C116.87 45.4684 116.676 45.5561 116.51 45.6437C116.374 46.043 116.257 46.4229 116.16 46.793C115.994 47.1144 115.829 47.465 115.673 47.8448C115.673 47.8253 115.683 47.8059 115.712 47.8059C116.384 47.6403 116.948 47.4845 117.386 47.3189C117.786 47.1338 118.058 47.0851 118.224 47.1825C118.662 47.5039 119.11 47.7182 119.548 47.8156C120.015 47.9325 120.366 48.1662 120.599 48.5168C120.668 48.6532 120.697 48.8967 120.668 49.2473C120.599 49.5297 120.512 49.7829 120.424 50.0167C120.327 50.2017 120.239 50.3673 120.142 50.5036C120.044 50.6205 119.898 50.64 119.684 50.5718C119.519 50.5231 119.324 50.4647 119.09 50.3965C118.72 50.3089 118.185 50.2894 117.484 50.3576C116.997 50.377 116.578 50.4257 116.228 50.4939C116.715 50.679 117.182 50.9224 117.62 51.2244C118.691 52.0132 119.304 52.734 119.47 53.3865C119.538 53.8735 119.489 54.302 119.334 54.6818C119.197 55.1006 118.983 55.4999 118.701 55.87C118.516 56.1719 118.272 56.357 117.971 56.4252C117.649 56.4933 117.26 56.1719 116.822 55.4512C115.916 54.0975 115.098 52.5489 114.378 50.8056C114.31 50.7861 114.261 50.7861 114.242 50.8056C113.336 51.0101 112.45 51.2925 111.593 51.6431C111.175 51.7795 110.824 51.9353 110.542 52.1009C110.824 52.1983 111.038 52.3054 111.204 52.4515C111.389 52.5879 111.564 52.7729 111.73 53.0066C111.866 53.2404 111.905 53.4254 111.837 53.5618C111.739 53.7955 111.613 53.9611 111.457 54.0488C111.107 54.1656 110.785 54.3604 110.483 54.6429C110.162 54.8961 109.812 55.1298 109.432 55.3441C108.994 55.5973 108.585 55.7726 108.215 55.87C108.049 55.9187 107.962 55.9479 107.933 55.9771C108.001 55.9966 108.069 56.0258 108.137 56.0453C109.49 56.4933 111.223 56.99 113.336 57.5452C115.108 58.0127 117.036 58.2075 119.129 58.1393C120.833 58.0906 121.992 58.149 122.625 58.3146C123.997 58.4996 124.689 58.636 124.689 58.7334C124.708 58.9671 124.611 59.1619 124.377 59.3275C124.095 59.5612 123.598 59.8924 122.878 60.3404C121.826 61.0124 120.911 61.4701 120.122 61.7039C119.519 61.8889 118.993 62.1324 118.555 62.4343C118.253 62.6194 117.776 62.6291 117.124 62.4733C115.03 61.8889 112.781 61.2169 110.386 60.4475C108.079 59.6781 106.813 59.2496 106.579 59.1522C106.297 59.0353 105.868 58.9087 105.284 58.7723C104.379 58.5678 103.668 58.4509 103.152 58.4217L101.857 58.2854C101.623 58.2659 101.399 58.2659 101.195 58.2854C100.874 58.3535 100.621 58.4412 100.465 58.5289C100.095 58.7626 99.793 58.8113 99.5593 58.6652C99.1602 58.4607 98.8875 58.2367 98.722 58.0029C98.537 57.7692 98.4299 57.5354 98.4105 57.3017C98.3423 56.9803 98.206 56.766 97.9918 56.6686C97.7095 56.5323 97.7484 56.3083 98.0989 56.0064C98.4202 55.7044 98.6928 55.5097 98.8973 55.4123C99.5301 55.1298 100.241 54.9545 101.03 54.8863C101.312 54.5162 101.497 54.2241 101.584 54.0098C101.672 53.7566 101.623 53.5813 101.409 53.4839C100.806 53.182 100.319 52.8216 99.9391 52.4028C99.6567 52.1009 99.4717 51.76 99.3841 51.3899C99.1796 50.3673 99.1212 49.6076 99.2088 49.1207C99.1894 48.7506 99.0238 48.546 98.722 48.5266L98.7123 48.5363ZM113.755 43.2284C113.774 42.7901 113.774 42.381 113.755 42.0109C113.706 41.8454 113.677 41.6895 113.648 41.524L113.609 41.4558C113.541 41.4071 113.492 41.3779 113.472 41.3487C112.986 40.9981 112.694 40.5014 112.596 39.8488C112.548 39.5956 112.577 38.8554 112.664 37.6477C112.762 36.4401 112.771 35.7875 112.703 35.6901C112.635 35.5538 112.606 35.4466 112.635 35.3785C112.703 35.2421 112.732 35.0863 112.703 34.9207C112.684 34.7844 112.713 34.6967 112.81 34.6772C112.927 34.6285 113.102 34.6578 113.336 34.7454C113.638 34.8818 113.979 35.0668 114.349 35.3005C114.349 35.2811 114.358 35.2616 114.388 35.2616C114.826 34.9402 115.274 34.3753 115.712 33.5864C116.111 32.9631 116.423 32.3982 116.656 31.9113C116.724 31.6775 116.744 31.5509 116.724 31.5314C116.705 31.4827 116.646 31.473 116.549 31.4925C116.267 31.5899 115.975 31.7165 115.673 31.8723C115.371 32.0379 115.098 32.184 114.874 32.3301C114.436 32.4956 114.027 32.5346 113.657 32.4664C113.356 32.369 113.132 32.2521 112.995 32.1158C113.015 32.4177 112.859 32.8949 112.509 33.5475C112.158 34.1026 111.769 34.8428 111.321 35.7486C111.34 35.7486 111.36 35.7583 111.36 35.7875V36.4206C111.34 36.518 111.311 36.5764 111.292 36.5959C111.038 36.8978 110.795 37.1705 110.561 37.3945C110.425 37.5796 110.269 37.7549 110.104 37.9204C109.705 38.4074 109.266 38.7385 108.78 38.8944C108.478 39.0112 108.01 39.0599 107.387 39.0307H107.348C107.3 39.8683 107.27 40.6182 107.241 41.261C107.241 41.3292 107.28 41.3584 107.348 41.3292C107.864 41.0078 108.565 40.589 109.481 40.0728C110.318 39.6053 110.922 39.2255 111.292 38.9236C111.545 38.6898 111.72 38.6217 111.817 38.7191C111.915 38.7678 111.876 38.9041 111.71 39.1378C111.545 39.3716 111.399 39.6346 111.253 39.9462C111.038 40.4624 110.756 40.9007 110.376 41.2708C109.938 41.7577 109.49 42.1765 109.052 42.5271C108.799 42.6635 108.585 42.8193 108.419 42.9849C108.857 43.2186 109.296 43.3452 109.714 43.3647C110.201 43.4134 110.62 43.764 110.97 44.4166C110.97 44.436 110.98 44.4847 111.009 44.5529C111.847 44.1536 112.762 43.7153 113.765 43.2284H113.755ZM111.029 47.6987V48.361C111.029 48.6434 111.019 48.8869 110.99 49.0914C111.428 48.9064 111.905 48.77 112.421 48.6726H112.46C112.645 48.3707 112.81 48.0299 112.947 47.6598C112.995 47.426 113.054 47.202 113.122 46.9975C112.382 47.2312 111.681 47.465 111.029 47.6987Z" fill="url(#paint0_linear_395_10019)"/>
<path d="M132.711 50.4548C132.273 50.8249 131.932 51.0295 131.699 51.0489C131.514 51.0976 131.338 51.0879 131.173 51.01C131.007 50.9613 130.852 50.8736 130.686 50.7275C130.384 50.4938 130.19 50.2308 130.092 49.9192C130.073 49.7536 130.073 49.627 130.092 49.5393C130.16 49.403 130.131 49.179 129.985 48.8771C129.868 48.5946 129.917 48.4485 130.121 48.4193C130.404 48.3706 130.657 48.2732 130.891 48.1077C132.127 47.2506 132.896 46.6955 133.198 46.4617C133.636 46.1403 134.152 45.7507 134.736 45.3125C134.736 44.5236 134.746 43.7347 134.775 42.9361V42.5855C134.493 42.6536 134.279 42.7023 134.113 42.7218C133.597 42.7413 132.964 42.4686 132.195 41.8842C131.173 41.0953 130.433 40.3357 129.995 39.615C129.713 39.0988 129.8 38.7969 130.238 38.7092C130.706 38.6118 131.192 38.456 131.708 38.2222C132.643 37.8034 133.519 37.3847 134.357 36.9659C134.454 36.8685 134.581 36.81 134.736 36.7906C134.736 35.4855 134.727 34.755 134.697 34.5895C134.561 33.635 134.376 32.7585 134.143 31.9696C133.977 31.3171 133.977 30.9177 134.143 30.7814C134.376 30.5769 134.775 30.5866 135.33 30.8203C136.752 31.4242 137.648 31.8138 138.018 31.9696C138.417 32.252 138.689 32.5247 138.855 32.8072C138.991 33.0604 139.079 33.3818 139.098 33.7519C139.118 33.9856 139.02 34.3557 138.787 34.8719C138.767 34.8914 138.748 34.9206 138.748 34.9401C138.816 34.9206 138.884 34.9011 138.952 34.9011C139.166 34.8816 139.332 34.9011 139.478 34.9693C139.663 35.0375 139.877 35.1933 140.111 35.427C140.345 35.6413 140.578 35.8945 140.812 36.1965C141.026 36.4789 141.046 36.8003 140.88 37.1704C140.715 37.4918 140.52 37.8424 140.286 38.2222C140.072 38.5729 139.682 38.9332 139.098 39.3033C138.66 39.6052 138.251 39.9071 137.881 40.2091C137.813 41.0272 137.774 41.894 137.774 42.8289C138.563 42.1082 139.322 41.3973 140.043 40.696C140.228 40.4623 140.364 40.3941 140.461 40.4915C140.53 40.6084 140.452 40.9882 140.218 41.6407C140.033 42.1764 139.838 42.5952 139.624 42.8971C139.371 43.3646 139.098 43.7444 138.826 44.0464C138.758 44.0658 138.709 44.1145 138.689 44.1827C138.826 44.0658 139.108 43.9977 139.527 43.9782C140.13 43.91 140.607 43.8223 140.958 43.7347C142.535 43.2185 144.346 42.79 146.371 42.4394C146.42 42.2738 146.449 42.1472 146.478 42.0595C146.547 41.6602 146.595 41.3486 146.615 41.1148C146.43 41.183 146.293 41.2317 146.196 41.2512C145.865 41.368 145.427 41.4167 144.872 41.3875C144.434 41.3193 144.132 41.1733 143.966 40.9687C143.684 40.6473 143.48 40.3746 143.334 40.1701C143.217 39.9851 143.11 39.8195 143.022 39.6831C142.905 39.5176 142.915 39.4007 143.061 39.3325C143.48 39.128 143.801 39.0209 144.035 39.0209C144.551 38.9722 145.427 38.8358 146.693 38.6021V38.3586C146.624 38.0372 146.537 37.7547 146.449 37.521C146.05 37.6184 145.563 37.6476 144.979 37.6281C144.658 37.6087 144.405 37.5113 144.249 37.3457C144.064 37.4626 143.898 37.5307 143.762 37.5502C143.596 37.5989 143.509 37.5697 143.48 37.482C143.411 37.3652 143.363 37.3067 143.343 37.3067C143.275 37.258 143.188 37.1509 143.1 36.9951C142.983 36.81 142.925 36.7029 142.925 36.6834C142.905 36.5958 142.876 36.5276 142.856 36.5081C142.788 36.4594 142.701 36.2159 142.613 35.7777C142.428 34.9596 142.185 34.1415 141.883 33.3039C141.678 32.7487 141.416 32.2228 141.114 31.7358C140.909 31.3852 140.87 31.2197 141.007 31.2489C141.094 31.2489 141.182 31.2002 141.25 31.1125C141.338 31.0151 141.61 30.9859 142.048 31.0054C142.818 31.0736 143.343 31.1223 143.616 31.1417C146.547 30.5087 149.039 30.1483 151.084 30.0607C152.203 29.973 153.05 29.7685 153.635 29.4666C153.917 29.2621 154.433 29.34 155.202 29.7101C156.02 30.1094 156.575 30.4405 156.877 30.723C157.11 30.908 157.217 31.1515 157.188 31.4534C157.14 31.8235 156.964 32.3299 156.662 32.9533C156.341 33.4207 156.02 33.859 155.718 34.2778C155.718 34.2973 155.728 34.346 155.757 34.4142C155.776 34.5505 155.65 34.8719 155.377 35.3589C155.309 35.5439 155.066 35.6511 154.647 35.6705C152.456 36.0698 150.723 36.4205 149.448 36.7224C149.652 36.8879 149.847 37.073 150.003 37.2775C150.12 37.3749 150.217 37.5015 150.285 37.6574C150.821 37.4528 151.308 37.258 151.755 37.1022C151.94 36.9659 152.106 36.9366 152.242 37.034C152.495 37.1996 152.846 37.3165 153.294 37.3847C153.576 37.4041 153.849 37.5405 154.131 37.7645C154.316 37.9008 154.423 38.0859 154.443 38.3196C154.462 38.4852 154.306 38.8942 153.956 39.537C153.839 39.7221 153.527 39.8487 153.011 39.9169C151.843 40.1019 150.83 40.2772 149.974 40.4428L149.691 41.9134C151.317 41.6602 152.602 41.4947 153.527 41.4265C154.598 41.3096 155.494 41.144 156.215 40.9395C156.701 40.7545 157.032 40.7447 157.188 40.9006C157.675 41.2999 158.142 41.5726 158.581 41.7381C159.067 41.9232 159.428 42.2251 159.661 42.6439C159.729 42.8289 159.72 43.1114 159.622 43.4815C159.554 43.8029 159.447 44.0853 159.311 44.3191C159.194 44.5041 159.067 44.6794 158.931 44.845C158.814 44.9424 158.639 44.9424 158.405 44.845C158.22 44.7768 158.006 44.6989 157.772 44.6015C157.169 44.397 156.331 44.2801 155.26 44.2509C154.706 44.2314 154.199 44.2314 153.761 44.2509C153.664 44.4164 153.576 44.5723 153.479 44.7378C153.245 45.1079 152.885 45.4878 152.398 45.8579C152.602 45.9942 152.934 46.0819 153.372 46.1014C153.605 46.1208 153.858 46.2377 154.141 46.452C154.306 46.5688 154.394 46.7344 154.423 46.9389C154.443 47.1045 154.306 47.4746 154.004 48.059C153.907 48.244 153.625 48.3706 153.128 48.4388C151.94 48.6725 150.947 48.8673 150.159 49.0329L150.198 49.0718C150.451 49.4225 150.568 49.7439 150.548 50.0458C150.499 50.114 150.47 50.2211 150.441 50.3574C151.395 50.1724 152.164 50.0653 152.749 50.0458C153.187 50.0458 153.527 49.9679 153.761 49.8023C153.897 49.5978 154.014 49.4906 154.112 49.4906C154.248 49.4906 154.472 49.5686 154.774 49.7341C155.095 49.8997 155.475 50.0263 155.893 50.114C156.176 50.2113 156.361 50.338 156.448 50.4938C156.536 50.6594 156.633 50.8541 156.731 51.0879C156.779 51.3216 156.789 51.5164 156.77 51.682C156.701 51.867 156.594 52.0423 156.458 52.2079C156.322 52.393 156.176 52.5683 156.039 52.7338C155.942 52.8312 155.835 52.8604 155.689 52.841C155.572 52.841 155.465 52.8312 155.377 52.802C153.985 52.7533 152.583 52.8702 151.191 53.1526C150.772 53.2013 150.412 53.2695 150.11 53.3572V54.0584C150.091 56.2692 150.061 57.7399 150.042 58.4606C150.022 58.8794 149.993 59.3468 149.974 59.8533C149.906 60.2916 149.798 60.7006 149.662 61.0707C149.497 61.4895 149.341 61.7817 149.175 61.9472C148.942 62.1518 148.718 62.2979 148.513 62.366C148.211 62.5024 147.978 62.6193 147.812 62.7167C147.695 62.7848 147.588 62.6387 147.501 62.2589C147.403 61.957 147.325 61.5869 147.257 61.1389C147.16 60.3695 147.101 59.415 147.082 58.2755C146.985 56.7659 146.946 55.7238 146.946 55.1687C146.926 54.7986 146.907 54.4577 146.907 54.1558C146.469 54.2532 146.06 54.37 145.69 54.5064C144.57 54.8765 143.801 55.1492 143.382 55.305C143.08 55.4706 142.886 55.5582 142.788 55.5875C142.652 55.5875 142.535 55.5485 142.438 55.4803C142.34 55.4122 142.185 55.2563 141.951 55.0226C141.698 54.7888 141.484 54.5551 141.318 54.3213C141.182 54.1558 141.065 53.9999 140.968 53.8344C140.87 53.7175 140.792 53.5519 140.724 53.3474C140.676 53.1624 140.666 53.026 140.685 52.9286C140.753 52.7923 140.822 52.7241 140.89 52.7241C140.977 52.7241 141.143 52.7338 141.377 52.7631C141.562 52.7436 141.776 52.7144 142.009 52.6949C143.45 52.0716 145.047 51.5456 146.79 51.1268V50.6691C146.77 50.3867 146.722 50.114 146.654 49.8315C146.069 49.9679 145.699 50.0847 145.534 50.1821C145.164 50.3185 144.658 50.3769 144.035 50.3574C143.635 50.2893 143.363 50.1724 143.197 50.0068C142.915 49.6854 142.73 49.4419 142.642 49.2764C142.525 49.0718 142.418 48.916 142.331 48.8186C142.233 48.6823 142.233 48.5751 142.331 48.507C142.701 48.2927 143.003 48.1953 143.236 48.1953C143.587 48.1271 144.054 48.0784 144.628 48.059C144.56 47.9421 144.512 47.835 144.492 47.7473C144.21 47.1629 143.996 46.5786 143.83 46.004C143.129 46.2572 142.574 46.5396 142.155 46.8415C141.639 47.0948 141.269 47.2116 141.036 47.1922C140.617 47.1435 140.267 47.0071 139.984 46.7734C139.585 46.452 139.283 46.0721 139.079 45.6533C138.826 45.1177 138.65 44.806 138.553 44.7086C138.485 44.6112 138.446 44.5333 138.446 44.4651C138.212 44.6989 137.979 44.9911 137.745 45.3417C137.745 47.2993 137.784 48.916 137.852 50.1919C137.969 51.9839 137.988 53.6785 137.92 55.2855C137.94 55.7335 137.881 56.1329 137.745 56.503C137.579 57.0581 137.317 57.4964 136.947 57.7983C136.625 58.1002 136.304 58.3729 136.002 58.5969C135.7 58.782 135.476 58.8794 135.34 58.8794C135.038 58.8794 134.668 58.519 134.22 57.7983C134.016 57.4477 133.792 57.0873 133.558 56.7172C133.344 56.464 133.198 56.2303 133.101 56.016C132.984 55.8504 132.964 55.7238 133.033 55.6362C133.081 55.568 133.383 55.6167 133.938 55.7725C134.172 55.8212 134.337 55.8504 134.425 55.8796C134.59 55.8309 134.659 55.6946 134.639 55.4608C134.688 54.8278 134.717 52.5975 134.746 48.7602C134.094 49.364 133.422 49.9289 132.721 50.4354L132.711 50.4548ZM144.687 35.7874C145.427 35.6997 146.585 35.4952 148.143 35.1933C148.163 35.057 148.26 34.8816 148.426 34.6674C148.523 34.5018 148.601 34.346 148.669 34.1804C148.786 33.9272 148.893 33.6253 148.981 33.2747C149.068 32.9727 149.136 32.7098 149.156 32.476C149.205 32.2423 149.224 32.0475 149.224 31.8819C148.708 31.9793 148.202 32.067 147.686 32.1644C147.588 32.1839 147.51 32.2131 147.442 32.2325C147.51 32.4858 147.559 32.7293 147.588 32.963V33.5181C147.608 33.6545 147.588 33.8395 147.52 34.0733C147.501 34.2388 147.452 34.3655 147.374 34.4531C147.306 34.57 147.218 34.6771 147.121 34.7648C146.955 34.8816 146.858 34.9401 146.839 34.9401C146.722 34.9596 146.644 34.9303 146.624 34.8329C146.527 34.6966 146.4 34.5408 146.235 34.3752C146.089 34.2778 146.011 34.1317 145.982 33.9175V32.5247C145.329 32.6611 144.813 32.8364 144.443 33.0507C144.463 33.4207 144.512 33.7519 144.58 34.0246C144.648 34.4921 144.687 35.0764 144.687 35.7679V35.7874ZM145.943 45.3222C145.943 45.3222 145.884 45.3319 145.904 45.3612C146.323 45.78 146.576 46.1695 146.673 46.5104C146.673 46.8805 146.595 47.2116 146.43 47.4843C146.362 47.5525 146.313 47.6207 146.293 47.6889C146.693 47.572 147.131 47.4649 147.618 47.3772C148.172 47.2409 148.708 47.0948 149.224 46.9584C149.759 46.3059 150.178 45.741 150.48 45.2443C150.684 44.8937 150.84 44.6015 150.938 44.3678C150.655 44.3872 150.412 44.4164 150.207 44.4359C148.786 44.6405 147.364 44.9326 145.953 45.3125L145.943 45.3222ZM150.86 31.6287C150.86 31.6287 150.908 31.6092 150.928 31.6287C151.113 31.7651 151.22 31.9404 151.239 32.1546C151.239 32.3884 151.191 32.6221 151.103 32.8559C151.035 32.924 150.947 33.0993 150.86 33.3818C150.743 33.635 150.616 33.8785 150.48 34.1122C150.363 34.2973 150.227 34.5116 150.061 34.7453C150.762 34.5408 151.434 34.3265 152.086 34.1122C152.388 33.6448 152.583 33.3331 152.68 33.1675C152.885 32.7487 153.041 32.3299 153.138 31.9111C153.157 31.7066 153.157 31.5898 153.138 31.5605C153.07 31.4242 152.817 31.3657 152.369 31.3852C151.853 31.4534 151.356 31.5411 150.869 31.6287H150.86Z" fill="url(#paint1_linear_395_10019)"/>
<path d="M167.587 42.8777C169.096 42.2252 169.972 41.7285 170.206 41.3779C170.391 41.2123 170.673 41.1831 171.043 41.2708C173.234 41.8064 174.402 42.157 174.567 42.3226C174.772 42.5077 174.869 42.7901 174.85 43.1602C174.85 43.5108 174.743 43.803 174.538 44.0367C174.334 44.2705 174.003 45.0301 173.565 46.306C173.214 47.2799 172.961 48.0201 172.795 48.5071C172.425 49.5589 172.017 50.3673 171.578 50.9517C170.838 51.9743 170.04 52.8119 169.203 53.4644C168.434 54.1169 167.343 54.7305 165.922 55.3149C165.571 55.4512 165.347 55.4804 165.26 55.383C165.162 55.2857 165.376 54.9156 165.892 54.263C166.71 53.2404 167.265 52.4028 167.567 51.7503C168.2 50.6303 168.735 49.6466 169.174 48.7798C169.66 47.8253 170.06 46.793 170.361 45.6729C170.478 45.2054 170.488 44.962 170.4 44.9425C170.332 44.9425 170.157 44.9912 169.875 45.0788C169.037 45.6145 168.122 46.0333 167.119 46.3352C166.769 46.4521 166.447 46.5203 166.146 46.5495C165.678 46.6177 165.308 46.5884 165.026 46.4423C164.724 46.2768 164.432 46.043 164.15 45.7411C163.828 45.3418 163.614 45.0009 163.517 44.6893C163.449 44.436 163.517 44.29 163.721 44.2705C163.935 44.251 164.15 44.2315 164.383 44.2315C164.753 44.1146 165.824 43.6569 167.596 42.868L167.587 42.8777ZM174.606 30.8984C174.655 30.4991 174.684 30.2945 174.714 30.2653C174.762 30.2653 174.899 30.2751 175.132 30.3043C175.415 30.353 175.619 30.3432 175.765 30.2653C176.047 30.129 176.339 30.0608 176.641 30.0608C176.807 30.0803 177.196 30.2361 177.829 30.5185C178.413 30.801 179.027 31.2295 179.679 31.8139C180 32.0963 180.234 32.3495 180.38 32.5833C180.546 32.7878 180.614 32.9826 180.584 33.1384C180.565 33.3235 180.507 33.6059 180.409 33.976C180.107 35.1642 179.942 37.4432 179.922 40.8228V41.2415C180.02 41.3389 180.078 41.4266 180.098 41.524C180.263 41.7577 180.39 42.0596 180.477 42.4297C181.5 41.4071 182.512 40.2676 183.515 39.0112C184.586 37.638 185.161 36.6933 185.229 36.1868C185.326 35.7875 185.521 35.6025 185.823 35.6317C186.105 35.6804 186.397 35.7875 186.699 35.9433C187.02 36.1284 187.439 36.4693 187.955 36.9562C188.51 37.4724 188.87 37.9107 189.036 38.2808C189.24 38.7678 189.162 39.1671 188.792 39.469C187.322 40.6377 186.095 41.4363 185.092 41.8746C183.768 42.4784 182.405 43.0238 181.013 43.5205C181.383 44.0562 181.928 44.7574 182.649 45.6145C183.817 47.0072 185.414 48.546 187.468 50.2212C188.86 51.3607 190.691 52.471 192.95 53.5423C193.466 53.7468 193.972 53.9708 194.488 54.2046C194.838 54.3702 195.199 54.5552 195.569 54.7597C195.919 54.9935 196.055 55.1883 195.987 55.3538C195.939 55.4902 195.588 55.6655 194.936 55.8798C194.468 56.0453 193.982 56.1719 193.466 56.2596C193.096 56.3083 192.794 56.3765 192.56 56.4641C191.976 56.7855 191.372 57.0972 190.749 57.3699C190.467 57.4867 190.155 57.5354 189.805 57.5062C189.522 57.4867 189.133 57.3212 188.617 57.0193C187.828 56.6005 186.864 55.8895 185.715 54.8863C183.924 53.2988 182.318 51.5263 180.896 49.5395C180.614 49.1207 180.361 48.7603 180.127 48.4584C180.176 49.0622 180.234 49.6953 180.302 50.3478C180.604 53.815 180.536 56.2791 180.098 57.7497C179.913 58.7723 179.504 59.6684 178.881 60.4378C178.511 60.8371 178.102 61.1682 177.664 61.4507C177.264 61.7039 176.953 61.9181 176.719 62.0837C176.534 62.3175 176.369 62.4441 176.232 62.4635C176.047 62.5122 175.853 62.4538 175.638 62.2882C175.453 62.1519 175.288 61.8889 175.152 61.5188C174.918 60.8663 174.548 60.2819 174.032 59.7755C173.448 59.2398 172.971 58.8892 172.601 58.7236C172.348 58.5581 172.202 58.4704 172.182 58.4412C172.182 58.373 172.328 58.3048 172.64 58.2269C173.36 58.2951 174.071 58.3438 174.772 58.3633C175.21 58.2951 175.444 58.2269 175.473 58.1588C175.541 58.0419 175.58 57.7984 175.58 57.4283C175.765 41.8064 175.668 33.6351 175.298 32.9144C174.83 31.9405 174.606 31.2587 174.636 30.8886L174.606 30.8984Z" fill="url(#paint2_linear_395_10019)"/>
<path d="M210.806 61.3825C210.368 61.5675 210.066 61.6454 209.9 61.6259C209.667 61.6259 209.501 61.5578 209.414 61.4117C209.297 61.2753 209.102 61.0124 208.82 60.6423C208.489 60.2429 208.245 59.8729 208.089 59.5222C207.973 59.269 207.846 58.9963 207.71 58.7139C207.642 58.5093 207.554 58.2464 207.466 57.9445C207.418 57.6912 207.447 57.4867 207.534 57.3504C207.7 57.1848 207.827 57.1069 207.914 57.1069C208.05 57.1751 208.265 57.2238 208.547 57.2432C208.829 57.3114 209.141 57.3406 209.491 57.3114C210.192 57.1264 210.923 56.99 211.692 56.8926C211.575 56.7271 211.439 56.6589 211.273 56.6881C211.039 56.7076 210.747 56.6784 210.397 56.581C210.144 56.4836 210.027 56.2596 210.046 55.8797C210.066 55.4415 210.163 55.0616 210.329 54.7597C210.494 54.3896 210.864 53.8734 211.448 53.2209C211.147 52.6852 210.816 51.9158 210.475 50.9127C209.92 49.3739 209.589 48.2831 209.501 47.6305C209.433 47.2604 209.365 46.9682 209.297 46.754C209.229 46.5495 209.19 46.3936 209.19 46.2962C208.703 46.5981 208.177 46.8903 207.622 47.1728C207.184 47.387 206.95 47.4455 206.921 47.3481C206.872 47.2799 206.999 47.0656 207.301 46.715C208.138 45.7119 208.907 44.5821 209.608 43.3257C209.91 42.7706 210.183 42.2349 210.416 41.7187C210.3 41.6506 210.192 41.5629 210.105 41.4753C209.735 41.1052 209.375 40.6961 209.024 40.2578C209.005 40.3065 208.975 40.365 208.956 40.4332C208.722 40.9493 208.352 41.485 207.836 42.0401C207.203 42.7122 206.746 43.1309 206.444 43.2965C206.142 43.4621 205.947 43.5887 205.85 43.6763C205.714 43.8127 205.5 43.9296 205.217 44.027C205.052 44.0951 204.896 44.1828 204.73 44.2704C204.662 45.4392 204.555 46.5884 204.419 47.7279C204.536 47.7279 204.604 47.7377 204.623 47.7669C205.276 47.8837 205.918 48.1467 206.541 48.5655C207.515 49.218 208.089 49.8316 208.255 50.416C208.323 50.8348 208.313 51.1951 208.216 51.497C208.119 51.8184 207.973 52.1593 207.758 52.5099C207.593 52.7437 207.398 52.8898 207.164 52.9677C206.931 53.0358 206.609 52.7924 206.191 52.2372C205.451 51.3315 204.779 50.3186 204.205 49.1985C203.951 50.5913 203.601 52.0035 203.153 53.4254C202.618 55.0811 201.81 56.3959 200.748 57.3698C199.745 58.2756 198.918 58.8502 198.266 59.084C197.896 59.2495 197.662 59.2982 197.565 59.2203C197.399 59.1327 197.496 58.8989 197.847 58.5191C198.285 57.886 198.762 57.0874 199.278 56.1135C199.901 54.9253 200.466 53.2696 200.953 51.1562C201.469 48.994 201.751 47.0267 201.829 45.2541C201.897 43.764 201.936 42.381 201.936 41.0954C201.936 39.4203 201.926 37.8328 201.897 36.3426C201.878 35.5732 201.829 34.8623 201.761 34.2097C201.712 33.6546 201.576 33.2163 201.342 32.9144C201.245 32.5443 201.186 32.3106 201.167 32.2132C201.147 32.0768 201.147 31.9599 201.167 31.8625C201.235 31.7749 201.352 31.7554 201.517 31.8236C201.751 31.8918 201.917 31.8431 202.004 31.6872C202.121 31.5022 202.433 31.4924 202.949 31.6483C203.786 31.9502 204.429 32.2911 204.867 32.6612C205.188 32.9631 205.276 33.4793 205.11 34.2C205.042 34.6383 204.993 35.1544 204.974 35.7388C204.925 36.5764 204.896 38.6022 204.867 41.8161C204.847 42.2544 204.818 42.7219 204.799 43.2089C205.237 42.605 205.577 42.0791 205.811 41.6408C206.21 40.8519 206.454 40.1994 206.541 39.6832C206.561 39.3813 206.463 39.1183 206.23 38.8846C205.908 38.534 205.85 38.3489 206.055 38.3295C206.22 38.31 206.308 38.2223 206.337 38.086C206.386 37.9691 206.561 37.9009 206.863 37.8814C207.301 37.8328 207.739 37.862 208.158 37.9496C208.528 38.047 208.8 38.1736 208.966 38.3295C209.131 38.5145 209.219 38.7288 209.248 38.9625C209.55 38.8943 209.891 38.8943 210.261 38.9625C210.796 39.0307 211.166 39.1865 211.38 39.4203C211.818 38.1444 212.12 37.0146 212.286 36.031C212.403 35.7778 212.393 35.6317 212.247 35.6122C211.526 35.7096 210.874 35.7972 210.29 35.8946C210.124 35.8946 209.93 35.8167 209.696 35.6511C209.394 35.4174 209.199 35.1544 209.102 34.8525C209.034 34.6675 209.005 34.5409 209.034 34.4727C209.053 34.3558 209.19 34.2876 209.414 34.2682C210.251 34.0344 211.127 33.7422 212.033 33.3916C212.383 33.2553 212.675 33.0702 212.909 32.8365C213.094 32.5833 213.259 32.4372 213.396 32.4177C213.513 32.369 213.717 32.3592 214.029 32.3787C214.515 32.4274 215.002 32.4566 215.499 32.4859C215.849 32.5053 216.093 32.6222 216.229 32.8365C216.297 33.002 216.326 33.1579 216.297 33.3234C216.229 33.4403 216.18 33.5474 216.161 33.6351C216.862 33.0507 217.426 32.5443 217.874 32.0963C218.575 31.4243 218.965 30.947 219.062 30.6646C219.276 30.2653 219.461 30.1387 219.617 30.2848C219.822 30.3822 220.153 30.4211 220.591 30.4211C221.146 30.4016 221.584 30.538 221.886 30.8399C222.285 31.1418 222.489 31.4438 222.519 31.7457C222.519 31.8625 222.509 31.9697 222.48 32.0573C222.411 32.1742 222.363 32.3106 222.343 32.4761C222.324 32.7099 222.119 32.9436 221.749 33.1774C220.863 33.6156 220.007 33.9565 219.169 34.1902C218.4 34.424 217.689 34.5896 217.037 34.6772C217.475 35.1447 218.059 35.768 218.78 36.5666C218.984 36.8199 219.198 37.0633 219.413 37.2971C220.231 36.8101 220.922 36.3426 221.506 35.9044C222.392 35.2713 222.918 34.8136 223.074 34.5116C223.327 34.1415 223.541 34.0247 223.697 34.161C223.93 34.2974 224.271 34.4045 224.709 34.4727C225.293 34.5214 225.722 34.7259 226.004 35.1057C226.355 35.4564 226.52 35.807 226.491 36.1576C226.471 36.2745 226.442 36.3816 226.423 36.4692C226.355 36.5861 226.286 36.7225 226.218 36.888C226.199 37.1218 225.965 37.3166 225.517 37.4821C224.446 37.8328 223.443 38.086 222.519 38.2515C221.779 38.3684 221.107 38.4366 220.532 38.4658C221.623 39.5858 222.811 40.6474 224.096 41.6408C225.702 42.9167 226.861 43.6763 227.591 43.9101C228.428 44.2315 229.091 44.5724 229.577 44.923C230.045 45.2444 230.395 45.5853 230.629 45.9359C230.726 46.1014 230.58 46.3157 230.21 46.5981C229.655 46.9975 229.013 47.2409 228.292 47.3286C227.552 47.4942 226.929 47.65 226.442 47.8156C225.955 48.0006 225.527 48.0493 225.147 47.9519C224.729 47.835 224.232 47.5526 223.648 47.1143C222.811 46.4813 221.837 45.5366 220.717 44.251C219.783 43.1991 219.062 42.2154 218.556 41.2805V41.3876C218.536 41.524 218.507 41.67 218.488 41.8064C218.439 42.0207 218.371 42.2252 218.283 42.4395C218.186 42.6245 218.098 42.7901 218.001 42.9264C217.884 43.0628 217.582 43.2478 217.095 43.4816C216.609 43.7348 216.151 43.9393 215.732 44.0757C215.314 44.212 215.031 44.2802 214.895 44.2802C214.564 44.3776 214.36 44.436 214.262 44.4555C213.96 44.5529 213.454 44.1049 212.763 43.1309C212.665 43.0141 212.588 42.9069 212.519 42.8193C212.218 43.3063 211.887 43.8127 211.546 44.3191C211.224 44.7574 210.64 45.2736 209.803 45.858C209.686 45.9067 209.618 45.9651 209.599 46.0333H209.637C210.105 46.1696 210.523 46.2281 210.893 46.2086C211.108 46.1599 211.293 46.2086 211.448 46.3449C213.337 45.7606 214.934 45.371 216.268 45.1567C216.92 45.0399 217.436 44.8645 217.806 44.6308C218.157 44.4263 218.76 44.5432 219.617 44.9814C220.571 45.4684 221.233 45.8872 221.603 46.2378C221.905 46.491 222.022 46.7735 221.954 47.0754C221.886 47.5623 221.662 48.1662 221.292 48.8869C220.824 49.5589 220.338 50.153 219.822 50.6692C219.802 50.7374 219.783 50.825 219.783 50.9127C219.763 50.9614 219.744 50.9906 219.744 51.0198C219.929 51.1172 220.104 51.2048 220.269 51.3022C220.62 51.5068 220.873 51.7308 221.039 51.9645C221.175 52.2177 221.233 52.4612 221.214 52.695C221.165 52.8605 221.097 53.0066 221.009 53.1527C220.873 53.2501 220.785 53.3767 220.766 53.5326C220.552 54.0487 220.192 54.6234 219.685 55.2759C219.383 55.646 219.052 56.0258 218.712 56.3959C219.033 56.3959 219.345 56.4057 219.617 56.4349C220.036 56.4836 220.357 56.4543 220.591 56.3667C220.824 56.0843 221.009 55.9576 221.146 55.9869C221.311 55.9869 221.613 56.1622 222.051 56.5128C222.45 56.8342 222.937 57.1166 223.521 57.3504C223.891 57.4867 224.125 57.7107 224.222 58.0126C224.291 58.2172 224.368 58.5093 224.466 58.8892C224.534 59.2106 224.505 59.493 224.359 59.7268C224.222 59.98 224.047 60.2137 223.833 60.428C223.599 60.613 223.346 60.8078 223.064 61.0221C222.898 61.139 222.742 61.1877 222.577 61.1584C222.441 61.1098 222.285 61.0513 222.119 60.9831C220.834 60.7299 219.559 60.613 218.283 60.6325C216.54 60.652 214.817 60.7689 213.113 60.9831C211.994 61.1487 211.254 61.2753 210.884 61.363L210.806 61.3825ZM197.613 40.7838C197.75 40.7351 198.042 40.8617 198.489 41.1636C199.122 41.5337 199.677 42.0694 200.164 42.7706C200.885 43.8419 201.235 44.699 201.216 45.3515C201.147 45.7508 201.031 46.0625 200.865 46.2962C200.68 46.5495 200.446 46.7929 200.164 47.0267C199.96 47.2117 199.736 47.2896 199.502 47.2702C199.249 47.2507 199.035 46.9488 198.869 46.3644C198.285 44.8256 197.857 43.1407 197.574 41.3C197.526 40.9786 197.535 40.8032 197.613 40.774V40.7838ZM213.289 52.8605C213.289 52.8605 213.24 52.9092 213.22 52.9287C213.172 53.0456 213.143 53.1722 213.113 53.3085C212.88 53.9611 212.685 54.9253 212.519 56.2109C212.451 56.4641 212.364 56.6686 212.276 56.805C213.016 56.6686 213.785 56.581 214.583 56.5615C214.905 56.1914 215.226 55.7921 215.528 55.3733C216.132 54.4383 216.579 53.5228 216.852 52.6171C216.92 52.247 216.949 52.0132 216.92 51.9158C215.713 52.1203 214.496 52.4417 213.289 52.8605ZM214.33 48.0104C213.561 48.2636 212.987 48.5071 212.617 48.7408C212.753 49.4615 212.87 50.1043 212.967 50.6594C213.269 50.5231 213.629 50.377 214.048 50.2407C214.768 49.9874 215.518 49.7732 216.278 49.6076C216.463 49.3252 216.599 49.1401 216.696 49.0525C216.949 48.5655 217.164 48.098 217.329 47.6597C217.378 47.4455 217.388 47.3383 217.368 47.3091C217.349 47.1922 217.193 47.1728 216.91 47.2409C216.054 47.4747 215.187 47.7279 214.33 48.0104ZM214.262 38.758C214.029 39.4787 213.736 40.2384 213.386 41.0273C213.805 40.813 214.33 40.6085 214.953 40.3942C215.138 40.2773 215.314 40.2091 215.479 40.1897C215.684 40.141 215.908 40.1312 216.141 40.1507C216.54 40.2189 216.92 40.2189 217.29 40.1507C217.504 40.102 217.689 40.1118 217.845 40.1897C217.446 39.5371 216.969 38.7775 216.414 37.9204C215.927 37.1802 215.499 36.5472 215.119 36.031V36.0992C214.837 36.9367 214.545 37.823 214.243 38.7483L214.262 38.758Z" fill="url(#paint3_linear_395_10019)"/>
<path d="M71.4702 41.9038L71.8889 43.3647C72.2881 44.7477 73.3688 45.8385 74.7514 46.2281L76.2118 46.6469L74.7514 47.0657C73.3688 47.465 72.2784 48.546 71.8889 49.929L71.4702 51.3899L71.0516 49.929C70.6524 48.546 69.5717 47.4552 68.1891 47.0657L66.7287 46.6469L68.1891 46.2281C69.5717 45.8288 70.6621 44.7477 71.0516 43.3647L71.4702 41.9038Z" fill="#823B21"/>
<path d="M255.875 41.9038L256.294 43.3647C256.693 44.7477 257.774 45.8385 259.156 46.2281L260.617 46.6469L259.156 47.0657C257.774 47.465 256.683 48.546 256.294 49.929L255.875 51.3899L255.456 49.929C255.057 48.546 253.976 47.4552 252.594 47.0657L251.133 46.6469L252.594 46.2281C253.976 45.8288 255.067 44.7477 255.456 43.3647L255.875 41.9038Z" fill="#823B21"/>
</g>
<defs>
<linearGradient id="paint0_linear_395_10019" x1="111.34" y1="31.5899" x2="110.327" y2="58.0126" gradientUnits="userSpaceOnUse">
<stop stop-color="white"/>
<stop offset="0.19" stop-color="#FBFDFE"/>
<stop offset="0.33" stop-color="#F2F9FC" stop-opacity="0.99"/>
<stop offset="0.47" stop-color="#E2F3F9" stop-opacity="0.99"/>
<stop offset="0.59" stop-color="#CBE9F5" stop-opacity="0.98"/>
<stop offset="0.71" stop-color="#ADDDF0" stop-opacity="0.96"/>
<stop offset="0.83" stop-color="#89CFEA" stop-opacity="0.95"/>
<stop offset="0.93" stop-color="#5FBDE3" stop-opacity="0.93"/>
<stop offset="1" stop-color="#43B2DE" stop-opacity="0.92"/>
</linearGradient>
<linearGradient id="paint1_linear_395_10019" x1="145.076" y1="32.8948" x2="144.063" y2="59.3176" gradientUnits="userSpaceOnUse">
<stop stop-color="white"/>
<stop offset="0.19" stop-color="#FBFDFE"/>
<stop offset="0.33" stop-color="#F2F9FC" stop-opacity="0.99"/>
<stop offset="0.47" stop-color="#E2F3F9" stop-opacity="0.99"/>
<stop offset="0.59" stop-color="#CBE9F5" stop-opacity="0.98"/>
<stop offset="0.71" stop-color="#ADDDF0" stop-opacity="0.96"/>
<stop offset="0.83" stop-color="#89CFEA" stop-opacity="0.95"/>
<stop offset="0.93" stop-color="#5FBDE3" stop-opacity="0.93"/>
<stop offset="1" stop-color="#43B2DE" stop-opacity="0.92"/>
</linearGradient>
<linearGradient id="paint2_linear_395_10019" x1="180.331" y1="34.2487" x2="179.318" y2="60.6715" gradientUnits="userSpaceOnUse">
<stop stop-color="white"/>
<stop offset="0.19" stop-color="#FBFDFE"/>
<stop offset="0.33" stop-color="#F2F9FC" stop-opacity="0.99"/>
<stop offset="0.47" stop-color="#E2F3F9" stop-opacity="0.99"/>
<stop offset="0.59" stop-color="#CBE9F5" stop-opacity="0.98"/>
<stop offset="0.71" stop-color="#ADDDF0" stop-opacity="0.96"/>
<stop offset="0.83" stop-color="#89CFEA" stop-opacity="0.95"/>
<stop offset="0.93" stop-color="#5FBDE3" stop-opacity="0.93"/>
<stop offset="1" stop-color="#43B2DE" stop-opacity="0.92"/>
</linearGradient>
<linearGradient id="paint3_linear_395_10019" x1="214.379" y1="35.5537" x2="213.356" y2="61.9765" gradientUnits="userSpaceOnUse">
<stop stop-color="white"/>
<stop offset="0.19" stop-color="#FBFDFE"/>
<stop offset="0.33" stop-color="#F2F9FC" stop-opacity="0.99"/>
<stop offset="0.47" stop-color="#E2F3F9" stop-opacity="0.99"/>
<stop offset="0.59" stop-color="#CBE9F5" stop-opacity="0.98"/>
<stop offset="0.71" stop-color="#ADDDF0" stop-opacity="0.96"/>
<stop offset="0.83" stop-color="#89CFEA" stop-opacity="0.95"/>
<stop offset="0.93" stop-color="#5FBDE3" stop-opacity="0.93"/>
<stop offset="1" stop-color="#43B2DE" stop-opacity="0.92"/>
</linearGradient>
<clipPath id="clip0_395_10019">
<rect width="237" height="68" fill="white" transform="translate(45.1726 12.9099)"/>
</clipPath>
</defs>
</svg>
