<svg width="327" height="94" viewBox="0 0 327 94" fill="none" xmlns="http://www.w3.org/2000/svg">
<g clip-path="url(#clip0_403_274)">
<path d="M287.588 80.0646H39.4111C39.4111 73.1692 33.8247 67.5788 26.9341 67.5788V26.4204C33.8247 26.4204 39.4111 20.83 39.4111 13.9346H287.588C287.588 20.83 293.175 26.4204 300.065 26.4204V67.5788C293.175 67.5788 287.588 73.1692 287.588 80.0646Z" fill="#FEF0DB" stroke="#823B21" stroke-width="1.86863" stroke-miterlimit="10"/>
<path d="M41.9124 77.055C40.7737 70.8511 35.8783 65.9522 29.6787 64.8224V28.6603C35.8783 27.5208 40.7737 22.6219 41.9124 16.418H285.097C286.236 22.6219 291.131 27.5208 297.331 28.6603V64.8224C291.131 65.9619 286.236 70.8608 285.097 77.055H41.9124Z" fill="#FEF0DB" stroke="#823B21" stroke-width="0.934315" stroke-miterlimit="10"/>
<path d="M51.7036 41.9941L52.1221 43.455C52.5211 44.838 53.6014 45.9288 54.9834 46.3184L56.4433 46.7372L54.9834 47.156C53.6014 47.5553 52.5114 48.6364 52.1221 50.0193L51.7036 51.4802L51.2851 50.0193C50.886 48.6364 49.8057 47.5456 48.4237 47.156L46.9639 46.7372L48.4237 46.3184C49.8057 45.9191 50.8958 44.838 51.2851 43.455L51.7036 41.9941Z" fill="#823B21"/>
<path d="M275.297 41.9941L275.715 43.455C276.114 44.838 277.195 45.9288 278.577 46.3184L280.037 46.7372L278.577 47.156C277.195 47.5553 276.105 48.6364 275.715 50.0193L275.297 51.4802L274.878 50.0193C274.479 48.6364 273.399 47.5456 272.017 47.156L270.557 46.7372L272.017 46.3184C273.399 45.9191 274.489 44.838 274.878 43.455L275.297 41.9941Z" fill="#823B21"/>
<path d="M71.4408 59.2622C71.3727 59.4277 71.2365 59.5738 71.0224 59.7199C70.818 59.905 70.5649 60.1484 70.2632 60.4504C70.0296 60.7328 69.6501 60.5088 69.0953 59.7881C69.0272 59.6907 68.9785 59.2622 68.9591 58.4927C68.8423 57.1877 68.7936 55.5807 68.8228 53.6718C67.9858 54.1393 67.1683 54.6457 66.38 55.2106C66.0977 55.3469 65.8447 55.4151 65.6111 55.4151C65.3775 55.4151 65.0856 55.2593 64.7352 54.9574C64.2194 54.5581 63.8885 54.2464 63.723 54.0127C63.5186 53.7789 63.3629 53.5452 63.2656 53.3114C63.1975 53.1069 63.1683 52.9608 63.1975 52.8926C63.2461 52.7952 63.3532 52.7368 63.5089 52.7173C63.8106 52.6978 64.1026 52.6102 64.3848 52.4738C65.0369 52.2206 65.8836 51.8018 66.9347 51.2175C67.6355 50.7792 68.2681 50.4383 68.852 50.2046C68.8715 49.6494 68.9007 49.0846 68.9201 48.5294C68.6866 48.6268 68.5211 48.7145 68.4335 48.8119C68.1805 48.9969 67.8009 49.104 67.3143 49.1235C66.9931 49.143 66.7401 49.0846 66.5844 48.9482C66.3313 48.7632 66.1269 48.5878 65.9907 48.4223C65.8934 48.3054 65.8058 48.1983 65.7084 48.1106C65.5916 48.0132 65.5722 47.9353 65.6403 47.8671C65.8058 47.6821 65.9907 47.575 66.1951 47.5555C66.1464 47.4873 66.1172 47.4386 66.088 47.4191C66.0199 47.3997 65.9031 47.0685 65.7376 46.4452C65.4165 45.3544 65.0077 44.2733 64.5211 43.202C64.1707 42.4326 63.7717 41.7216 63.3337 41.0691C63.1488 40.7672 63.1001 40.6113 63.1975 40.6113C63.3337 40.5919 63.4213 40.5334 63.4408 40.436C63.5089 40.3679 63.7619 40.3192 64.2096 40.2997C64.5795 40.2802 64.9104 40.2802 65.1829 40.2997C65.6987 40.1146 66.2729 39.8809 66.925 39.5984C67.5284 39.2478 68.2583 38.9557 69.1245 38.7219V37.2902C68.7547 37.3876 68.4919 37.4461 68.3557 37.4655C68.0053 37.5337 67.7814 37.5824 67.6939 37.6019C67.3727 37.6993 66.8763 37.2513 66.2243 36.2773C65.6695 35.4398 65.397 34.9723 65.4165 34.8846C65.4359 34.7483 65.4943 34.6703 65.5916 34.6703C65.7084 34.6509 65.9517 34.5632 66.3216 34.4269C67.0418 34.0568 67.9274 33.6867 68.9688 33.3068C68.852 31.8362 68.745 30.9597 68.6574 30.6577C68.5406 30.424 68.4725 30.2 68.4433 29.9955C68.3946 29.8104 68.3751 29.6351 68.3751 29.4695C68.3751 29.3332 68.4141 29.1481 68.4822 28.9144C68.5308 28.7781 68.6671 28.7391 68.9007 28.8073C69.0856 28.9047 69.2802 28.9923 69.4846 29.0897C69.5722 29.1871 69.6987 29.2748 69.8642 29.3722C70.1854 29.6254 70.5455 29.8396 70.964 30.0052C71.3143 30.1708 71.5674 30.385 71.7328 30.6675C71.8496 30.9694 71.8593 31.2713 71.7718 31.5732C71.6063 31.8557 71.5187 32.1479 71.4895 32.4498C71.6258 32.4011 71.8107 32.3913 72.0443 32.4108C72.4141 32.4595 72.7839 32.4693 73.1635 32.4498C73.6306 32.4011 73.9421 32.518 74.1075 32.8004C74.2438 33.0341 74.3314 33.2192 74.3509 33.3555V33.7354C74.3314 33.8522 74.3022 33.9886 74.2827 34.1542C74.2146 34.3392 74.127 34.534 74.0394 34.7483C73.9421 34.9333 73.8545 35.0989 73.7572 35.2352C73.5917 35.3716 73.29 35.5469 72.8521 35.7612C72.2486 36.0631 71.7036 36.3358 71.2073 36.5598V38.0304C71.4895 37.933 71.8009 37.8551 72.1513 37.7869C72.4725 37.6895 72.7547 37.6019 72.9883 37.5045C73.2219 37.4168 73.4847 37.4461 73.7961 37.6116C75.1684 38.2836 75.9664 38.7414 76.2 38.9751C76.3849 39.1407 76.492 39.355 76.5115 39.6374C76.5309 39.8419 76.3752 40.3484 76.0248 41.1373C75.9275 41.3028 75.8107 41.6048 75.6745 42.043C75.7621 42.0235 75.8594 41.9359 75.9567 41.7995C76.6088 40.7964 77.4263 39.2771 78.3995 37.2221C79.2852 35.3618 79.947 33.6088 80.385 31.9823C80.4336 31.7291 80.4434 31.5538 80.4239 31.4564C80.4044 31.2908 80.4044 31.2031 80.4239 31.1739C80.5601 31.1058 80.6283 30.9889 80.6283 30.8233C80.6283 30.6577 80.9495 30.6285 81.6015 30.7162C82.3899 30.8525 83.0809 31.1739 83.6648 31.6609C83.9665 31.9141 84.132 32.1966 84.1514 32.4985C84.1709 32.703 84.1125 32.9562 83.9762 33.2289C84.3947 33.5795 84.969 34.047 85.6892 34.6217C86.6916 35.5079 87.4702 36.1994 88.0249 36.7156C88.4629 37.1539 88.9398 37.5629 89.4556 37.933C89.9909 38.3518 90.5456 38.7122 91.1296 39.0141C91.48 39.2478 91.8303 39.4134 92.1807 39.5011C92.5019 39.6179 92.9982 39.8614 93.6503 40.2315C94.3024 40.6016 94.8182 40.8743 95.188 41.0301C95.4411 41.147 95.6552 41.2736 95.8206 41.41C95.8888 41.5268 95.918 41.634 95.8888 41.7216C95.8401 41.8872 95.6649 42.043 95.3632 42.2086C94.9447 42.4423 94.6527 42.5884 94.4873 42.6663C94.0007 42.8319 93.5724 42.9001 93.1929 42.8709C92.8425 42.8514 92.5213 42.8514 92.2196 42.8709C91.733 42.9683 91.2269 43.0559 90.7208 43.1533C90.3997 43.202 90.0785 43.1728 89.7768 43.0851C89.4459 42.9488 89.1344 42.7735 88.8327 42.5592C88.531 42.3449 88.2001 42.1307 87.8595 41.8969C87.441 41.5755 87.0614 41.2541 86.7111 40.9522C86.0395 40.3484 85.0565 39.1602 83.7816 37.3876C83.1587 36.5306 82.6916 35.8878 82.3899 35.469C82.1076 35.8878 81.8935 36.2481 81.728 36.55C81.1246 37.6019 80.4628 38.5856 79.7426 39.5205C79.6453 39.6374 79.5674 39.7445 79.4993 39.8322C80.1027 39.5108 80.9105 39.1894 81.9032 38.8875C82.0881 38.7901 82.2536 38.7316 82.3899 38.7122C82.5553 38.6927 82.75 38.6927 82.9835 38.7122C83.3047 38.7803 83.6551 38.8096 84.0346 38.7803C84.4337 38.7609 84.6964 38.8583 84.8424 39.092C84.9592 39.3257 85.0273 39.4913 85.0468 39.579C85.0663 39.7153 85.0663 39.8322 85.0468 39.9296C85.0273 40.0465 84.9981 40.1731 84.9787 40.3094C84.93 40.5139 84.8619 40.7087 84.7743 40.8646C84.677 41.0009 84.5894 41.147 84.4921 41.2834C84.3753 41.4197 84.093 41.5755 83.6551 41.7411C83.0711 42.0235 82.565 42.2281 82.1173 42.3742C81.6307 42.5105 81.3193 42.5787 81.1733 42.5787C80.8716 42.6469 80.6769 42.6956 80.5796 42.715C80.2974 42.7345 79.8691 42.3157 79.2852 41.4587C79.0516 41.0886 78.8862 40.8159 78.7986 40.6503C78.3801 41.1178 78.0005 41.4976 77.6501 41.7995C77.2025 42.1988 76.8716 42.4618 76.638 42.5982C76.4531 42.7832 76.2389 42.8903 76.0054 42.9098C75.7718 42.9293 75.5771 42.9488 75.4117 42.9488H75.3728C75.2073 43.5039 75.1294 43.9227 75.1294 44.2052C75.0808 44.4097 75.0127 44.6726 74.9251 44.9746C74.9056 44.9746 74.8861 44.9843 74.8861 45.0135C74.8861 44.994 74.8959 44.994 74.9251 45.0135C74.9737 45.1499 74.9153 45.481 74.7499 45.9874C74.6818 46.1725 74.4579 46.3088 74.0881 46.4062C72.9494 46.8056 72.0151 47.1562 71.2949 47.4581V48.8508C71.2949 48.8508 71.2559 48.9677 71.2559 49.0553C71.5382 48.9385 71.7912 48.8313 72.0248 48.7437C72.5795 48.5392 72.9299 48.3638 73.0759 48.2178C73.2122 48.1301 73.3679 48.1106 73.5333 48.1788C73.6696 48.247 73.8934 48.2859 74.1951 48.2859C74.4774 48.2859 74.6623 48.3249 74.7499 48.3931C74.9153 48.4905 75.0419 48.5976 75.1294 48.7437C75.2268 48.9092 75.3046 49.0651 75.3728 49.2306C75.3922 49.3962 75.4117 49.591 75.4117 49.8247C75.3922 50.0098 75.363 50.1754 75.3436 50.3117C75.3241 50.4968 75.1878 50.6039 74.964 50.6234C74.7304 50.6915 74.4968 50.7792 74.2633 50.8669C73.2414 51.2175 72.2292 51.6655 71.2267 52.2304C71.2754 53.886 71.3825 55.8436 71.5382 58.0934C71.5576 58.6486 71.5284 59.0089 71.4311 59.1745L71.4408 59.2622ZM68.998 44.7019C68.8617 44.7213 68.7547 44.7506 68.6866 44.77C68.5211 44.8187 68.4335 44.8479 68.4043 44.8772C68.2389 44.9259 68.0053 44.7408 67.7036 44.322C67.4505 43.9519 67.324 43.7474 67.324 43.7279C67.3727 43.6792 67.4019 43.6597 67.4311 43.6597C67.4505 43.6403 67.5479 43.5916 67.7133 43.5234C68.0832 43.2897 68.5406 43.0559 69.0759 42.8222V41.1762C68.3265 41.5463 67.7328 41.9067 67.2948 42.2573C67.1099 42.3255 66.9737 42.3936 66.8763 42.4618C67.0126 43.0462 67.1586 43.5526 67.2948 44.0006C67.5479 44.77 67.762 45.7634 67.9274 46.9711C68.2291 46.8348 68.5892 46.6789 69.0077 46.5134V44.7019H68.998ZM71.3046 45.442C71.7718 45.1888 72.1902 44.9453 72.5601 44.7116C72.9591 42.5982 73.1927 41.1178 73.2608 40.2802C73.2803 40.027 73.2511 39.8225 73.1538 39.6861C73.0564 39.6179 72.9007 39.5887 72.6671 39.6179C72.0832 39.8517 71.6063 40.0465 71.2365 40.212C71.2559 40.699 71.2851 41.2249 71.3046 41.7801V41.819C71.4019 41.7995 71.4895 41.7995 71.5868 41.819C71.7718 41.819 71.9469 41.8093 72.1124 41.7801C72.2973 41.7801 72.4336 41.8288 72.5309 41.9164C72.5795 42.0333 72.6087 42.1015 72.6379 42.1307V42.4813C72.5893 42.5787 72.5601 42.6663 72.5309 42.7637C72.4822 42.8806 72.453 42.9488 72.4238 42.9683C72.3752 43.0657 72.2486 43.1533 72.0443 43.2507C71.7912 43.387 71.5479 43.5331 71.3143 43.6695V45.4518L71.3046 45.442ZM75.5285 45.5784C75.4312 45.3934 75.402 45.2862 75.4214 45.2667C75.5869 45.1012 75.6745 44.9746 75.7037 44.8869C75.7718 44.7993 75.908 44.7993 76.1222 44.8869C76.3265 44.9843 76.6964 45.0622 77.2025 45.1304C77.3874 45.1499 77.4944 45.1791 77.5139 45.1986C77.7183 45.033 77.9713 44.9064 78.2438 44.8187C78.9154 44.5168 79.3339 44.3512 79.4993 44.3318C79.6648 44.3123 79.8205 44.2246 79.9859 44.0883C80.1027 43.9714 80.2974 43.9909 80.5796 44.1565C80.9495 44.361 81.2901 44.585 81.5918 44.8187C81.874 45.0525 82.0492 45.2862 82.1173 45.52C82.1855 45.705 82.1757 45.9388 82.0784 46.2212C81.9422 46.7082 81.913 47.8964 82.0103 49.7858C82.2147 49.552 82.4385 49.328 82.6721 49.1235C82.7889 48.9385 82.8765 48.8898 82.9543 48.9872C83.003 49.0553 82.9543 49.2988 82.8181 49.7176C82.6818 50.0195 82.565 50.2922 82.4677 50.5162C82.3509 50.7305 82.2244 50.9156 82.0881 51.0714C82.2244 53.2627 82.3023 55.0158 82.3023 56.3404C82.2828 57.2753 82.1465 58.0155 81.9227 58.5707C81.7572 58.8726 81.6015 59.1063 81.4361 59.2719C81.037 59.5738 80.6575 59.9049 80.2876 60.2458C80.1027 60.3822 79.8691 60.2458 79.5869 59.827C79.2365 59.3595 78.7694 58.9115 78.1952 58.4635C78.0297 58.298 77.9616 58.2103 77.9908 58.1811C78.0589 58.0837 78.1465 58.0545 78.2341 58.074C78.6039 58.1421 78.964 58.1908 79.3144 58.2103C79.5674 58.259 79.694 58.1421 79.694 57.8597V54.0516C79.2949 54.4217 78.9154 54.7626 78.5455 55.0645C78.2925 55.2982 78.0784 55.4249 77.9227 55.4443H77.8156V57.8889C77.8643 58.1908 77.8351 58.4246 77.7475 58.5901C77.6501 58.7752 77.5626 58.9408 77.4652 59.0771C77.3971 59.2135 77.2901 59.3693 77.1538 59.5349C77.0175 59.6712 76.8618 59.7589 76.6964 59.7783C76.5796 59.7783 76.5115 59.7686 76.4823 59.7394C76.4141 59.6907 76.3265 59.603 76.2389 59.4569C76.1027 59.2037 75.9859 58.8531 75.8886 58.4051C75.8204 58.035 75.7815 57.5578 75.7815 56.9734V53.1653C75.8788 51.3538 75.8886 49.5326 75.8204 47.7211C75.7718 46.5816 75.6842 45.8608 75.5382 45.5589L75.5285 45.5784ZM79.7816 46.2796C79.7621 46.0264 79.6648 45.9095 79.4993 45.929C79.2463 46.0264 78.9446 46.153 78.5942 46.3088C78.2925 46.4257 78.0589 46.5523 77.8935 46.6887C77.8448 46.9419 77.8253 47.2633 77.8253 47.6334C77.8059 47.9158 77.7864 48.1885 77.7864 48.471C78.1076 48.4223 78.3898 48.4125 78.6234 48.432C79.0906 48.4807 79.4604 48.6073 79.7426 48.8119C79.7621 47.8379 79.7816 46.9809 79.7816 46.2602V46.2796ZM77.7961 52.3472V53.3212C78.2341 52.9511 78.5455 52.7173 78.7013 52.6199C78.9543 52.3862 79.2949 52.1232 79.7134 51.8213C79.7134 51.7239 79.7232 51.6655 79.7524 51.646V50.3507C79.6842 50.4188 79.5966 50.4675 79.509 50.487C79.3436 50.5357 79.11 50.4481 78.8083 50.2435C78.4385 49.9611 78.0978 49.7468 77.7961 49.5813V52.3375V52.3472ZM83.2755 46.4452C83.4118 46.3283 83.4993 46.2212 83.5188 46.1335C83.5675 46.0167 83.6843 46.0069 83.8886 46.0946C84.0444 46.2115 84.3363 46.2796 84.7646 46.3088C85.1247 46.377 85.3485 46.4939 85.4361 46.6595C85.5529 46.8932 85.5626 47.127 85.475 47.3607C85.4264 47.4776 85.4069 47.6431 85.4069 47.8477C85.3874 48.5684 85.3582 49.1527 85.3388 49.591V51.6557C85.4069 51.909 85.3972 52.1232 85.2999 52.2888C85.2317 52.4251 85.1441 52.5712 85.0468 52.7076C84.9981 52.805 84.9008 52.9316 84.7646 53.0874C84.6478 53.2043 84.5115 53.2725 84.3753 53.3017C84.2585 53.3017 84.1806 53.2919 84.1612 53.2627C84.093 53.214 84.0152 53.1459 83.947 53.0582C83.8303 52.805 83.7329 52.4836 83.6648 52.1135C83.6161 51.9479 83.5772 51.7531 83.5577 51.5194V49.9124C83.5772 49.1722 83.5577 48.4125 83.4896 47.6431C83.4702 47.1562 83.4215 46.864 83.3534 46.7666C83.2852 46.5815 83.256 46.4744 83.2852 46.4549L83.2755 46.4452ZM90.2829 45.0135C90.5359 45.3154 90.6819 45.5881 90.7014 45.8219C90.7014 46.1043 90.6916 46.3575 90.6624 46.5913C90.5943 46.8737 90.5456 47.1464 90.5262 47.4289C90.5067 53.0192 90.5262 56.0287 90.5943 56.4767C90.6138 56.876 90.5846 57.2948 90.4872 57.7331C90.3899 58.0837 90.205 58.4733 89.9325 58.9213C89.7281 59.2719 89.4361 59.6322 89.0566 60.0023C88.6381 60.353 88.2877 60.6062 88.0055 60.7717C87.6843 60.9081 87.4507 60.8984 87.3047 60.7328C86.9836 60.3627 86.6624 60.0705 86.3607 59.8563C86.1076 59.6517 85.8059 59.3888 85.4556 59.0868C85.0565 58.6875 84.6186 58.2493 84.132 57.7623C84.0152 57.5286 83.9568 57.4019 83.9568 57.3825C84.0054 57.2461 84.1125 57.1877 84.2682 57.2072C84.8716 57.2753 85.5724 57.3825 86.3607 57.5188C86.6137 57.5383 86.7597 57.2948 86.7792 56.7884C86.7597 55.3664 86.7597 53.701 86.7792 51.7921C86.8278 48.6463 86.8376 46.9029 86.8181 46.5523C86.6819 45.9485 86.5261 45.3641 86.3607 44.809C86.2244 44.2733 86.2342 43.9714 86.3996 43.9032C86.7208 43.7669 86.9349 43.5818 87.0322 43.3481C87.149 43.1825 87.3534 43.1533 87.6648 43.241C88.0639 43.3773 88.3656 43.5234 88.57 43.6597C89.3388 44.1467 89.913 44.6045 90.2829 45.0233V45.0135Z" stroke="#3E220E" stroke-width="3.89298"/>
<path d="M105.533 43.932C106.351 42.6756 107.042 41.4484 107.626 40.27C107.811 39.8999 107.947 39.598 108.044 39.3642C107.811 39.2279 107.587 39.0526 107.383 38.8383C106.896 38.3708 106.604 37.991 106.507 37.6891C106.37 37.2216 106.263 36.8417 106.195 36.5398C106.147 36.3353 106.127 36.0821 106.127 35.8094C106.127 35.4393 106.205 35.1374 106.37 34.9036C106.507 34.6699 106.731 34.6212 107.032 34.7673C107.431 34.9523 108.025 35.0887 108.813 35.1861C109.602 35.2835 110.225 35.4393 110.662 35.673C111.383 36.0236 113.358 38.0592 116.599 41.7893C119.295 44.8864 121.028 46.8246 121.796 47.6232C122.653 48.6458 123.655 49.4834 124.794 50.1359C125.563 50.6229 126.507 51.1975 127.616 51.85C128.288 52.2494 128.882 52.6974 129.397 53.2136C129.719 53.5155 129.884 53.7492 129.884 53.9148C129.884 54.0511 129.699 54.168 129.329 54.2654C128.891 54.4018 128.512 54.5478 128.21 54.6842C127.655 54.9374 127.12 55.0348 126.604 54.9666C125.952 54.9179 125.31 55.0153 124.687 55.2491C124.2 55.4341 123.694 55.5705 123.188 55.6679C122.721 55.736 122.195 55.6192 121.621 55.3173C121.174 55.0835 120.531 54.3725 119.665 53.1843C118.312 51.0904 117.086 49.3081 115.967 47.8374C114.312 45.6948 112.969 43.9515 111.918 42.5977C111.821 42.4808 111.743 42.3737 111.675 42.286C111.509 42.4516 111.353 42.6074 111.188 42.773C110.701 43.1723 110.04 43.9222 109.203 45.0423C107.811 46.883 106.536 48.2855 105.397 49.2691C104.093 50.3405 102.799 51.1975 101.524 51.85C100.872 52.1714 100.434 52.3857 100.2 52.4734C99.9665 52.5708 99.7329 52.6584 99.4994 52.7558C99.2463 52.8727 98.9057 52.9603 98.4872 53.0382C98.1563 53.0577 97.8448 53.0772 97.5431 53.0772C97.2901 53.0577 97.076 53.0382 96.9105 53.0382C96.6283 52.9896 96.4823 52.8824 96.4531 52.7266C96.4336 52.5415 96.531 52.4052 96.7645 52.3078C96.9981 52.2396 97.2609 52.1228 97.5723 51.9572C99.149 50.8859 100.658 49.6392 102.069 48.2173C103.373 46.9122 104.521 45.4903 105.524 43.9612L105.533 43.932Z" stroke="#3E220E" stroke-width="3.89298"/>
<path d="M138.099 48.6851C137.447 49.3863 136.707 50.1265 135.87 50.9154C135.471 51.1978 134.955 51.4511 134.303 51.6848C133.583 51.8893 132.999 52.1133 132.561 52.3471C132.327 52.4445 132.133 52.4542 131.967 52.386C131.831 52.2886 131.948 52.0257 132.318 51.5874C132.668 51.0323 133.057 50.3895 133.505 49.6688C133.904 49.1331 134.215 48.6461 134.449 48.1981C134.887 47.4969 135.782 46.1236 137.135 44.0784C137.349 43.757 137.301 43.6012 136.999 43.6206C135.977 43.6206 135.276 43.5135 134.906 43.309C134.537 43.1726 134.235 42.822 134.001 42.2571C133.602 41.4001 133.398 40.9521 133.369 40.9326C133.252 40.767 133.203 40.6112 133.232 40.4456C133.3 40.2606 133.408 40.1534 133.544 40.134C133.894 40.0853 134.381 39.9976 135.013 39.8515C135.87 39.6665 136.765 39.2574 137.7 38.6341C138.439 38.1179 139.179 37.7576 139.899 37.553C140.6 37.2706 141.232 37.2024 141.816 37.3485C142.517 37.4849 142.906 37.6699 143.004 37.9037C143.189 38.2056 143.403 38.4588 143.636 38.6731C143.821 38.8094 143.919 38.9165 143.919 38.9847C143.919 39.0334 143.87 39.2282 143.782 39.5788C143.617 40.1145 143.422 40.5235 143.189 40.806C142.819 41.2442 142.556 41.6241 142.42 41.926C142.215 42.3935 141.962 42.9486 141.69 43.6012C141.524 43.8836 141.291 44.3024 140.989 44.8575C141.622 44.9062 142.245 45.0815 142.877 45.3835C143.88 45.8704 144.493 46.3963 144.726 46.9515C144.863 47.3216 144.902 47.6625 144.833 47.9644C144.785 48.2858 144.678 48.6364 144.522 49.0162C144.405 49.2694 144.23 49.4448 143.996 49.5421C143.763 49.6395 143.422 49.435 142.984 48.948C142.284 48.2468 141.622 47.4774 140.999 46.6398V51.8406C141.048 53.7982 141.018 55.863 140.931 58.0543C140.863 58.5413 140.775 58.8919 140.687 59.1062C140.59 59.3204 140.464 59.525 140.298 59.7392C140.035 60.0606 139.734 60.2359 139.383 60.2651C139.12 60.3138 138.916 60.197 138.751 59.9145C138.42 59.4276 138.138 59.0283 137.904 58.7263C137.7 58.4244 137.641 58.1225 137.729 57.8206C137.816 57.5868 137.865 57.3336 137.865 57.0512C138.069 53.4866 138.167 50.8959 138.147 49.2597V48.7046L138.099 48.6851ZM142.284 30.9108C142.683 31.1446 142.955 31.4075 143.121 31.7192C143.286 32.0406 143.257 32.4496 143.052 32.9366C142.751 33.6086 142.449 34.0274 142.147 34.193C141.631 34.4072 141.155 34.5533 140.717 34.6507C140.201 34.7676 139.704 34.826 139.218 34.826C138.819 34.826 138.4 34.641 137.962 34.2709C137.378 33.9495 136.833 33.3846 136.327 32.5957C135.889 31.8263 135.743 31.3588 135.909 31.203C136.074 31.0179 136.464 30.9595 137.096 31.0277C137.232 31.0472 137.515 30.9887 137.933 30.8524C138.332 30.716 138.78 30.5602 139.296 30.3946C139.529 30.2778 139.675 30.1706 139.753 30.083C139.919 29.8492 140.074 29.7421 140.24 29.7713C140.405 29.7908 140.532 29.8395 140.619 29.9077C140.785 29.9758 140.911 30.044 140.999 30.1219C141.417 30.4238 141.846 30.6965 142.293 30.9206L142.284 30.9108ZM146.293 40.3385C146.274 38.4296 146.089 36.5304 145.739 34.6507C145.69 34.4851 145.631 34.2904 145.563 34.0566C145.427 33.7547 145.388 33.5307 145.456 33.3943C145.554 33.1898 145.709 33.0827 145.943 33.0827C146.196 33.1022 146.41 33.1216 146.576 33.1216C147.043 33.1703 147.481 33.2385 147.899 33.3262C148.269 33.3943 148.678 33.5502 149.116 33.7839C149.437 33.9203 149.69 34.1345 149.846 34.417C150.965 33.7839 151.938 33.1801 152.775 32.5957C154.05 31.7581 154.809 31.1251 155.043 30.7063C155.344 30.2875 155.598 30.1609 155.812 30.3265C156.094 30.492 156.483 30.6089 156.999 30.6771C157.671 30.7258 158.186 30.9692 158.537 31.4075C158.955 31.875 159.15 32.2938 159.13 32.6639C159.13 32.7808 159.091 32.9074 159.023 33.0437C158.955 33.2093 158.887 33.3651 158.819 33.5307C158.77 33.7839 158.498 34.0274 157.982 34.2611C156.561 34.8163 155.218 35.2156 153.933 35.4493C152.512 35.7026 151.267 35.8487 150.196 35.8681C150.177 35.9363 150.157 36.024 150.157 36.1116C149.992 36.7836 149.904 38.2056 149.875 40.3677C149.826 41.1176 149.797 41.8481 149.768 42.5688C150.42 42.3156 151.208 42.0429 152.142 41.7702C152.425 41.6728 152.717 41.5949 153.018 41.5267V41.4877C152.833 41.0008 152.843 40.7086 153.057 40.6112C153.291 40.5138 153.486 40.358 153.651 40.1242C153.865 39.871 154.05 39.7444 154.206 39.7444C154.371 39.7639 154.663 39.8613 155.082 40.0268C155.617 40.2314 156.104 40.4943 156.551 40.7962C157.067 40.6794 157.398 40.5722 157.563 40.4846C157.817 40.3677 158.06 40.1924 158.293 39.9586C158.459 39.8223 158.615 39.7346 158.78 39.7152C159.101 39.6275 159.354 39.6275 159.51 39.7152C159.831 39.9002 160.113 40.0268 160.347 40.095C160.746 40.2119 161.077 40.319 161.359 40.4067C161.68 40.543 161.933 40.6988 162.089 40.8644C162.342 41.1663 162.459 41.4682 162.439 41.7702C162.42 42.0234 162.332 42.2961 162.196 42.5688C162.099 42.8025 162.06 43.0363 162.06 43.27C162.04 43.6401 161.953 43.8739 161.817 43.9713C161.632 44.1368 161.242 44.205 160.668 44.1758C159.997 44.1758 159.199 44.244 158.293 44.3803C157.972 44.3998 157.69 44.4485 157.456 44.5167C157.408 45.588 157.398 47.2729 157.417 49.5811C157.466 53.1652 157.408 55.9409 157.242 57.8888C157.194 58.4244 157.135 58.8335 157.067 59.1062C156.999 59.4081 156.931 59.6808 156.863 59.9048C156.726 60.3918 156.571 60.606 156.405 60.5379C156.104 60.4697 155.831 60.4794 155.598 60.5768C155.247 60.7619 155.062 60.9566 155.043 61.1709C154.975 61.3365 154.887 61.4144 154.799 61.4144C154.663 61.4144 154.478 61.093 154.245 60.4405C154.011 59.7879 153.816 58.2686 153.651 55.863C153.466 52.5613 153.388 50.1557 153.408 48.6656C153.408 47.5943 153.398 46.5619 153.369 45.5588C152.065 45.9289 151.101 46.2697 150.469 46.5717C150.05 46.7372 149.7 46.8151 149.417 46.8151C149.184 48.5195 148.824 50.2531 148.337 52.0159C148.006 53.1067 147.559 54.1975 146.975 55.2591C146.624 55.6779 146.089 56.0383 145.369 56.3402C144.512 56.6616 144.026 56.7785 143.938 56.6908C143.802 56.4376 143.841 55.9117 144.074 55.1228C144.561 54.1196 144.921 53.0191 145.155 51.8017C145.593 49.9122 145.894 47.8475 146.06 45.588C146.196 43.5427 146.264 41.7799 146.264 40.319L146.293 40.3385Z" stroke="#3E220E" stroke-width="3.89298"/>
<path d="M170.965 51.3046C170.644 51.626 170.147 51.9376 169.495 52.2103C168.843 52.5123 168.298 52.8044 167.85 53.0869C167.617 53.2232 167.422 53.2622 167.257 53.194C167.12 53.1258 167.198 52.8434 167.5 52.3564C167.704 51.8695 167.967 51.3046 168.269 50.6813C168.522 50.1651 168.736 49.7268 168.901 49.3567C169.184 48.7237 169.748 47.5062 170.614 45.6947C170.819 45.3928 170.78 45.2565 170.478 45.2759C169.573 45.2078 168.94 45.0714 168.59 44.8571C168.24 44.7403 167.918 44.3994 167.617 43.8443C167.179 43.0262 166.945 42.6074 166.916 42.5879C166.799 42.4223 166.751 42.2665 166.78 42.1009C166.828 41.9159 166.916 41.8087 167.062 41.7893C167.432 41.6919 167.909 41.5653 168.493 41.4094C169.349 41.1562 170.215 40.6985 171.072 40.0459C171.792 39.4616 172.512 39.0525 173.232 38.8285C173.904 38.5461 174.537 38.4584 175.12 38.5461C175.821 38.6824 176.211 38.8675 176.308 39.1012C176.493 39.4323 176.707 39.6758 176.94 39.8317C177.125 39.968 177.223 40.0751 177.223 40.1433C177.223 40.192 177.174 40.3868 177.086 40.7374C176.95 41.2536 176.765 41.6529 176.532 41.9548C176.181 42.3541 175.938 42.7242 175.802 43.0748C175.685 43.3573 175.558 43.7176 175.422 44.1559C175.86 44.0683 176.376 44.0683 176.96 44.1559C177.816 44.3604 178.4 44.6526 178.702 45.0325C178.887 45.3539 178.984 45.6753 178.984 45.9772C179.004 46.2791 178.975 46.62 178.877 46.9901C178.809 47.2433 178.692 47.4478 178.527 47.5842C178.322 47.7205 177.953 47.6036 177.447 47.2335C176.629 46.6492 175.841 45.9674 175.072 45.1688C175.004 45.3052 174.936 45.461 174.858 45.6266C174.955 46.0259 174.984 46.62 174.965 47.4089C174.916 48.2659 174.926 49.7171 175.004 51.7429C175.023 53.7881 174.994 55.9502 174.897 58.2C174.848 58.6675 174.78 58.9987 174.692 59.2129C174.575 59.4272 174.439 59.6317 174.274 59.846C174.021 60.1284 173.738 60.3037 173.437 60.3719C173.184 60.3914 172.97 60.2648 172.804 59.9921C172.483 59.5246 172.201 59.1447 171.967 58.8428C171.763 58.5604 171.695 58.2682 171.792 57.9663C171.889 57.7131 171.928 57.4696 171.928 57.2358C172.113 54.0511 172.21 51.5968 172.21 49.9021C171.841 50.3501 171.432 50.8274 170.994 51.3338L170.965 51.3046ZM170.371 31.6409C170.352 31.4753 170.42 31.3877 170.575 31.3584C170.741 31.339 171.043 31.1539 171.481 30.8033C172.298 30.2482 173.155 30.0144 174.06 30.1021C174.994 30.1995 175.714 30.5695 176.22 31.2221C176.619 31.6896 176.863 32.2447 176.95 32.8973C177.018 33.7835 176.794 34.4068 176.288 34.7867C175.821 35.0886 175.237 35.1568 174.546 35.0009C173.797 34.7672 173.242 34.4653 172.872 34.0952C172.434 33.6277 171.88 33.1018 171.237 32.5272C170.653 32.0889 170.361 31.7967 170.361 31.6506L170.371 31.6409ZM192.327 45.685C192.493 45.4512 192.688 45.3831 192.921 45.4707C193.554 45.7726 194.186 46.0746 194.838 46.3765C195.695 46.7466 196.23 47.1264 196.444 47.4965C196.61 47.7984 196.61 48.412 196.444 49.347C196.045 50.8566 195.782 52.3662 195.646 53.8465C195.51 55.1224 195.247 56.2229 194.877 57.1287C194.556 57.8786 193.924 58.5701 192.989 59.2227C192.269 59.8265 191.646 60.1771 191.14 60.2745C190.858 60.3427 190.644 60.3135 190.478 60.1674C190.177 59.8849 189.982 59.5635 189.885 59.1934C189.768 58.7941 189.641 58.4825 189.505 58.2487C187.364 58.3169 185.106 58.6091 182.731 59.1253C182.313 59.1934 181.953 59.1447 181.651 58.9889C181.515 59.0863 181.427 59.174 181.408 59.2714C181.31 59.4564 181.155 59.398 180.921 59.0961C180.434 58.424 179.899 57.0216 179.315 54.9081C178.683 52.5999 178.322 50.954 178.235 49.9508C178.186 49.3957 178.118 48.9574 178.021 48.6555C177.972 48.451 177.962 48.2951 177.982 48.1977C178.05 47.9932 178.167 47.9348 178.332 48.0224C178.702 48.188 179.062 48.2562 179.412 48.227C179.617 48.2075 179.812 48.2659 179.967 48.4023C181.524 47.7984 183.422 47.2433 185.651 46.7271C188.094 46.172 190.147 45.8993 191.831 45.9285C192.065 45.9285 192.23 45.8506 192.318 45.685H192.327ZM188.065 35.9749C188.415 35.6924 189.077 35.7411 190.05 36.1112C191.072 36.53 191.802 36.8904 192.25 37.1923C192.571 37.3968 192.726 37.689 192.707 38.0688C192.688 38.5363 192.532 39.1889 192.25 40.0264C192.016 40.5426 191.763 41.0393 191.481 41.5263C191.529 41.5263 191.559 41.536 191.588 41.5653C191.841 41.6821 192.016 41.8087 192.113 41.9451C192.25 42.1788 192.279 42.3736 192.181 42.5392C191.997 42.7729 191.86 43.1138 191.763 43.5521C191.695 43.9514 191.607 44.1364 191.52 44.1072C191.354 44.0585 191.267 44.0877 191.237 44.1754C191.218 44.2436 191.062 44.2923 190.78 44.3117C188.756 44.4773 186.615 44.8864 184.357 45.5292C184.142 45.5779 183.958 45.5973 183.802 45.5973C183.704 45.6655 183.627 45.7532 183.559 45.8408C183.325 46.0746 183.198 46.2596 183.179 46.396C183.062 46.6492 182.829 46.5907 182.478 46.2207C182.06 45.7824 181.563 44.8279 180.979 43.3573C180.347 41.7503 179.967 40.5913 179.831 39.8706C179.734 39.4713 179.646 39.1694 179.549 38.9649C179.451 38.7116 179.422 38.4974 179.442 38.3318C179.49 38.0786 179.627 37.9812 179.86 38.0494C180.415 38.2344 180.921 38.2831 181.359 38.1857C181.612 38.137 181.855 38.1857 182.089 38.3221C183.831 37.5332 185.349 36.9586 186.624 36.6079C187.276 36.4034 187.753 36.1794 188.055 35.9457L188.065 35.9749ZM183.636 30.3845C184.639 30.0826 185.632 29.7514 186.634 29.4106C187.286 29.1281 187.695 28.9431 187.851 28.8554C188.104 28.6217 188.318 28.5146 188.483 28.5438C189.719 28.7093 190.556 28.9041 190.994 29.1379C191.393 29.3424 191.636 29.6735 191.724 30.1118C191.821 30.6475 191.782 31.0857 191.617 31.4364C191.335 31.9525 190.906 32.3421 190.323 32.6245C189.554 33.0628 188.532 33.7933 187.247 34.7867C186.712 35.0886 186.303 35.2542 186.031 35.2736C185.427 35.371 184.814 35.2639 184.181 34.962C183.481 34.6114 182.916 34.2218 182.468 33.7738C181.865 33.2186 181.554 32.7999 181.524 32.5174C181.505 32.1473 181.388 31.8454 181.174 31.6117C181.077 31.4461 181.018 31.2903 180.999 31.1247C180.999 30.9202 181.038 30.8033 181.106 30.7741C181.203 30.7254 181.291 30.7059 181.388 30.7059C181.505 30.7059 181.641 30.6962 181.807 30.6669C181.992 30.6669 182.186 30.6572 182.4 30.628C182.634 30.628 183.043 30.5501 183.617 30.3845H183.636ZM185.203 51.7234C185.184 51.1195 185.155 50.6326 185.135 50.2527C185.116 50.019 185.087 49.8242 185.067 49.6586C183.51 50.1261 182.274 50.6131 181.369 51.1293C181.417 51.3143 181.447 51.4896 181.476 51.6552C181.709 53.5446 181.943 55.0445 182.176 56.1548C182.196 56.2911 182.225 56.4372 182.245 56.5736C182.731 56.369 183.413 56.1742 184.269 56.0184C184.522 55.9308 184.804 55.8626 185.106 55.8431C185.106 55.7068 185.116 55.5607 185.145 55.4243V54.2069C184.941 54.3043 184.649 54.3335 184.269 54.314C183.85 54.2459 183.559 54.129 183.393 53.9634C183.111 53.6615 182.906 53.4083 182.76 53.194C182.644 52.9895 182.537 52.8337 182.449 52.7363C182.352 52.5512 182.352 52.4441 182.449 52.4246C182.848 52.1909 183.159 52.074 183.393 52.074C183.763 52.0058 184.366 51.8889 185.203 51.7234ZM185.174 39.783C184.425 40.1336 183.88 40.455 183.529 40.7569C183.666 41.575 183.812 42.2665 183.948 42.8508C184.318 42.6853 184.765 42.5294 185.271 42.3639C185.807 42.1496 186.361 42.0035 186.945 41.9061C187.13 41.536 187.267 41.2633 187.364 41.1075C187.646 40.455 187.851 39.8122 187.996 39.1889C188.016 38.9356 188.016 38.7701 187.996 38.7019C187.928 38.6337 187.773 38.6435 187.539 38.7408C186.751 39.0622 185.953 39.4129 185.164 39.7927L185.174 39.783ZM188.551 55.1419V55.3854C189.826 55.2977 190.712 55.3464 191.208 55.5607C191.559 54.1874 191.773 52.9992 191.87 51.9961C191.938 51.1585 191.967 50.243 191.938 49.2398C191.919 48.8016 191.802 48.5678 191.588 48.5386C190.634 48.4899 189.632 48.5776 188.59 48.7821C188.639 48.9185 188.649 49.1327 188.629 49.4152C188.58 49.5515 188.551 49.9119 188.522 50.4962C188.688 50.428 188.814 50.428 188.902 50.4962C189.135 50.6813 189.466 50.7884 189.914 50.8079C190.167 50.8566 190.439 50.9637 190.722 51.1195C190.907 51.2559 191.014 51.4409 191.033 51.6747C191.052 51.8597 190.916 52.2493 190.615 52.8239C190.517 53.009 190.216 53.1453 189.709 53.2427C189.271 53.3109 188.863 53.3985 188.493 53.4862C188.512 54.0706 188.542 54.616 188.561 55.1224L188.551 55.1419Z" stroke="#3E220E" stroke-width="3.89298"/>
<path d="M214.654 47.8767C214.05 48.8506 213.35 49.5616 212.561 50.0096C211.792 50.4089 211.189 50.6426 210.751 50.7108C210.148 50.8958 209.758 50.9153 209.603 50.779C209.35 50.5745 209.544 50.2141 210.196 49.6979C210.498 49.2791 210.829 48.7824 211.17 48.1981C211.608 47.4579 212.007 46.406 212.357 45.0522C212.727 43.6595 212.96 42.3837 213.058 41.2442C213.077 40.8059 213.106 40.3676 213.126 39.9488C211.15 40.4163 209.515 40.9423 208.24 41.5169C208.289 43.0752 208.318 44.9743 208.347 47.2046C208.396 49.2109 208.532 50.9153 208.766 52.3373C208.814 52.6392 208.756 52.9314 208.591 53.2138C208.386 53.5352 208.279 53.8176 208.279 54.0514C208.23 54.3338 207.851 54.7624 207.131 55.3467C206.498 55.8142 206.08 56.0382 205.875 56.009C205.671 55.9408 205.379 55.6097 204.999 55.0351C204.6 54.3144 204.406 53.6716 204.406 53.1164C204.406 50.3212 204.23 47.1072 203.88 43.4745C203.598 40.7085 203.325 39.0041 203.043 38.3711C202.878 38.0497 202.868 37.8159 203.004 37.6698C203.14 37.4653 203.325 37.3484 203.559 37.3192C203.812 37.2705 204.123 37.2997 204.503 37.3874C205.019 37.5237 205.476 37.6796 205.895 37.8451C206.099 37.962 206.391 38.0691 206.771 38.1568C208.698 37.553 210.868 37.0076 213.262 36.5109C213.282 36.1408 213.301 35.7999 213.301 35.498C213.301 35.011 213.291 34.5533 213.262 34.1345C213.243 33.7351 213.155 33.4624 213.019 33.2969C212.951 32.7125 212.902 32.3229 212.883 32.1087C212.863 31.9042 212.892 31.7288 212.99 31.5828C213.058 31.4464 213.243 31.4561 213.544 31.6217C213.865 31.7581 214.138 31.7191 214.352 31.4854C214.556 31.2321 215.063 31.2906 215.851 31.6607C217.087 32.2645 218.021 32.9268 218.673 33.6475C218.994 34.0858 219.082 34.7091 218.917 35.498C220.707 35.2642 222.313 35.1863 223.734 35.2545C223.968 35.274 224.153 35.1863 224.289 34.972C224.474 34.7188 224.707 34.6312 224.99 34.7286C225.71 35.0792 226.459 35.4006 227.218 35.7025C228.24 36.1018 228.892 36.5206 229.175 36.9589C229.408 37.3095 229.418 38.0205 229.214 39.0918C228.863 41.9064 228.727 44.6237 228.795 47.2241C228.844 49.5518 228.61 51.5581 228.094 53.2333C227.647 54.6065 226.683 55.9895 225.194 57.392C224.425 58.1419 223.763 58.5899 223.209 58.7555C222.858 58.8431 222.605 58.8139 222.44 58.6484C222.089 58.3659 221.836 58.0153 221.671 57.5965C220.853 56.2233 220.065 55.3467 219.296 54.9766C218.975 54.8111 218.81 54.6552 218.81 54.4897C218.81 54.3046 218.965 54.2267 219.267 54.2462C220.201 54.4799 221.223 54.5481 222.342 54.4507C222.625 54.4507 222.8 54.2267 222.868 53.7884C223.588 50.6037 224.036 47.8085 224.192 45.4126C224.328 43.5913 224.328 41.5948 224.192 39.4034C224.172 39.0041 223.968 38.7996 223.598 38.7704C221.827 38.6048 219.939 38.673 217.914 38.9749C217.749 39.5106 217.593 40.1436 217.428 40.8643C217.106 42.0331 216.756 43.1726 216.376 44.2828C216.425 44.2634 216.454 44.2439 216.484 44.2439C217.272 44.1075 218.119 44.1368 219.033 44.351C220.425 44.6529 221.35 45.1204 221.788 45.7437C222.041 46.182 222.187 46.63 222.206 47.0683C222.206 47.5358 222.158 48.0227 222.07 48.5389C221.973 48.8895 221.817 49.172 221.583 49.3765C221.282 49.5616 220.766 49.396 220.046 48.8895C218.625 47.9546 217.243 46.8248 215.89 45.5003C215.52 46.2697 215.111 47.0488 214.673 47.8377L214.654 47.8767Z" stroke="#3E220E" stroke-width="3.89298"/>
<path d="M244.99 42.6075C244.941 42.4225 244.951 42.3154 245.029 42.2959C245.214 42.2277 245.311 42.1108 245.311 41.9453C245.311 41.7602 245.603 41.7505 246.187 41.9063C246.44 41.8868 246.713 41.8381 246.995 41.77C247.199 41.7018 247.316 41.6726 247.345 41.7018C247.462 41.77 247.598 41.7992 247.764 41.77C248.046 41.77 248.425 41.8868 248.912 42.1206C249.496 42.403 250.596 43.2016 252.231 44.5262C253.603 45.6462 254.683 46.552 255.472 47.2532C256.075 47.7889 256.737 48.3148 257.457 48.8212C258.177 49.3082 258.936 49.7659 259.725 50.1847C260.241 50.438 260.717 50.6522 261.155 50.8178C261.574 50.9834 262.236 51.2853 263.141 51.7235C263.91 52.0936 264.513 52.3663 264.951 52.5319C265.253 52.6683 265.486 52.8144 265.652 52.9507C265.769 53.0481 265.817 53.165 265.788 53.3013C265.739 53.4669 265.545 53.6617 265.194 53.8954C264.776 54.1779 264.445 54.3629 264.221 54.4506C263.705 54.6843 263.228 54.7914 262.791 54.7622C262.343 54.7622 261.973 54.772 261.671 54.8012C261.117 54.918 260.542 55.0447 259.958 55.181C259.608 55.2979 259.258 55.2881 258.907 55.1421C258.508 55.0057 258.138 54.8304 257.788 54.6161C257.35 54.3629 256.873 54.0805 256.357 53.7785C256.338 53.7591 256.309 53.7396 256.289 53.7396C256.036 54.1584 255.803 54.4895 255.588 54.7135C255.306 54.8499 254.849 55.4245 254.197 56.4276C254.635 56.4471 254.966 56.5348 255.17 56.6711C255.472 56.8367 255.666 56.9925 255.764 57.1581C255.929 57.4113 255.939 57.6256 255.803 57.7912C255.569 58.0736 255.384 58.4339 255.248 58.8722C255.112 59.3105 254.995 59.5248 254.897 59.5053C254.781 59.4566 254.693 59.4858 254.615 59.5734C254.567 59.6708 254.391 59.7001 254.09 59.6806C251.812 59.6806 249.34 59.9728 246.693 60.5571C246.255 60.6545 245.876 60.6253 245.574 60.4889C245.525 60.5571 245.496 60.6058 245.467 60.6253C245.35 60.859 245.146 60.7909 244.834 60.411C244.367 59.7877 243.861 58.5508 243.296 56.7101C242.81 55.0544 242.479 53.7785 242.323 52.8728C241.155 54.0805 240.182 54.9765 239.394 55.5608C238.742 55.9991 238.265 56.3108 237.963 56.4666C237.71 56.6322 237.467 56.7101 237.233 56.7101C237 56.7296 236.776 56.7296 236.571 56.7101C236.386 56.6614 236.289 56.5737 236.289 56.4276C236.309 56.2231 236.367 56.0673 236.464 55.9699C236.562 55.9017 236.62 55.7946 236.639 55.6582C236.659 55.5706 236.756 55.5511 236.922 55.6193C237.058 55.6388 237.204 55.5706 237.34 55.4148C238.362 54.2071 239.686 52.3079 241.321 49.727C242.79 47.4188 243.968 45.2469 244.883 43.1919C244.97 42.9387 245.009 42.7341 244.99 42.5978V42.6075ZM238.498 31.7871C238.498 31.6021 238.547 31.4755 238.635 31.4073C238.722 31.3586 239.034 31.417 239.54 31.5826C240.172 31.7871 240.669 32.1767 241.038 32.7319C241.321 33.0533 241.467 33.55 241.496 34.2025C241.515 34.9524 241.515 35.6731 241.496 36.3646C241.428 36.9685 241.379 37.4262 241.36 37.7281C241.292 38.1274 241.136 38.6144 240.902 39.1988C240.737 39.5007 240.591 39.7734 240.445 39.9974C240.26 40.2311 240.026 40.4162 239.744 40.5525C239.374 40.7571 239.141 40.8642 239.043 40.8642C238.81 40.8837 238.664 40.7863 238.586 40.5525C238.469 40.2019 238.236 39.8221 237.885 39.4033C237.632 39.0332 237.486 38.5852 237.467 38.0787C237.467 37.3775 237.788 35.6537 238.44 32.9072C238.537 32.4689 238.547 32.0891 238.479 31.7871H238.498ZM244.143 37.6113C244.377 37.6307 244.805 38.0398 245.438 38.8287C245.759 39.2767 245.924 39.6078 245.924 39.8416C245.905 39.9584 245.807 40.0948 245.642 40.2604C245.506 40.3967 245.36 40.572 245.223 40.7863C244.941 41.2538 244.669 41.6726 244.386 42.0427C244.172 42.3933 243.968 42.6173 243.754 42.7049C243.306 42.9874 242.693 43.114 241.905 43.0848C241.506 43.0653 241.36 42.8705 241.447 42.5296C241.515 42.2472 241.535 41.994 241.515 41.7602C241.535 41.5752 241.632 41.4096 241.798 41.2733C242.236 40.7571 242.712 40.1045 243.228 39.3156C243.511 38.8482 243.657 38.5755 243.686 38.4781C243.783 37.8937 243.929 37.6015 244.143 37.6015V37.6113ZM251.511 32.4786C251.832 32.4299 252.153 32.4105 252.455 32.4105C254.644 32.2936 255.958 32.2838 256.396 32.3715C256.795 32.4689 257.175 32.4689 257.545 32.3715C258.031 32.2352 258.46 32.2059 258.839 32.3033C259.092 32.352 259.335 32.4202 259.569 32.5079C259.803 32.6052 260.026 32.8877 260.231 33.3844C260.396 33.735 260.659 34.1538 261.039 34.6408C261.292 34.9622 261.34 35.3128 261.175 35.6926C261.058 36.2088 260.795 36.5399 260.367 36.7055C259.764 36.9879 259.277 37.2801 258.898 37.582C258.499 37.9034 258.158 38.1177 257.846 38.2151C257.525 38.332 257.136 38.3222 256.698 38.1761C256.299 38.0398 255.793 37.9327 255.16 37.8645C254.693 37.8158 254.314 37.806 254.012 37.8255C253.574 37.8742 253.34 37.8645 253.311 37.7866C253.262 37.6892 253.486 37.5041 253.973 37.2314C254.975 36.5594 255.871 35.5465 256.659 34.1928C256.776 34.1051 256.834 34.0174 256.834 33.9493C256.815 33.9006 256.717 33.8714 256.552 33.8421C255.598 33.8616 254.343 33.959 252.786 34.1246C251.764 34.2415 250.868 34.3778 250.099 34.5434C249.963 34.7089 249.846 34.9037 249.749 35.1375C249.399 35.6926 249 36.1504 248.562 36.501C247.978 37.0172 247.54 37.2801 247.238 37.2996C246.868 37.3191 246.644 37.2509 246.576 37.0951C246.508 36.8808 246.362 36.7347 246.158 36.6373C245.905 36.501 245.671 36.2867 245.457 36.014C245.36 35.9945 245.282 35.9945 245.214 36.014C244.795 36.0822 244.464 36.1114 244.24 36.0822C243.958 36.014 243.705 35.829 243.472 35.527C243.053 34.9232 242.771 34.5044 242.635 34.2707C242.537 34.0564 242.508 33.9103 242.528 33.8129C242.596 33.7447 242.712 33.7058 242.878 33.7058C243.082 33.7058 243.442 33.6376 243.958 33.5013C244.698 33.3357 245.438 33.2188 246.158 33.1506C246.255 32.7513 246.284 32.4884 246.265 32.3423C246.099 31.8748 245.983 31.495 245.914 31.193C245.817 30.7548 245.846 30.1704 245.983 29.4497C246.119 28.8653 246.236 28.5634 246.333 28.5439C246.469 28.4952 246.625 28.5537 246.79 28.7193C247.16 28.9725 247.53 29.0601 247.91 28.9627C248.348 28.8459 248.815 28.9725 249.301 29.3426C249.905 29.8101 250.352 30.1899 250.625 30.4918C251.345 31.2807 251.657 31.8651 251.569 32.2352C251.55 32.3033 251.52 32.391 251.501 32.4786H251.511ZM245.399 49.1037C245.029 49.5906 244.659 50.0776 244.279 50.5743C244.299 50.5743 244.318 50.584 244.318 50.6133C244.318 50.5938 244.367 50.5646 244.455 50.5451C244.922 50.4087 245.34 50.2919 245.71 50.1945C247.851 49.6783 249.525 49.3764 250.732 49.2887C250.936 49.2692 251.15 49.2498 251.365 49.2498C251.014 48.831 250.654 48.4024 250.284 47.9544C249.447 46.9513 248.776 46.1721 248.26 45.617C246.936 47.0876 245.983 48.2466 245.399 49.1134V49.1037ZM251.228 52.0742C251.228 51.9086 251.219 51.8209 251.189 51.7917C251.141 51.743 251.053 51.7138 250.907 51.6846C250.771 51.7041 250.372 51.8209 249.72 52.0352C248.863 52.2884 247.997 52.5903 247.141 52.941C246.936 52.9897 246.683 53.0481 246.411 53.1163C246.245 53.165 246.119 53.1942 246.031 53.2234C246.051 53.3598 246.08 53.5156 246.099 53.6812C246.236 55.2394 246.411 56.4861 246.625 57.4211V57.46C247.024 57.2944 247.472 57.1678 247.987 57.0802C248.727 56.8951 249.467 56.7588 250.187 56.6614C250.206 56.5932 250.323 56.5543 250.537 56.5543C250.586 56.5543 250.644 56.3497 250.713 55.9212C250.897 54.7622 251.073 53.4766 251.238 52.0839L251.228 52.0742ZM250.323 36.7737C250.343 36.3354 250.43 36.1017 250.567 36.0724C250.8 36.053 250.985 36.0822 251.121 36.1796C251.306 36.2965 251.481 36.3646 251.647 36.3841C251.9 36.4815 252.172 36.5984 252.455 36.7347C252.737 36.8711 252.912 37.0172 252.98 37.1535C253.097 37.358 253.146 37.5528 253.116 37.7087V38.1274C253.136 38.3807 253.233 38.556 253.399 38.6534C253.885 38.8579 254.168 39.1501 254.236 39.5299C254.304 39.9682 254.158 40.348 253.778 40.6499C253.477 40.9324 252.932 41.02 252.133 40.9324C251.696 40.8447 251.287 40.8739 250.917 41.0395C250.479 41.2246 249.944 41.4583 249.311 41.7407C249.175 41.7894 249.068 41.7797 249 41.7018C248.98 41.6531 249.009 41.5849 249.107 41.4973C249.623 41.1953 249.992 40.9421 250.226 40.7278C250.362 40.611 250.391 40.4746 250.294 40.3091C250.129 40.0266 250.051 39.7344 250.051 39.4325C250.002 38.8774 250.06 38.3417 250.226 37.8255C250.294 37.5431 250.333 37.1925 250.333 36.7737H250.323Z" stroke="#3E220E" stroke-width="3.89298"/>
<path d="M71.4408 59.2622C71.3727 59.4277 71.2365 59.5738 71.0224 59.7199C70.818 59.905 70.5649 60.1484 70.2632 60.4504C70.0296 60.7328 69.6501 60.5088 69.0953 59.7881C69.0272 59.6907 68.9785 59.2622 68.9591 58.4927C68.8423 57.1877 68.7936 55.5807 68.8228 53.6718C67.9858 54.1393 67.1683 54.6457 66.38 55.2106C66.0977 55.3469 65.8447 55.4151 65.6111 55.4151C65.3775 55.4151 65.0856 55.2593 64.7352 54.9574C64.2194 54.5581 63.8885 54.2464 63.723 54.0127C63.5186 53.7789 63.3629 53.5452 63.2656 53.3114C63.1975 53.1069 63.1683 52.9608 63.1975 52.8926C63.2461 52.7952 63.3532 52.7368 63.5089 52.7173C63.8106 52.6978 64.1026 52.6102 64.3848 52.4738C65.0369 52.2206 65.8836 51.8018 66.9347 51.2175C67.6355 50.7792 68.2681 50.4383 68.852 50.2046C68.8715 49.6494 68.9007 49.0846 68.9201 48.5294C68.6866 48.6268 68.5211 48.7145 68.4335 48.8119C68.1805 48.9969 67.8009 49.104 67.3143 49.1235C66.9931 49.143 66.7401 49.0846 66.5844 48.9482C66.3313 48.7632 66.1269 48.5878 65.9907 48.4223C65.8934 48.3054 65.8058 48.1983 65.7084 48.1106C65.5916 48.0132 65.5722 47.9353 65.6403 47.8671C65.8058 47.6821 65.9907 47.575 66.1951 47.5555C66.1464 47.4873 66.1172 47.4386 66.088 47.4191C66.0199 47.3997 65.9031 47.0685 65.7376 46.4452C65.4165 45.3544 65.0077 44.2733 64.5211 43.202C64.1707 42.4326 63.7717 41.7216 63.3337 41.0691C63.1488 40.7672 63.1001 40.6113 63.1975 40.6113C63.3337 40.5919 63.4213 40.5334 63.4408 40.436C63.5089 40.3679 63.7619 40.3192 64.2096 40.2997C64.5795 40.2802 64.9104 40.2802 65.1829 40.2997C65.6987 40.1146 66.2729 39.8809 66.925 39.5984C67.5284 39.2478 68.2583 38.9557 69.1245 38.7219V37.2902C68.7547 37.3876 68.4919 37.4461 68.3557 37.4655C68.0053 37.5337 67.7814 37.5824 67.6939 37.6019C67.3727 37.6993 66.8763 37.2513 66.2243 36.2773C65.6695 35.4398 65.397 34.9723 65.4165 34.8846C65.4359 34.7483 65.4943 34.6703 65.5916 34.6703C65.7084 34.6509 65.9517 34.5632 66.3216 34.4269C67.0418 34.0568 67.9274 33.6867 68.9688 33.3068C68.852 31.8362 68.745 30.9597 68.6574 30.6577C68.5406 30.424 68.4725 30.2 68.4433 29.9955C68.3946 29.8104 68.3751 29.6351 68.3751 29.4695C68.3751 29.3332 68.4141 29.1481 68.4822 28.9144C68.5308 28.7781 68.6671 28.7391 68.9007 28.8073C69.0856 28.9047 69.2802 28.9923 69.4846 29.0897C69.5722 29.1871 69.6987 29.2748 69.8642 29.3722C70.1854 29.6254 70.5455 29.8396 70.964 30.0052C71.3143 30.1708 71.5674 30.385 71.7328 30.6675C71.8496 30.9694 71.8593 31.2713 71.7718 31.5732C71.6063 31.8557 71.5187 32.1479 71.4895 32.4498C71.6258 32.4011 71.8107 32.3913 72.0443 32.4108C72.4141 32.4595 72.7839 32.4693 73.1635 32.4498C73.6306 32.4011 73.9421 32.518 74.1075 32.8004C74.2438 33.0341 74.3314 33.2192 74.3509 33.3555V33.7354C74.3314 33.8522 74.3022 33.9886 74.2827 34.1542C74.2146 34.3392 74.127 34.534 74.0394 34.7483C73.9421 34.9333 73.8545 35.0989 73.7572 35.2352C73.5917 35.3716 73.29 35.5469 72.8521 35.7612C72.2486 36.0631 71.7036 36.3358 71.2073 36.5598V38.0304C71.4895 37.933 71.8009 37.8551 72.1513 37.7869C72.4725 37.6895 72.7547 37.6019 72.9883 37.5045C73.2219 37.4168 73.4847 37.4461 73.7961 37.6116C75.1684 38.2836 75.9664 38.7414 76.2 38.9751C76.3849 39.1407 76.492 39.355 76.5115 39.6374C76.5309 39.8419 76.3752 40.3484 76.0248 41.1373C75.9275 41.3028 75.8107 41.6048 75.6745 42.043C75.7621 42.0235 75.8594 41.9359 75.9567 41.7995C76.6088 40.7964 77.4263 39.2771 78.3995 37.2221C79.2852 35.3618 79.947 33.6088 80.385 31.9823C80.4336 31.7291 80.4434 31.5538 80.4239 31.4564C80.4044 31.2908 80.4044 31.2031 80.4239 31.1739C80.5601 31.1058 80.6283 30.9889 80.6283 30.8233C80.6283 30.6577 80.9495 30.6285 81.6015 30.7162C82.3899 30.8525 83.0809 31.1739 83.6648 31.6609C83.9665 31.9141 84.132 32.1966 84.1514 32.4985C84.1709 32.703 84.1125 32.9562 83.9762 33.2289C84.3947 33.5795 84.969 34.047 85.6892 34.6217C86.6916 35.5079 87.4702 36.1994 88.0249 36.7156C88.4629 37.1539 88.9398 37.5629 89.4556 37.933C89.9909 38.3518 90.5456 38.7122 91.1296 39.0141C91.48 39.2478 91.8303 39.4134 92.1807 39.5011C92.5019 39.6179 92.9982 39.8614 93.6503 40.2315C94.3024 40.6016 94.8182 40.8743 95.188 41.0301C95.4411 41.147 95.6552 41.2736 95.8206 41.41C95.8888 41.5268 95.918 41.634 95.8888 41.7216C95.8401 41.8872 95.6649 42.043 95.3632 42.2086C94.9447 42.4423 94.6527 42.5884 94.4873 42.6663C94.0007 42.8319 93.5724 42.9001 93.1929 42.8709C92.8425 42.8514 92.5213 42.8514 92.2196 42.8709C91.733 42.9683 91.2269 43.0559 90.7208 43.1533C90.3997 43.202 90.0785 43.1728 89.7768 43.0851C89.4459 42.9488 89.1344 42.7735 88.8327 42.5592C88.531 42.3449 88.2001 42.1307 87.8595 41.8969C87.441 41.5755 87.0614 41.2541 86.7111 40.9522C86.0395 40.3484 85.0565 39.1602 83.7816 37.3876C83.1587 36.5306 82.6916 35.8878 82.3899 35.469C82.1076 35.8878 81.8935 36.2481 81.728 36.55C81.1246 37.6019 80.4628 38.5856 79.7426 39.5205C79.6453 39.6374 79.5674 39.7445 79.4993 39.8322C80.1027 39.5108 80.9105 39.1894 81.9032 38.8875C82.0881 38.7901 82.2536 38.7316 82.3899 38.7122C82.5553 38.6927 82.75 38.6927 82.9835 38.7122C83.3047 38.7803 83.6551 38.8096 84.0346 38.7803C84.4337 38.7609 84.6964 38.8583 84.8424 39.092C84.9592 39.3257 85.0273 39.4913 85.0468 39.579C85.0663 39.7153 85.0663 39.8322 85.0468 39.9296C85.0273 40.0465 84.9981 40.1731 84.9787 40.3094C84.93 40.5139 84.8619 40.7087 84.7743 40.8646C84.677 41.0009 84.5894 41.147 84.4921 41.2834C84.3753 41.4197 84.093 41.5755 83.6551 41.7411C83.0711 42.0235 82.565 42.2281 82.1173 42.3742C81.6307 42.5105 81.3193 42.5787 81.1733 42.5787C80.8716 42.6469 80.6769 42.6956 80.5796 42.715C80.2974 42.7345 79.8691 42.3157 79.2852 41.4587C79.0516 41.0886 78.8862 40.8159 78.7986 40.6503C78.3801 41.1178 78.0005 41.4976 77.6501 41.7995C77.2025 42.1988 76.8716 42.4618 76.638 42.5982C76.4531 42.7832 76.2389 42.8903 76.0054 42.9098C75.7718 42.9293 75.5771 42.9488 75.4117 42.9488H75.3728C75.2073 43.5039 75.1294 43.9227 75.1294 44.2052C75.0808 44.4097 75.0127 44.6726 74.9251 44.9746C74.9056 44.9746 74.8861 44.9843 74.8861 45.0135C74.8861 44.994 74.8959 44.994 74.9251 45.0135C74.9737 45.1499 74.9153 45.481 74.7499 45.9874C74.6818 46.1725 74.4579 46.3088 74.0881 46.4062C72.9494 46.8056 72.0151 47.1562 71.2949 47.4581V48.8508C71.2949 48.8508 71.2559 48.9677 71.2559 49.0553C71.5382 48.9385 71.7912 48.8313 72.0248 48.7437C72.5795 48.5392 72.9299 48.3638 73.0759 48.2178C73.2122 48.1301 73.3679 48.1106 73.5333 48.1788C73.6696 48.247 73.8934 48.2859 74.1951 48.2859C74.4774 48.2859 74.6623 48.3249 74.7499 48.3931C74.9153 48.4905 75.0419 48.5976 75.1294 48.7437C75.2268 48.9092 75.3046 49.0651 75.3728 49.2306C75.3922 49.3962 75.4117 49.591 75.4117 49.8247C75.3922 50.0098 75.363 50.1754 75.3436 50.3117C75.3241 50.4968 75.1878 50.6039 74.964 50.6234C74.7304 50.6915 74.4968 50.7792 74.2633 50.8669C73.2414 51.2175 72.2292 51.6655 71.2267 52.2304C71.2754 53.886 71.3825 55.8436 71.5382 58.0934C71.5576 58.6486 71.5284 59.0089 71.4311 59.1745L71.4408 59.2622ZM68.998 44.7019C68.8617 44.7213 68.7547 44.7506 68.6866 44.77C68.5211 44.8187 68.4335 44.8479 68.4043 44.8772C68.2389 44.9259 68.0053 44.7408 67.7036 44.322C67.4505 43.9519 67.324 43.7474 67.324 43.7279C67.3727 43.6792 67.4019 43.6597 67.4311 43.6597C67.4505 43.6403 67.5479 43.5916 67.7133 43.5234C68.0832 43.2897 68.5406 43.0559 69.0759 42.8222V41.1762C68.3265 41.5463 67.7328 41.9067 67.2948 42.2573C67.1099 42.3255 66.9737 42.3936 66.8763 42.4618C67.0126 43.0462 67.1586 43.5526 67.2948 44.0006C67.5479 44.77 67.762 45.7634 67.9274 46.9711C68.2291 46.8348 68.5892 46.6789 69.0077 46.5134V44.7019H68.998ZM71.3046 45.442C71.7718 45.1888 72.1902 44.9453 72.5601 44.7116C72.9591 42.5982 73.1927 41.1178 73.2608 40.2802C73.2803 40.027 73.2511 39.8225 73.1538 39.6861C73.0564 39.6179 72.9007 39.5887 72.6671 39.6179C72.0832 39.8517 71.6063 40.0465 71.2365 40.212C71.2559 40.699 71.2851 41.2249 71.3046 41.7801V41.819C71.4019 41.7995 71.4895 41.7995 71.5868 41.819C71.7718 41.819 71.9469 41.8093 72.1124 41.7801C72.2973 41.7801 72.4336 41.8288 72.5309 41.9164C72.5795 42.0333 72.6087 42.1015 72.6379 42.1307V42.4813C72.5893 42.5787 72.5601 42.6663 72.5309 42.7637C72.4822 42.8806 72.453 42.9488 72.4238 42.9683C72.3752 43.0657 72.2486 43.1533 72.0443 43.2507C71.7912 43.387 71.5479 43.5331 71.3143 43.6695V45.4518L71.3046 45.442ZM75.5285 45.5784C75.4312 45.3934 75.402 45.2862 75.4214 45.2667C75.5869 45.1012 75.6745 44.9746 75.7037 44.8869C75.7718 44.7993 75.908 44.7993 76.1222 44.8869C76.3265 44.9843 76.6964 45.0622 77.2025 45.1304C77.3874 45.1499 77.4944 45.1791 77.5139 45.1986C77.7183 45.033 77.9713 44.9064 78.2438 44.8187C78.9154 44.5168 79.3339 44.3512 79.4993 44.3318C79.6648 44.3123 79.8205 44.2246 79.9859 44.0883C80.1027 43.9714 80.2974 43.9909 80.5796 44.1565C80.9495 44.361 81.2901 44.585 81.5918 44.8187C81.874 45.0525 82.0492 45.2862 82.1173 45.52C82.1855 45.705 82.1757 45.9388 82.0784 46.2212C81.9422 46.7082 81.913 47.8964 82.0103 49.7858C82.2147 49.552 82.4385 49.328 82.6721 49.1235C82.7889 48.9385 82.8765 48.8898 82.9543 48.9872C83.003 49.0553 82.9543 49.2988 82.8181 49.7176C82.6818 50.0195 82.565 50.2922 82.4677 50.5162C82.3509 50.7305 82.2244 50.9156 82.0881 51.0714C82.2244 53.2627 82.3023 55.0158 82.3023 56.3404C82.2828 57.2753 82.1465 58.0155 81.9227 58.5707C81.7572 58.8726 81.6015 59.1063 81.4361 59.2719C81.037 59.5738 80.6575 59.9049 80.2876 60.2458C80.1027 60.3822 79.8691 60.2458 79.5869 59.827C79.2365 59.3595 78.7694 58.9115 78.1952 58.4635C78.0297 58.298 77.9616 58.2103 77.9908 58.1811C78.0589 58.0837 78.1465 58.0545 78.2341 58.074C78.6039 58.1421 78.964 58.1908 79.3144 58.2103C79.5674 58.259 79.694 58.1421 79.694 57.8597V54.0516C79.2949 54.4217 78.9154 54.7626 78.5455 55.0645C78.2925 55.2982 78.0784 55.4249 77.9227 55.4443H77.8156V57.8889C77.8643 58.1908 77.8351 58.4246 77.7475 58.5901C77.6501 58.7752 77.5626 58.9408 77.4652 59.0771C77.3971 59.2135 77.2901 59.3693 77.1538 59.5349C77.0175 59.6712 76.8618 59.7589 76.6964 59.7783C76.5796 59.7783 76.5115 59.7686 76.4823 59.7394C76.4141 59.6907 76.3265 59.603 76.2389 59.4569C76.1027 59.2037 75.9859 58.8531 75.8886 58.4051C75.8204 58.035 75.7815 57.5578 75.7815 56.9734V53.1653C75.8788 51.3538 75.8886 49.5326 75.8204 47.7211C75.7718 46.5816 75.6842 45.8608 75.5382 45.5589L75.5285 45.5784ZM79.7816 46.2796C79.7621 46.0264 79.6648 45.9095 79.4993 45.929C79.2463 46.0264 78.9446 46.153 78.5942 46.3088C78.2925 46.4257 78.0589 46.5523 77.8935 46.6887C77.8448 46.9419 77.8253 47.2633 77.8253 47.6334C77.8059 47.9158 77.7864 48.1885 77.7864 48.471C78.1076 48.4223 78.3898 48.4125 78.6234 48.432C79.0906 48.4807 79.4604 48.6073 79.7426 48.8119C79.7621 47.8379 79.7816 46.9809 79.7816 46.2602V46.2796ZM77.7961 52.3472V53.3212C78.2341 52.9511 78.5455 52.7173 78.7013 52.6199C78.9543 52.3862 79.2949 52.1232 79.7134 51.8213C79.7134 51.7239 79.7232 51.6655 79.7524 51.646V50.3507C79.6842 50.4188 79.5966 50.4675 79.509 50.487C79.3436 50.5357 79.11 50.4481 78.8083 50.2435C78.4385 49.9611 78.0978 49.7468 77.7961 49.5813V52.3375V52.3472ZM83.2755 46.4452C83.4118 46.3283 83.4993 46.2212 83.5188 46.1335C83.5675 46.0167 83.6843 46.0069 83.8886 46.0946C84.0444 46.2115 84.3363 46.2796 84.7646 46.3088C85.1247 46.377 85.3485 46.4939 85.4361 46.6595C85.5529 46.8932 85.5626 47.127 85.475 47.3607C85.4264 47.4776 85.4069 47.6431 85.4069 47.8477C85.3874 48.5684 85.3582 49.1527 85.3388 49.591V51.6557C85.4069 51.909 85.3972 52.1232 85.2999 52.2888C85.2317 52.4251 85.1441 52.5712 85.0468 52.7076C84.9981 52.805 84.9008 52.9316 84.7646 53.0874C84.6478 53.2043 84.5115 53.2725 84.3753 53.3017C84.2585 53.3017 84.1806 53.2919 84.1612 53.2627C84.093 53.214 84.0152 53.1459 83.947 53.0582C83.8303 52.805 83.7329 52.4836 83.6648 52.1135C83.6161 51.9479 83.5772 51.7531 83.5577 51.5194V49.9124C83.5772 49.1722 83.5577 48.4125 83.4896 47.6431C83.4702 47.1562 83.4215 46.864 83.3534 46.7666C83.2852 46.5815 83.256 46.4744 83.2852 46.4549L83.2755 46.4452ZM90.2829 45.0135C90.5359 45.3154 90.6819 45.5881 90.7014 45.8219C90.7014 46.1043 90.6916 46.3575 90.6624 46.5913C90.5943 46.8737 90.5456 47.1464 90.5262 47.4289C90.5067 53.0192 90.5262 56.0287 90.5943 56.4767C90.6138 56.876 90.5846 57.2948 90.4872 57.7331C90.3899 58.0837 90.205 58.4733 89.9325 58.9213C89.7281 59.2719 89.4361 59.6322 89.0566 60.0023C88.6381 60.353 88.2877 60.6062 88.0055 60.7717C87.6843 60.9081 87.4507 60.8984 87.3047 60.7328C86.9836 60.3627 86.6624 60.0705 86.3607 59.8563C86.1076 59.6517 85.8059 59.3888 85.4556 59.0868C85.0565 58.6875 84.6186 58.2493 84.132 57.7623C84.0152 57.5286 83.9568 57.4019 83.9568 57.3825C84.0054 57.2461 84.1125 57.1877 84.2682 57.2072C84.8716 57.2753 85.5724 57.3825 86.3607 57.5188C86.6137 57.5383 86.7597 57.2948 86.7792 56.7884C86.7597 55.3664 86.7597 53.701 86.7792 51.7921C86.8278 48.6463 86.8376 46.9029 86.8181 46.5523C86.6819 45.9485 86.5261 45.3641 86.3607 44.809C86.2244 44.2733 86.2342 43.9714 86.3996 43.9032C86.7208 43.7669 86.9349 43.5818 87.0322 43.3481C87.149 43.1825 87.3534 43.1533 87.6648 43.241C88.0639 43.3773 88.3656 43.5234 88.57 43.6597C89.3388 44.1467 89.913 44.6045 90.2829 45.0233V45.0135Z" fill="url(#paint0_linear_403_274)"/>
<path d="M105.533 43.932C106.351 42.6756 107.042 41.4484 107.626 40.27C107.811 39.8999 107.947 39.598 108.044 39.3642C107.811 39.2279 107.587 39.0526 107.383 38.8383C106.896 38.3708 106.604 37.991 106.507 37.6891C106.37 37.2216 106.263 36.8417 106.195 36.5398C106.147 36.3353 106.127 36.0821 106.127 35.8094C106.127 35.4393 106.205 35.1374 106.37 34.9036C106.507 34.6699 106.731 34.6212 107.032 34.7673C107.431 34.9523 108.025 35.0887 108.813 35.1861C109.602 35.2835 110.225 35.4393 110.662 35.673C111.383 36.0236 113.358 38.0592 116.599 41.7893C119.295 44.8864 121.028 46.8246 121.796 47.6232C122.653 48.6458 123.655 49.4834 124.794 50.1359C125.563 50.6229 126.507 51.1975 127.616 51.85C128.288 52.2494 128.882 52.6974 129.397 53.2136C129.719 53.5155 129.884 53.7492 129.884 53.9148C129.884 54.0511 129.699 54.168 129.329 54.2654C128.891 54.4018 128.512 54.5478 128.21 54.6842C127.655 54.9374 127.12 55.0348 126.604 54.9666C125.952 54.9179 125.31 55.0153 124.687 55.2491C124.2 55.4341 123.694 55.5705 123.188 55.6679C122.721 55.736 122.195 55.6192 121.621 55.3173C121.174 55.0835 120.531 54.3725 119.665 53.1843C118.312 51.0904 117.086 49.3081 115.967 47.8374C114.312 45.6948 112.969 43.9515 111.918 42.5977C111.821 42.4808 111.743 42.3737 111.675 42.286C111.509 42.4516 111.353 42.6074 111.188 42.773C110.701 43.1723 110.04 43.9222 109.203 45.0423C107.811 46.883 106.536 48.2855 105.397 49.2691C104.093 50.3405 102.799 51.1975 101.524 51.85C100.872 52.1714 100.434 52.3857 100.2 52.4734C99.9665 52.5708 99.7329 52.6584 99.4994 52.7558C99.2463 52.8727 98.9057 52.9603 98.4872 53.0382C98.1563 53.0577 97.8448 53.0772 97.5431 53.0772C97.2901 53.0577 97.076 53.0382 96.9105 53.0382C96.6283 52.9896 96.4823 52.8824 96.4531 52.7266C96.4336 52.5415 96.531 52.4052 96.7645 52.3078C96.9981 52.2396 97.2609 52.1228 97.5723 51.9572C99.149 50.8859 100.658 49.6392 102.069 48.2173C103.373 46.9122 104.521 45.4903 105.524 43.9612L105.533 43.932Z" fill="url(#paint1_linear_403_274)"/>
<path d="M138.099 48.6851C137.447 49.3863 136.707 50.1265 135.87 50.9154C135.471 51.1978 134.955 51.4511 134.303 51.6848C133.583 51.8893 132.999 52.1133 132.561 52.3471C132.327 52.4445 132.133 52.4542 131.967 52.386C131.831 52.2886 131.948 52.0257 132.318 51.5874C132.668 51.0323 133.057 50.3895 133.505 49.6688C133.904 49.1331 134.215 48.6461 134.449 48.1981C134.887 47.4969 135.782 46.1236 137.135 44.0784C137.349 43.757 137.301 43.6012 136.999 43.6206C135.977 43.6206 135.276 43.5135 134.906 43.309C134.537 43.1726 134.235 42.822 134.001 42.2571C133.602 41.4001 133.398 40.9521 133.369 40.9326C133.252 40.767 133.203 40.6112 133.232 40.4456C133.3 40.2606 133.408 40.1534 133.544 40.134C133.894 40.0853 134.381 39.9976 135.013 39.8515C135.87 39.6665 136.765 39.2574 137.7 38.6341C138.439 38.1179 139.179 37.7576 139.899 37.553C140.6 37.2706 141.232 37.2024 141.816 37.3485C142.517 37.4849 142.906 37.6699 143.004 37.9037C143.189 38.2056 143.403 38.4588 143.636 38.6731C143.821 38.8094 143.919 38.9165 143.919 38.9847C143.919 39.0334 143.87 39.2282 143.782 39.5788C143.617 40.1145 143.422 40.5235 143.189 40.806C142.819 41.2442 142.556 41.6241 142.42 41.926C142.215 42.3935 141.962 42.9486 141.69 43.6012C141.524 43.8836 141.291 44.3024 140.989 44.8575C141.622 44.9062 142.245 45.0815 142.877 45.3835C143.88 45.8704 144.493 46.3963 144.726 46.9515C144.863 47.3216 144.902 47.6625 144.833 47.9644C144.785 48.2858 144.678 48.6364 144.522 49.0162C144.405 49.2694 144.23 49.4448 143.996 49.5421C143.763 49.6395 143.422 49.435 142.984 48.948C142.284 48.2468 141.622 47.4774 140.999 46.6398V51.8406C141.048 53.7982 141.018 55.863 140.931 58.0543C140.863 58.5413 140.775 58.8919 140.687 59.1062C140.59 59.3204 140.464 59.525 140.298 59.7392C140.035 60.0606 139.734 60.2359 139.383 60.2651C139.12 60.3138 138.916 60.197 138.751 59.9145C138.42 59.4276 138.138 59.0283 137.904 58.7263C137.7 58.4244 137.641 58.1225 137.729 57.8206C137.816 57.5868 137.865 57.3336 137.865 57.0512C138.069 53.4866 138.167 50.8959 138.147 49.2597V48.7046L138.099 48.6851ZM142.284 30.9108C142.683 31.1446 142.955 31.4075 143.121 31.7192C143.286 32.0406 143.257 32.4496 143.052 32.9366C142.751 33.6086 142.449 34.0274 142.147 34.193C141.631 34.4072 141.155 34.5533 140.717 34.6507C140.201 34.7676 139.704 34.826 139.218 34.826C138.819 34.826 138.4 34.641 137.962 34.2709C137.378 33.9495 136.833 33.3846 136.327 32.5957C135.889 31.8263 135.743 31.3588 135.909 31.203C136.074 31.0179 136.464 30.9595 137.096 31.0277C137.232 31.0472 137.515 30.9887 137.933 30.8524C138.332 30.716 138.78 30.5602 139.296 30.3946C139.529 30.2778 139.675 30.1706 139.753 30.083C139.919 29.8492 140.074 29.7421 140.24 29.7713C140.405 29.7908 140.532 29.8395 140.619 29.9077C140.785 29.9758 140.911 30.044 140.999 30.1219C141.417 30.4238 141.846 30.6965 142.293 30.9206L142.284 30.9108ZM146.293 40.3385C146.274 38.4296 146.089 36.5304 145.739 34.6507C145.69 34.4851 145.631 34.2904 145.563 34.0566C145.427 33.7547 145.388 33.5307 145.456 33.3943C145.554 33.1898 145.709 33.0827 145.943 33.0827C146.196 33.1022 146.41 33.1216 146.576 33.1216C147.043 33.1703 147.481 33.2385 147.899 33.3262C148.269 33.3943 148.678 33.5502 149.116 33.7839C149.437 33.9203 149.69 34.1345 149.846 34.417C150.965 33.7839 151.938 33.1801 152.775 32.5957C154.05 31.7581 154.809 31.1251 155.043 30.7063C155.344 30.2875 155.598 30.1609 155.812 30.3265C156.094 30.492 156.483 30.6089 156.999 30.6771C157.671 30.7258 158.186 30.9692 158.537 31.4075C158.955 31.875 159.15 32.2938 159.13 32.6639C159.13 32.7808 159.091 32.9074 159.023 33.0437C158.955 33.2093 158.887 33.3651 158.819 33.5307C158.77 33.7839 158.498 34.0274 157.982 34.2611C156.561 34.8163 155.218 35.2156 153.933 35.4493C152.512 35.7026 151.267 35.8487 150.196 35.8681C150.177 35.9363 150.157 36.024 150.157 36.1116C149.992 36.7836 149.904 38.2056 149.875 40.3677C149.826 41.1176 149.797 41.8481 149.768 42.5688C150.42 42.3156 151.208 42.0429 152.142 41.7702C152.425 41.6728 152.717 41.5949 153.018 41.5267V41.4877C152.833 41.0008 152.843 40.7086 153.057 40.6112C153.291 40.5138 153.486 40.358 153.651 40.1242C153.865 39.871 154.05 39.7444 154.206 39.7444C154.371 39.7639 154.663 39.8613 155.082 40.0268C155.617 40.2314 156.104 40.4943 156.551 40.7962C157.067 40.6794 157.398 40.5722 157.563 40.4846C157.817 40.3677 158.06 40.1924 158.293 39.9586C158.459 39.8223 158.615 39.7346 158.78 39.7152C159.101 39.6275 159.354 39.6275 159.51 39.7152C159.831 39.9002 160.113 40.0268 160.347 40.095C160.746 40.2119 161.077 40.319 161.359 40.4067C161.68 40.543 161.933 40.6988 162.089 40.8644C162.342 41.1663 162.459 41.4682 162.439 41.7702C162.42 42.0234 162.332 42.2961 162.196 42.5688C162.099 42.8025 162.06 43.0363 162.06 43.27C162.04 43.6401 161.953 43.8739 161.817 43.9713C161.632 44.1368 161.242 44.205 160.668 44.1758C159.997 44.1758 159.199 44.244 158.293 44.3803C157.972 44.3998 157.69 44.4485 157.456 44.5167C157.408 45.588 157.398 47.2729 157.417 49.5811C157.466 53.1652 157.408 55.9409 157.242 57.8888C157.194 58.4244 157.135 58.8335 157.067 59.1062C156.999 59.4081 156.931 59.6808 156.863 59.9048C156.726 60.3918 156.571 60.606 156.405 60.5379C156.104 60.4697 155.831 60.4794 155.598 60.5768C155.247 60.7619 155.062 60.9566 155.043 61.1709C154.975 61.3365 154.887 61.4144 154.799 61.4144C154.663 61.4144 154.478 61.093 154.245 60.4405C154.011 59.7879 153.816 58.2686 153.651 55.863C153.466 52.5613 153.388 50.1557 153.408 48.6656C153.408 47.5943 153.398 46.5619 153.369 45.5588C152.065 45.9289 151.101 46.2697 150.469 46.5717C150.05 46.7372 149.7 46.8151 149.417 46.8151C149.184 48.5195 148.824 50.2531 148.337 52.0159C148.006 53.1067 147.559 54.1975 146.975 55.2591C146.624 55.6779 146.089 56.0383 145.369 56.3402C144.512 56.6616 144.026 56.7785 143.938 56.6908C143.802 56.4376 143.841 55.9117 144.074 55.1228C144.561 54.1196 144.921 53.0191 145.155 51.8017C145.593 49.9122 145.894 47.8475 146.06 45.588C146.196 43.5427 146.264 41.7799 146.264 40.319L146.293 40.3385Z" fill="url(#paint2_linear_403_274)"/>
<path d="M170.965 51.3046C170.644 51.626 170.147 51.9376 169.495 52.2103C168.843 52.5123 168.298 52.8044 167.85 53.0869C167.617 53.2232 167.422 53.2622 167.257 53.194C167.12 53.1258 167.198 52.8434 167.5 52.3564C167.704 51.8695 167.967 51.3046 168.269 50.6813C168.522 50.1651 168.736 49.7268 168.901 49.3567C169.184 48.7237 169.748 47.5062 170.614 45.6947C170.819 45.3928 170.78 45.2565 170.478 45.2759C169.573 45.2078 168.94 45.0714 168.59 44.8571C168.24 44.7403 167.918 44.3994 167.617 43.8443C167.179 43.0262 166.945 42.6074 166.916 42.5879C166.799 42.4223 166.751 42.2665 166.78 42.1009C166.828 41.9159 166.916 41.8087 167.062 41.7893C167.432 41.6919 167.909 41.5653 168.493 41.4094C169.349 41.1562 170.215 40.6985 171.072 40.0459C171.792 39.4616 172.512 39.0525 173.232 38.8285C173.904 38.5461 174.537 38.4584 175.12 38.5461C175.821 38.6824 176.211 38.8675 176.308 39.1012C176.493 39.4323 176.707 39.6758 176.94 39.8317C177.125 39.968 177.223 40.0751 177.223 40.1433C177.223 40.192 177.174 40.3868 177.086 40.7374C176.95 41.2536 176.765 41.6529 176.532 41.9548C176.181 42.3541 175.938 42.7242 175.802 43.0748C175.685 43.3573 175.558 43.7176 175.422 44.1559C175.86 44.0683 176.376 44.0683 176.96 44.1559C177.816 44.3604 178.4 44.6526 178.702 45.0325C178.887 45.3539 178.984 45.6753 178.984 45.9772C179.004 46.2791 178.975 46.62 178.877 46.9901C178.809 47.2433 178.692 47.4478 178.527 47.5842C178.322 47.7205 177.953 47.6036 177.447 47.2335C176.629 46.6492 175.841 45.9674 175.072 45.1688C175.004 45.3052 174.936 45.461 174.858 45.6266C174.955 46.0259 174.984 46.62 174.965 47.4089C174.916 48.2659 174.926 49.7171 175.004 51.7429C175.023 53.7881 174.994 55.9502 174.897 58.2C174.848 58.6675 174.78 58.9987 174.692 59.2129C174.575 59.4272 174.439 59.6317 174.274 59.846C174.021 60.1284 173.738 60.3037 173.437 60.3719C173.184 60.3914 172.97 60.2648 172.804 59.9921C172.483 59.5246 172.201 59.1447 171.967 58.8428C171.763 58.5604 171.695 58.2682 171.792 57.9663C171.889 57.7131 171.928 57.4696 171.928 57.2358C172.113 54.0511 172.21 51.5968 172.21 49.9021C171.841 50.3501 171.432 50.8274 170.994 51.3338L170.965 51.3046ZM170.371 31.6409C170.352 31.4753 170.42 31.3877 170.575 31.3584C170.741 31.339 171.043 31.1539 171.481 30.8033C172.298 30.2482 173.155 30.0144 174.06 30.1021C174.994 30.1995 175.714 30.5695 176.22 31.2221C176.619 31.6896 176.863 32.2447 176.95 32.8973C177.018 33.7835 176.794 34.4068 176.288 34.7867C175.821 35.0886 175.237 35.1568 174.546 35.0009C173.797 34.7672 173.242 34.4653 172.872 34.0952C172.434 33.6277 171.88 33.1018 171.237 32.5272C170.653 32.0889 170.361 31.7967 170.361 31.6506L170.371 31.6409ZM192.327 45.685C192.493 45.4512 192.688 45.3831 192.921 45.4707C193.554 45.7726 194.186 46.0746 194.838 46.3765C195.695 46.7466 196.23 47.1264 196.444 47.4965C196.61 47.7984 196.61 48.412 196.444 49.347C196.045 50.8566 195.782 52.3662 195.646 53.8465C195.51 55.1224 195.247 56.2229 194.877 57.1287C194.556 57.8786 193.924 58.5701 192.989 59.2227C192.269 59.8265 191.646 60.1771 191.14 60.2745C190.858 60.3427 190.644 60.3135 190.478 60.1674C190.177 59.8849 189.982 59.5635 189.885 59.1934C189.768 58.7941 189.641 58.4825 189.505 58.2487C187.364 58.3169 185.106 58.6091 182.731 59.1253C182.313 59.1934 181.953 59.1447 181.651 58.9889C181.515 59.0863 181.427 59.174 181.408 59.2714C181.31 59.4564 181.155 59.398 180.921 59.0961C180.434 58.424 179.899 57.0216 179.315 54.9081C178.683 52.5999 178.322 50.954 178.235 49.9508C178.186 49.3957 178.118 48.9574 178.021 48.6555C177.972 48.451 177.962 48.2951 177.982 48.1977C178.05 47.9932 178.167 47.9348 178.332 48.0224C178.702 48.188 179.062 48.2562 179.412 48.227C179.617 48.2075 179.812 48.2659 179.967 48.4023C181.524 47.7984 183.422 47.2433 185.651 46.7271C188.094 46.172 190.147 45.8993 191.831 45.9285C192.065 45.9285 192.23 45.8506 192.318 45.685H192.327ZM188.065 35.9749C188.415 35.6924 189.077 35.7411 190.05 36.1112C191.072 36.53 191.802 36.8904 192.25 37.1923C192.571 37.3968 192.726 37.689 192.707 38.0688C192.688 38.5363 192.532 39.1889 192.25 40.0264C192.016 40.5426 191.763 41.0393 191.481 41.5263C191.529 41.5263 191.559 41.536 191.588 41.5653C191.841 41.6821 192.016 41.8087 192.113 41.9451C192.25 42.1788 192.279 42.3736 192.181 42.5392C191.997 42.7729 191.86 43.1138 191.763 43.5521C191.695 43.9514 191.607 44.1364 191.52 44.1072C191.354 44.0585 191.267 44.0877 191.237 44.1754C191.218 44.2436 191.062 44.2923 190.78 44.3117C188.756 44.4773 186.615 44.8864 184.357 45.5292C184.142 45.5779 183.958 45.5973 183.802 45.5973C183.704 45.6655 183.627 45.7532 183.559 45.8408C183.325 46.0746 183.198 46.2596 183.179 46.396C183.062 46.6492 182.829 46.5907 182.478 46.2207C182.06 45.7824 181.563 44.8279 180.979 43.3573C180.347 41.7503 179.967 40.5913 179.831 39.8706C179.734 39.4713 179.646 39.1694 179.549 38.9649C179.451 38.7116 179.422 38.4974 179.442 38.3318C179.49 38.0786 179.627 37.9812 179.86 38.0494C180.415 38.2344 180.921 38.2831 181.359 38.1857C181.612 38.137 181.855 38.1857 182.089 38.3221C183.831 37.5332 185.349 36.9586 186.624 36.6079C187.276 36.4034 187.753 36.1794 188.055 35.9457L188.065 35.9749ZM183.636 30.3845C184.639 30.0826 185.632 29.7514 186.634 29.4106C187.286 29.1281 187.695 28.9431 187.851 28.8554C188.104 28.6217 188.318 28.5146 188.483 28.5438C189.719 28.7093 190.556 28.9041 190.994 29.1379C191.393 29.3424 191.636 29.6735 191.724 30.1118C191.821 30.6475 191.782 31.0857 191.617 31.4364C191.335 31.9525 190.906 32.3421 190.323 32.6245C189.554 33.0628 188.532 33.7933 187.247 34.7867C186.712 35.0886 186.303 35.2542 186.031 35.2736C185.427 35.371 184.814 35.2639 184.181 34.962C183.481 34.6114 182.916 34.2218 182.468 33.7738C181.865 33.2186 181.554 32.7999 181.524 32.5174C181.505 32.1473 181.388 31.8454 181.174 31.6117C181.077 31.4461 181.018 31.2903 180.999 31.1247C180.999 30.9202 181.038 30.8033 181.106 30.7741C181.203 30.7254 181.291 30.7059 181.388 30.7059C181.505 30.7059 181.641 30.6962 181.807 30.6669C181.992 30.6669 182.186 30.6572 182.4 30.628C182.634 30.628 183.043 30.5501 183.617 30.3845H183.636ZM185.203 51.7234C185.184 51.1195 185.155 50.6326 185.135 50.2527C185.116 50.019 185.087 49.8242 185.067 49.6586C183.51 50.1261 182.274 50.6131 181.369 51.1293C181.417 51.3143 181.447 51.4896 181.476 51.6552C181.709 53.5446 181.943 55.0445 182.176 56.1548C182.196 56.2911 182.225 56.4372 182.245 56.5736C182.731 56.369 183.413 56.1742 184.269 56.0184C184.522 55.9308 184.804 55.8626 185.106 55.8431C185.106 55.7068 185.116 55.5607 185.145 55.4243V54.2069C184.941 54.3043 184.649 54.3335 184.269 54.314C183.85 54.2459 183.559 54.129 183.393 53.9634C183.111 53.6615 182.906 53.4083 182.76 53.194C182.644 52.9895 182.537 52.8337 182.449 52.7363C182.352 52.5512 182.352 52.4441 182.449 52.4246C182.848 52.1909 183.159 52.074 183.393 52.074C183.763 52.0058 184.366 51.8889 185.203 51.7234ZM185.174 39.783C184.425 40.1336 183.88 40.455 183.529 40.7569C183.666 41.575 183.812 42.2665 183.948 42.8508C184.318 42.6853 184.765 42.5294 185.271 42.3639C185.807 42.1496 186.361 42.0035 186.945 41.9061C187.13 41.536 187.267 41.2633 187.364 41.1075C187.646 40.455 187.851 39.8122 187.996 39.1889C188.016 38.9356 188.016 38.7701 187.996 38.7019C187.928 38.6337 187.773 38.6435 187.539 38.7408C186.751 39.0622 185.953 39.4129 185.164 39.7927L185.174 39.783ZM188.551 55.1419V55.3854C189.826 55.2977 190.712 55.3464 191.208 55.5607C191.559 54.1874 191.773 52.9992 191.87 51.9961C191.938 51.1585 191.967 50.243 191.938 49.2398C191.919 48.8016 191.802 48.5678 191.588 48.5386C190.634 48.4899 189.632 48.5776 188.59 48.7821C188.639 48.9185 188.649 49.1327 188.629 49.4152C188.58 49.5515 188.551 49.9119 188.522 50.4962C188.688 50.428 188.814 50.428 188.902 50.4962C189.135 50.6813 189.466 50.7884 189.914 50.8079C190.167 50.8566 190.439 50.9637 190.722 51.1195C190.907 51.2559 191.014 51.4409 191.033 51.6747C191.052 51.8597 190.916 52.2493 190.615 52.8239C190.517 53.009 190.216 53.1453 189.709 53.2427C189.271 53.3109 188.863 53.3985 188.493 53.4862C188.512 54.0706 188.542 54.616 188.561 55.1224L188.551 55.1419Z" fill="url(#paint3_linear_403_274)"/>
<path d="M214.654 47.8767C214.05 48.8506 213.35 49.5616 212.561 50.0096C211.792 50.4089 211.189 50.6426 210.751 50.7108C210.148 50.8958 209.758 50.9153 209.603 50.779C209.35 50.5745 209.544 50.2141 210.196 49.6979C210.498 49.2791 210.829 48.7824 211.17 48.1981C211.608 47.4579 212.007 46.406 212.357 45.0522C212.727 43.6595 212.96 42.3837 213.058 41.2442C213.077 40.8059 213.106 40.3676 213.126 39.9488C211.15 40.4163 209.515 40.9423 208.24 41.5169C208.289 43.0752 208.318 44.9743 208.347 47.2046C208.396 49.2109 208.532 50.9153 208.766 52.3373C208.814 52.6392 208.756 52.9314 208.591 53.2138C208.386 53.5352 208.279 53.8176 208.279 54.0514C208.23 54.3338 207.851 54.7624 207.131 55.3467C206.498 55.8142 206.08 56.0382 205.875 56.009C205.671 55.9408 205.379 55.6097 204.999 55.0351C204.6 54.3144 204.406 53.6716 204.406 53.1164C204.406 50.3212 204.23 47.1072 203.88 43.4745C203.598 40.7085 203.325 39.0041 203.043 38.3711C202.878 38.0497 202.868 37.8159 203.004 37.6698C203.14 37.4653 203.325 37.3484 203.559 37.3192C203.812 37.2705 204.123 37.2997 204.503 37.3874C205.019 37.5237 205.476 37.6796 205.895 37.8451C206.099 37.962 206.391 38.0691 206.771 38.1568C208.698 37.553 210.868 37.0076 213.262 36.5109C213.282 36.1408 213.301 35.7999 213.301 35.498C213.301 35.011 213.291 34.5533 213.262 34.1345C213.243 33.7351 213.155 33.4624 213.019 33.2969C212.951 32.7125 212.902 32.3229 212.883 32.1087C212.863 31.9042 212.892 31.7288 212.99 31.5828C213.058 31.4464 213.243 31.4561 213.544 31.6217C213.865 31.7581 214.138 31.7191 214.352 31.4854C214.556 31.2321 215.063 31.2906 215.851 31.6607C217.087 32.2645 218.021 32.9268 218.673 33.6475C218.994 34.0858 219.082 34.7091 218.917 35.498C220.707 35.2642 222.313 35.1863 223.734 35.2545C223.968 35.274 224.153 35.1863 224.289 34.972C224.474 34.7188 224.707 34.6312 224.99 34.7286C225.71 35.0792 226.459 35.4006 227.218 35.7025C228.24 36.1018 228.892 36.5206 229.175 36.9589C229.408 37.3095 229.418 38.0205 229.214 39.0918C228.863 41.9064 228.727 44.6237 228.795 47.2241C228.844 49.5518 228.61 51.5581 228.094 53.2333C227.647 54.6065 226.683 55.9895 225.194 57.392C224.425 58.1419 223.763 58.5899 223.209 58.7555C222.858 58.8431 222.605 58.8139 222.44 58.6484C222.089 58.3659 221.836 58.0153 221.671 57.5965C220.853 56.2233 220.065 55.3467 219.296 54.9766C218.975 54.8111 218.81 54.6552 218.81 54.4897C218.81 54.3046 218.965 54.2267 219.267 54.2462C220.201 54.4799 221.223 54.5481 222.342 54.4507C222.625 54.4507 222.8 54.2267 222.868 53.7884C223.588 50.6037 224.036 47.8085 224.192 45.4126C224.328 43.5913 224.328 41.5948 224.192 39.4034C224.172 39.0041 223.968 38.7996 223.598 38.7704C221.827 38.6048 219.939 38.673 217.914 38.9749C217.749 39.5106 217.593 40.1436 217.428 40.8643C217.106 42.0331 216.756 43.1726 216.376 44.2828C216.425 44.2634 216.454 44.2439 216.484 44.2439C217.272 44.1075 218.119 44.1368 219.033 44.351C220.425 44.6529 221.35 45.1204 221.788 45.7437C222.041 46.182 222.187 46.63 222.206 47.0683C222.206 47.5358 222.158 48.0227 222.07 48.5389C221.973 48.8895 221.817 49.172 221.583 49.3765C221.282 49.5616 220.766 49.396 220.046 48.8895C218.625 47.9546 217.243 46.8248 215.89 45.5003C215.52 46.2697 215.111 47.0488 214.673 47.8377L214.654 47.8767Z" fill="url(#paint4_linear_403_274)"/>
<path d="M244.99 42.6075C244.941 42.4225 244.951 42.3154 245.029 42.2959C245.214 42.2277 245.311 42.1108 245.311 41.9453C245.311 41.7602 245.603 41.7505 246.187 41.9063C246.44 41.8868 246.713 41.8381 246.995 41.77C247.199 41.7018 247.316 41.6726 247.345 41.7018C247.462 41.77 247.598 41.7992 247.764 41.77C248.046 41.77 248.425 41.8868 248.912 42.1206C249.496 42.403 250.596 43.2016 252.231 44.5262C253.603 45.6462 254.683 46.552 255.472 47.2532C256.075 47.7889 256.737 48.3148 257.457 48.8212C258.177 49.3082 258.936 49.7659 259.725 50.1847C260.241 50.438 260.717 50.6522 261.155 50.8178C261.574 50.9834 262.236 51.2853 263.141 51.7235C263.91 52.0936 264.513 52.3663 264.951 52.5319C265.253 52.6683 265.486 52.8144 265.652 52.9507C265.769 53.0481 265.817 53.165 265.788 53.3013C265.739 53.4669 265.545 53.6617 265.194 53.8954C264.776 54.1779 264.445 54.3629 264.221 54.4506C263.705 54.6843 263.228 54.7914 262.791 54.7622C262.343 54.7622 261.973 54.772 261.671 54.8012C261.117 54.918 260.542 55.0447 259.958 55.181C259.608 55.2979 259.258 55.2881 258.907 55.1421C258.508 55.0057 258.138 54.8304 257.788 54.6161C257.35 54.3629 256.873 54.0805 256.357 53.7785C256.338 53.7591 256.309 53.7396 256.289 53.7396C256.036 54.1584 255.803 54.4895 255.588 54.7135C255.306 54.8499 254.849 55.4245 254.197 56.4276C254.635 56.4471 254.966 56.5348 255.17 56.6711C255.472 56.8367 255.666 56.9925 255.764 57.1581C255.929 57.4113 255.939 57.6256 255.803 57.7912C255.569 58.0736 255.384 58.4339 255.248 58.8722C255.112 59.3105 254.995 59.5248 254.897 59.5053C254.781 59.4566 254.693 59.4858 254.615 59.5734C254.567 59.6708 254.391 59.7001 254.09 59.6806C251.812 59.6806 249.34 59.9728 246.693 60.5571C246.255 60.6545 245.876 60.6253 245.574 60.4889C245.525 60.5571 245.496 60.6058 245.467 60.6253C245.35 60.859 245.146 60.7909 244.834 60.411C244.367 59.7877 243.861 58.5508 243.296 56.7101C242.81 55.0544 242.479 53.7785 242.323 52.8728C241.155 54.0805 240.182 54.9765 239.394 55.5608C238.742 55.9991 238.265 56.3108 237.963 56.4666C237.71 56.6322 237.467 56.7101 237.233 56.7101C237 56.7296 236.776 56.7296 236.571 56.7101C236.386 56.6614 236.289 56.5737 236.289 56.4276C236.309 56.2231 236.367 56.0673 236.464 55.9699C236.562 55.9017 236.62 55.7946 236.639 55.6582C236.659 55.5706 236.756 55.5511 236.922 55.6193C237.058 55.6388 237.204 55.5706 237.34 55.4148C238.362 54.2071 239.686 52.3079 241.321 49.727C242.79 47.4188 243.968 45.2469 244.883 43.1919C244.97 42.9387 245.009 42.7341 244.99 42.5978V42.6075ZM238.498 31.7871C238.498 31.6021 238.547 31.4755 238.635 31.4073C238.722 31.3586 239.034 31.417 239.54 31.5826C240.172 31.7871 240.669 32.1767 241.038 32.7319C241.321 33.0533 241.467 33.55 241.496 34.2025C241.515 34.9524 241.515 35.6731 241.496 36.3646C241.428 36.9685 241.379 37.4262 241.36 37.7281C241.292 38.1274 241.136 38.6144 240.902 39.1988C240.737 39.5007 240.591 39.7734 240.445 39.9974C240.26 40.2311 240.026 40.4162 239.744 40.5525C239.374 40.7571 239.141 40.8642 239.043 40.8642C238.81 40.8837 238.664 40.7863 238.586 40.5525C238.469 40.2019 238.236 39.8221 237.885 39.4033C237.632 39.0332 237.486 38.5852 237.467 38.0787C237.467 37.3775 237.788 35.6537 238.44 32.9072C238.537 32.4689 238.547 32.0891 238.479 31.7871H238.498ZM244.143 37.6113C244.377 37.6307 244.805 38.0398 245.438 38.8287C245.759 39.2767 245.924 39.6078 245.924 39.8416C245.905 39.9584 245.807 40.0948 245.642 40.2604C245.506 40.3967 245.36 40.572 245.223 40.7863C244.941 41.2538 244.669 41.6726 244.386 42.0427C244.172 42.3933 243.968 42.6173 243.754 42.7049C243.306 42.9874 242.693 43.114 241.905 43.0848C241.506 43.0653 241.36 42.8705 241.447 42.5296C241.515 42.2472 241.535 41.994 241.515 41.7602C241.535 41.5752 241.632 41.4096 241.798 41.2733C242.236 40.7571 242.712 40.1045 243.228 39.3156C243.511 38.8482 243.657 38.5755 243.686 38.4781C243.783 37.8937 243.929 37.6015 244.143 37.6015V37.6113ZM251.511 32.4786C251.832 32.4299 252.153 32.4105 252.455 32.4105C254.644 32.2936 255.958 32.2838 256.396 32.3715C256.795 32.4689 257.175 32.4689 257.545 32.3715C258.031 32.2352 258.46 32.2059 258.839 32.3033C259.092 32.352 259.335 32.4202 259.569 32.5079C259.803 32.6052 260.026 32.8877 260.231 33.3844C260.396 33.735 260.659 34.1538 261.039 34.6408C261.292 34.9622 261.34 35.3128 261.175 35.6926C261.058 36.2088 260.795 36.5399 260.367 36.7055C259.764 36.9879 259.277 37.2801 258.898 37.582C258.499 37.9034 258.158 38.1177 257.846 38.2151C257.525 38.332 257.136 38.3222 256.698 38.1761C256.299 38.0398 255.793 37.9327 255.16 37.8645C254.693 37.8158 254.314 37.806 254.012 37.8255C253.574 37.8742 253.34 37.8645 253.311 37.7866C253.262 37.6892 253.486 37.5041 253.973 37.2314C254.975 36.5594 255.871 35.5465 256.659 34.1928C256.776 34.1051 256.834 34.0174 256.834 33.9493C256.815 33.9006 256.717 33.8714 256.552 33.8421C255.598 33.8616 254.343 33.959 252.786 34.1246C251.764 34.2415 250.868 34.3778 250.099 34.5434C249.963 34.7089 249.846 34.9037 249.749 35.1375C249.399 35.6926 249 36.1504 248.562 36.501C247.978 37.0172 247.54 37.2801 247.238 37.2996C246.868 37.3191 246.644 37.2509 246.576 37.0951C246.508 36.8808 246.362 36.7347 246.158 36.6373C245.905 36.501 245.671 36.2867 245.457 36.014C245.36 35.9945 245.282 35.9945 245.214 36.014C244.795 36.0822 244.464 36.1114 244.24 36.0822C243.958 36.014 243.705 35.829 243.472 35.527C243.053 34.9232 242.771 34.5044 242.635 34.2707C242.537 34.0564 242.508 33.9103 242.528 33.8129C242.596 33.7447 242.712 33.7058 242.878 33.7058C243.082 33.7058 243.442 33.6376 243.958 33.5013C244.698 33.3357 245.438 33.2188 246.158 33.1506C246.255 32.7513 246.284 32.4884 246.265 32.3423C246.099 31.8748 245.983 31.495 245.914 31.193C245.817 30.7548 245.846 30.1704 245.983 29.4497C246.119 28.8653 246.236 28.5634 246.333 28.5439C246.469 28.4952 246.625 28.5537 246.79 28.7193C247.16 28.9725 247.53 29.0601 247.91 28.9627C248.348 28.8459 248.815 28.9725 249.301 29.3426C249.905 29.8101 250.352 30.1899 250.625 30.4918C251.345 31.2807 251.657 31.8651 251.569 32.2352C251.55 32.3033 251.52 32.391 251.501 32.4786H251.511ZM245.399 49.1037C245.029 49.5906 244.659 50.0776 244.279 50.5743C244.299 50.5743 244.318 50.584 244.318 50.6133C244.318 50.5938 244.367 50.5646 244.455 50.5451C244.922 50.4087 245.34 50.2919 245.71 50.1945C247.851 49.6783 249.525 49.3764 250.732 49.2887C250.936 49.2692 251.15 49.2498 251.365 49.2498C251.014 48.831 250.654 48.4024 250.284 47.9544C249.447 46.9513 248.776 46.1721 248.26 45.617C246.936 47.0876 245.983 48.2466 245.399 49.1134V49.1037ZM251.228 52.0742C251.228 51.9086 251.219 51.8209 251.189 51.7917C251.141 51.743 251.053 51.7138 250.907 51.6846C250.771 51.7041 250.372 51.8209 249.72 52.0352C248.863 52.2884 247.997 52.5903 247.141 52.941C246.936 52.9897 246.683 53.0481 246.411 53.1163C246.245 53.165 246.119 53.1942 246.031 53.2234C246.051 53.3598 246.08 53.5156 246.099 53.6812C246.236 55.2394 246.411 56.4861 246.625 57.4211V57.46C247.024 57.2944 247.472 57.1678 247.987 57.0802C248.727 56.8951 249.467 56.7588 250.187 56.6614C250.206 56.5932 250.323 56.5543 250.537 56.5543C250.586 56.5543 250.644 56.3497 250.713 55.9212C250.897 54.7622 251.073 53.4766 251.238 52.0839L251.228 52.0742ZM250.323 36.7737C250.343 36.3354 250.43 36.1017 250.567 36.0724C250.8 36.053 250.985 36.0822 251.121 36.1796C251.306 36.2965 251.481 36.3646 251.647 36.3841C251.9 36.4815 252.172 36.5984 252.455 36.7347C252.737 36.8711 252.912 37.0172 252.98 37.1535C253.097 37.358 253.146 37.5528 253.116 37.7087V38.1274C253.136 38.3807 253.233 38.556 253.399 38.6534C253.885 38.8579 254.168 39.1501 254.236 39.5299C254.304 39.9682 254.158 40.348 253.778 40.6499C253.477 40.9324 252.932 41.02 252.133 40.9324C251.696 40.8447 251.287 40.8739 250.917 41.0395C250.479 41.2246 249.944 41.4583 249.311 41.7407C249.175 41.7894 249.068 41.7797 249 41.7018C248.98 41.6531 249.009 41.5849 249.107 41.4973C249.623 41.1953 249.992 40.9421 250.226 40.7278C250.362 40.611 250.391 40.4746 250.294 40.3091C250.129 40.0266 250.051 39.7344 250.051 39.4325C250.002 38.8774 250.06 38.3417 250.226 37.8255C250.294 37.5431 250.333 37.1925 250.333 36.7737H250.323Z" fill="url(#paint5_linear_403_274)"/>
</g>
<defs>
<linearGradient id="paint0_linear_403_274" x1="79.11" y1="28.4372" x2="79.88" y2="60.947" gradientUnits="userSpaceOnUse">
<stop stop-color="white"/>
<stop offset="0.19" stop-color="#FBFDFE"/>
<stop offset="0.33" stop-color="#F2F9FC" stop-opacity="0.99"/>
<stop offset="0.47" stop-color="#E2F3F9" stop-opacity="0.99"/>
<stop offset="0.59" stop-color="#CBE9F5" stop-opacity="0.98"/>
<stop offset="0.71" stop-color="#ADDDF0" stop-opacity="0.96"/>
<stop offset="0.83" stop-color="#89CFEA" stop-opacity="0.95"/>
<stop offset="0.93" stop-color="#5FBDE3" stop-opacity="0.93"/>
<stop offset="1" stop-color="#43B2DE" stop-opacity="0.92"/>
</linearGradient>
<linearGradient id="paint1_linear_403_274" x1="112.58" y1="27.6478" x2="113.34" y2="60.1674" gradientUnits="userSpaceOnUse">
<stop stop-color="white"/>
<stop offset="0.19" stop-color="#FBFDFE"/>
<stop offset="0.33" stop-color="#F2F9FC" stop-opacity="0.99"/>
<stop offset="0.47" stop-color="#E2F3F9" stop-opacity="0.99"/>
<stop offset="0.59" stop-color="#CBE9F5" stop-opacity="0.98"/>
<stop offset="0.71" stop-color="#ADDDF0" stop-opacity="0.96"/>
<stop offset="0.83" stop-color="#89CFEA" stop-opacity="0.95"/>
<stop offset="0.93" stop-color="#5FBDE3" stop-opacity="0.93"/>
<stop offset="1" stop-color="#43B2DE" stop-opacity="0.92"/>
</linearGradient>
<linearGradient id="paint2_linear_403_274" x1="146.702" y1="26.8495" x2="147.472" y2="59.3691" gradientUnits="userSpaceOnUse">
<stop stop-color="white"/>
<stop offset="0.19" stop-color="#FBFDFE"/>
<stop offset="0.33" stop-color="#F2F9FC" stop-opacity="0.99"/>
<stop offset="0.47" stop-color="#E2F3F9" stop-opacity="0.99"/>
<stop offset="0.59" stop-color="#CBE9F5" stop-opacity="0.98"/>
<stop offset="0.71" stop-color="#ADDDF0" stop-opacity="0.96"/>
<stop offset="0.83" stop-color="#89CFEA" stop-opacity="0.95"/>
<stop offset="0.93" stop-color="#5FBDE3" stop-opacity="0.93"/>
<stop offset="1" stop-color="#43B2DE" stop-opacity="0.92"/>
</linearGradient>
<linearGradient id="paint3_linear_403_274" x1="181.223" y1="26.0408" x2="181.983" y2="58.5604" gradientUnits="userSpaceOnUse">
<stop stop-color="white"/>
<stop offset="0.19" stop-color="#FBFDFE"/>
<stop offset="0.33" stop-color="#F2F9FC" stop-opacity="0.99"/>
<stop offset="0.47" stop-color="#E2F3F9" stop-opacity="0.99"/>
<stop offset="0.59" stop-color="#CBE9F5" stop-opacity="0.98"/>
<stop offset="0.71" stop-color="#ADDDF0" stop-opacity="0.96"/>
<stop offset="0.83" stop-color="#89CFEA" stop-opacity="0.95"/>
<stop offset="0.93" stop-color="#5FBDE3" stop-opacity="0.93"/>
<stop offset="1" stop-color="#43B2DE" stop-opacity="0.92"/>
</linearGradient>
<linearGradient id="paint4_linear_403_274" x1="215.841" y1="25.2327" x2="216.601" y2="57.7523" gradientUnits="userSpaceOnUse">
<stop stop-color="white"/>
<stop offset="0.19" stop-color="#FBFDFE"/>
<stop offset="0.33" stop-color="#F2F9FC" stop-opacity="0.99"/>
<stop offset="0.47" stop-color="#E2F3F9" stop-opacity="0.99"/>
<stop offset="0.59" stop-color="#CBE9F5" stop-opacity="0.98"/>
<stop offset="0.71" stop-color="#ADDDF0" stop-opacity="0.96"/>
<stop offset="0.83" stop-color="#89CFEA" stop-opacity="0.95"/>
<stop offset="0.93" stop-color="#5FBDE3" stop-opacity="0.93"/>
<stop offset="1" stop-color="#43B2DE" stop-opacity="0.92"/>
</linearGradient>
<linearGradient id="paint5_linear_403_274" x1="250.333" y1="24.4242" x2="251.093" y2="56.9438" gradientUnits="userSpaceOnUse">
<stop stop-color="white"/>
<stop offset="0.19" stop-color="#FBFDFE"/>
<stop offset="0.33" stop-color="#F2F9FC" stop-opacity="0.99"/>
<stop offset="0.47" stop-color="#E2F3F9" stop-opacity="0.99"/>
<stop offset="0.59" stop-color="#CBE9F5" stop-opacity="0.98"/>
<stop offset="0.71" stop-color="#ADDDF0" stop-opacity="0.96"/>
<stop offset="0.83" stop-color="#89CFEA" stop-opacity="0.95"/>
<stop offset="0.93" stop-color="#5FBDE3" stop-opacity="0.93"/>
<stop offset="1" stop-color="#43B2DE" stop-opacity="0.92"/>
</linearGradient>
<clipPath id="clip0_403_274">
<rect width="275" height="68" fill="white" transform="translate(26 13)"/>
</clipPath>
</defs>
</svg>
