<svg width="275" height="68" viewBox="0 0 275 68" fill="none" xmlns="http://www.w3.org/2000/svg">
<g clip-path="url(#clip0_406_300)">
<path d="M261.588 67.0646H13.4111C13.4111 60.1692 7.82465 54.5788 0.934082 54.5788V13.4204C7.82465 13.4204 13.4111 7.83002 13.4111 0.93457H261.588C261.588 7.83002 267.175 13.4204 274.065 13.4204V54.5788C267.175 54.5788 261.588 60.1692 261.588 67.0646Z" fill="#FEF0DB" stroke="#823B21" stroke-width="1.86995" stroke-miterlimit="10"/>
<path d="M15.9124 64.055C14.7737 57.8511 9.87828 52.9522 3.67871 51.8224V15.6603C9.87828 14.5208 14.7737 9.62192 15.9124 3.41797H259.097C260.236 9.62192 265.131 14.5208 271.331 15.6603V51.8224C265.131 52.9619 260.236 57.8608 259.097 64.055H15.9124Z" fill="#FEF0DB" stroke="#823B21" stroke-width="0.934976" stroke-miterlimit="10"/>
<path d="M25.7036 28.9941L26.1221 30.455C26.5211 31.838 27.6014 32.9288 28.9834 33.3184L30.4433 33.7372L28.9834 34.156C27.6014 34.5553 26.5114 35.6364 26.1221 37.0193L25.7036 38.4802L25.2851 37.0193C24.886 35.6364 23.8057 34.5456 22.4237 34.156L20.9639 33.7372L22.4237 33.3184C23.8057 32.9191 24.8958 31.838 25.2851 30.455L25.7036 28.9941Z" fill="#823B21"/>
<path d="M249.297 28.9941L249.715 30.455C250.114 31.838 251.195 32.9288 252.577 33.3184L254.037 33.7372L252.577 34.156C251.195 34.5553 250.105 35.6364 249.715 37.0193L249.297 38.4802L248.878 37.0193C248.479 35.6364 247.399 34.5456 246.017 34.156L244.557 33.7372L246.017 33.3184C247.399 32.9191 248.489 31.838 248.878 30.455L249.297 28.9941Z" fill="#823B21"/>
<path d="M48.2534 41.5183C48.0004 41.5865 47.796 41.6741 47.6597 41.7618C47.5235 41.8592 47.2996 41.976 46.9979 42.1124C46.7644 42.2098 46.5989 42.2487 46.5113 42.2487C46.3069 42.2682 46.1999 42.239 46.1999 42.1416C46.1804 42.0053 46.1317 41.8202 46.0636 41.5865C45.9955 41.3332 46.3167 40.8073 47.0369 40.0184C47.504 39.4341 48.2048 38.4504 49.1293 37.0479C50.3654 35.2072 51.2705 33.5515 51.8544 32.0906C51.5333 32.3438 51.2121 32.5873 50.9104 32.8211C50.5405 33.0548 50.1999 33.1814 49.8982 33.2009C49.5478 33.2009 49.1293 33.0256 48.6427 32.675C47.8933 32.1393 47.4067 31.7303 47.1731 31.4576C46.8714 31.1556 46.6378 30.8537 46.4724 30.5518C46.3361 30.2499 46.2777 30.0551 46.2972 29.9577C46.3459 29.8214 46.5016 29.7337 46.7838 29.7142C47.1829 29.646 47.5624 29.5 47.9323 29.2954C48.4481 29.0617 49.0904 28.7013 49.8885 28.2144C50.7449 27.6592 51.4651 27.2599 52.0491 27.0262C52.7498 26.7048 53.3532 26.4223 53.8593 26.1886C54.2973 25.9841 54.5698 25.8282 54.6671 25.7308C54.7547 25.6334 54.891 25.6237 55.0467 25.6919C55.2511 25.76 55.543 25.7893 55.9226 25.7601C56.3216 25.7406 56.5844 25.7698 56.7304 25.8672C56.9153 25.9841 57.0905 26.1204 57.2559 26.286C57.4214 26.5002 57.5479 26.7145 57.6355 26.9482C57.7036 27.182 57.7426 27.445 57.7426 27.7566C57.7426 28.0683 57.7328 28.2923 57.7036 28.4578C57.6842 28.6624 57.5187 28.8182 57.217 28.9156C56.9348 29.013 56.6233 29.1396 56.273 29.2954C56.1562 29.2954 56.088 29.3344 56.0588 29.4026C56.0102 29.4513 55.9907 29.5097 55.9907 29.5779C55.4554 30.9316 54.9007 32.2075 54.3167 33.4152C54.3849 33.3957 54.4627 33.3762 54.56 33.3762C55.4457 33.4736 56.3411 33.7366 57.2462 34.1748C57.616 34.2917 57.908 34.4573 58.1221 34.6618C58.3557 34.8663 58.4822 35.0611 58.5017 35.2169C58.5504 35.4215 58.5212 35.7039 58.4336 36.0545C58.2292 36.4733 57.8399 37.5349 57.2851 39.2295C56.8472 40.6223 56.2048 41.9663 55.3678 43.2421C54.6184 44.3816 53.8009 45.3458 52.8861 46.1445C52.7693 46.2419 52.6622 46.3003 52.5746 46.3198C52.4578 46.3393 52.3216 46.3977 52.1561 46.4951C52.088 46.5438 51.9809 46.5535 51.8447 46.534C51.4943 46.4853 51.2024 46.4172 50.9688 46.3295C50.6865 46.2321 50.4724 46.125 50.307 45.9789C50.1221 45.8133 49.8398 45.5991 49.47 45.3166C49.2364 45.0829 49.1099 44.7907 49.0904 44.4401C49.0709 44.1869 48.9347 43.8362 48.7108 43.3882C48.5941 43.1837 48.6427 43.1058 48.8471 43.1837C49.5478 43.3493 50.1707 43.5051 50.7352 43.6707C51.0369 43.7681 51.2705 43.7681 51.4359 43.6707C51.8544 43.5051 52.2145 43.174 52.5162 42.6578C53.4505 41.0021 54.3459 38.7328 55.2024 35.85C55.2024 35.6844 55.1537 35.5578 55.0661 35.4702C54.6963 35.3338 54.2973 35.1098 53.8788 34.8079C53.7815 34.691 53.7231 34.6228 53.7036 34.6034C53.4505 35.0027 53.2072 35.402 52.9737 35.8208C51.7863 37.681 50.4627 39.4146 48.9931 41.0216C48.74 41.3235 48.4967 41.4891 48.2632 41.5085L48.2534 41.5183ZM54.852 18.8549C55.7863 19.3905 56.4384 19.9846 56.8082 20.6372C56.9445 20.9391 57.0029 21.241 56.9834 21.5429C56.9153 22.0104 56.672 22.4292 56.2535 22.7993C55.835 23.1986 55.2608 23.3837 54.5406 23.3544C54.2194 23.335 53.8106 22.9551 53.324 22.2344C52.6038 20.9293 51.9518 19.858 51.3678 19.0204C51.0174 18.6016 50.8909 18.3095 50.9882 18.1439C51.105 18.0075 51.3094 17.9491 51.6208 17.9686C51.8739 17.9881 52.1172 18.0173 52.3508 18.0368C53.4019 18.2023 54.2389 18.4653 54.8618 18.8354L54.852 18.8549ZM67.5918 37.7102C68.1757 38.4601 68.8473 39.1906 69.6161 39.9113C70.385 40.6125 71.1928 41.2748 72.059 41.8981C72.5748 42.3169 73.0809 42.648 73.5967 42.8721C74.0639 43.1058 74.7938 43.5733 75.7962 44.2648C76.5651 44.781 77.1588 45.1705 77.5773 45.453C77.879 45.6575 78.1126 45.8523 78.278 46.0081C78.3753 46.0958 78.4045 46.2126 78.3851 46.3587C78.2878 46.5243 78.0639 46.7093 77.6843 46.9139C77.1491 47.1476 76.7695 47.2937 76.5359 47.3716C75.9325 47.5372 75.4069 47.5664 74.969 47.4788C74.5018 47.3814 74.0931 47.3424 73.7524 47.3424C73.149 47.3911 72.5359 47.4495 71.9033 47.5177C71.5042 47.5372 71.1247 47.469 70.7548 47.3132C70.385 47.1087 70.0249 46.8457 69.6745 46.5438C69.1392 46.1932 68.6137 45.8036 68.1076 45.3556C67.4361 44.8199 66.8132 44.2648 66.2584 43.6804C65.8886 43.2811 65.4604 42.7747 64.964 42.1416C64.8278 42.278 64.6818 42.3948 64.5455 42.4922C63.4555 43.3103 62.054 43.9336 60.3606 44.3816C60.0589 44.4985 59.8642 44.557 59.7669 44.557C59.582 44.557 59.4165 44.5667 59.2803 44.5959C59.0272 44.6446 58.7839 44.6154 58.5504 44.5277C58.3168 44.4401 58.0248 44.4011 57.6744 44.4206C57.3435 44.4693 57.1002 44.3427 56.9445 44.0408C56.7304 43.6902 56.7304 43.5051 56.9445 43.4856C57.4992 43.4175 58.0735 43.3006 58.6574 43.135C59.3095 42.95 59.9226 42.5993 60.5066 42.0832C61.3922 41.2261 62.1806 40.2522 62.8813 39.1808C62.5309 38.6257 62.1708 38.0511 61.801 37.4667C60.127 34.8176 59.1148 33.2983 58.7645 32.9282C58.2486 32.4607 57.9469 32.1101 57.8593 31.8763C57.655 31.4381 57.5382 30.9901 57.509 30.5518C57.509 30.0356 57.6647 29.8311 57.9664 29.9187C58.2681 29.9187 58.5698 29.909 58.8715 29.8798C59.1051 29.8603 59.2316 29.8603 59.2511 29.8798C59.3679 29.948 59.5041 29.9967 59.6696 30.0161C59.7182 30.0161 59.7766 30.0259 59.8448 30.0551C60.2438 29.3539 60.6136 28.5065 60.964 27.5034C61.0808 27.0359 61.2073 26.5879 61.3436 26.1399C61.2754 26.0035 61.2852 25.9159 61.3825 25.8964C61.5966 25.0588 61.801 24.1433 62.0151 23.1402C62.2973 21.6695 62.4239 20.1599 62.3947 18.6016C62.4141 17.9978 62.3947 17.579 62.3265 17.3453C62.2292 16.9947 62.2 16.6733 62.2195 16.3713C62.2681 16.1181 62.3363 15.8844 62.4239 15.6701C62.5115 15.5045 62.6477 15.4753 62.8034 15.563C63.0857 15.7285 63.3387 15.8552 63.5723 15.9428C63.8059 16.0305 64.0686 16.1181 64.3801 16.1863C64.7499 16.2545 65.1781 16.4395 65.6745 16.7414C66.1417 16.9947 66.5504 17.2966 66.8911 17.6472C67.1246 17.8517 67.3485 18.2218 67.5529 18.7283C67.6697 19.0302 67.6113 19.4782 67.3777 20.0528C67.1733 20.4229 66.8229 21.4455 66.3266 23.1304C66.1611 23.5492 66.0346 23.9485 65.947 24.3186C66.1806 24.2018 66.4434 24.0946 66.7451 24.007C68.3704 23.3739 69.7232 22.7409 70.7938 22.0883C71.0273 21.9033 71.222 21.8546 71.3874 21.952C71.7086 22.0883 72.1563 22.176 72.7111 22.1955C73.0614 22.1955 73.4215 22.3026 73.7914 22.5071C74.0249 22.6435 74.1709 22.8577 74.2488 23.1402C74.2974 23.3739 74.1709 23.8901 73.8692 24.679C73.7719 24.9322 73.4021 25.1465 72.75 25.3023C71.4458 25.7016 70.3266 26.0522 69.402 26.3541C69.4896 26.4905 69.5577 26.6463 69.5772 26.8119C69.5967 27.0456 69.5383 27.2989 69.402 27.5813C69.2171 27.8345 69.1101 28.078 69.0906 28.3118C68.9543 29.3636 68.8473 30.6589 68.7791 32.227C68.6818 33.8145 68.3217 35.587 67.6988 37.5739C67.6794 37.5933 67.6502 37.642 67.6307 37.7102H67.5918ZM65.1781 27.8637C64.9446 27.9319 64.6915 28.0001 64.4093 28.0683C64.1562 28.5358 63.9129 28.9448 63.6793 29.2857C63.329 29.7532 62.9494 30.2012 62.5309 30.6492C62.3947 30.7855 62.1027 31.0095 61.655 31.3115C62.3265 31.8958 63.2025 32.7821 64.273 33.9703C64.3898 34.1067 64.5163 34.2527 64.6526 34.3891C65.0711 32.4315 65.2463 30.2596 65.1781 27.8637Z" stroke="#3E220E" stroke-width="3.89573"/>
<path d="M84.5459 29.0816C86.0544 28.4291 86.9303 27.9324 87.1639 27.5817C87.3488 27.4162 87.631 27.387 88.0009 27.4746C90.1907 28.0103 91.3586 28.3609 91.524 28.5265C91.7284 28.7115 91.8257 28.994 91.8063 29.364C91.8063 29.7147 91.6992 30.0068 91.4948 30.2406C91.2904 30.4743 90.9595 31.234 90.5216 32.5099C90.1712 33.4838 89.9182 34.224 89.7527 34.7109C89.3829 35.7628 88.9741 36.5712 88.5362 37.1555C87.7965 38.1781 86.9984 39.0157 86.1614 39.6683C85.3926 40.3208 84.3025 40.9344 82.8816 41.5187C82.5312 41.6551 82.3074 41.6843 82.2198 41.5869C82.1225 41.4895 82.3366 41.1194 82.8524 40.4669C83.6699 39.4443 84.2247 38.6067 84.5264 37.9541C85.159 36.8341 85.6943 35.8504 86.1322 34.9836C86.6189 34.0292 87.0179 32.9968 87.3196 31.8768C87.4364 31.4093 87.4461 31.1658 87.3585 31.1463C87.2904 31.1463 87.1152 31.195 86.833 31.2827C85.996 31.8184 85.0811 32.2371 84.0787 32.5391C83.7283 32.6559 83.4072 32.7241 83.1055 32.7533C82.6383 32.8215 82.2685 32.7923 81.9862 32.6462C81.6845 32.4806 81.3925 32.2469 81.1103 31.945C80.7891 31.5457 80.575 31.2048 80.4777 30.8931C80.4096 30.6399 80.4777 30.4938 80.6821 30.4743C80.8962 30.4549 81.1103 30.4354 81.3439 30.4354C81.7137 30.3185 82.7843 29.8608 84.5556 29.0719L84.5459 29.0816ZM91.563 17.1022C91.6116 16.7029 91.6408 16.4984 91.67 16.4692C91.7187 16.4692 91.8549 16.4789 92.0885 16.5081C92.3707 16.5568 92.5751 16.5471 92.7211 16.4692C93.0033 16.3328 93.2953 16.2646 93.597 16.2646C93.7625 16.2841 94.1518 16.44 94.7844 16.7224C95.3683 17.0048 95.9815 17.4334 96.6336 18.0177C96.9547 18.3002 97.1883 18.5534 97.3343 18.7871C97.4997 18.9917 97.5679 19.1864 97.5387 19.3423C97.5192 19.5273 97.4608 19.8098 97.3635 20.1799C97.0618 21.3681 96.8963 23.6471 96.8769 27.0266V27.4454C96.9742 27.5428 97.0326 27.6304 97.0521 27.7278C97.2175 27.9616 97.344 28.2635 97.4316 28.6336C98.4535 27.611 99.4657 26.4715 100.468 25.2151C101.539 23.8418 102.113 22.8971 102.181 22.3907C102.278 21.9914 102.473 21.8063 102.775 21.8355C103.057 21.8842 103.349 21.9914 103.651 22.1472C103.972 22.3322 104.39 22.6731 104.906 23.1601C105.461 23.6763 105.821 24.1145 105.986 24.4846C106.191 24.9716 106.113 25.3709 105.743 25.6728C104.274 26.8416 103.047 27.6402 102.045 28.0785C100.721 28.6823 99.3586 29.2277 97.9669 29.7244C98.3367 30.2601 98.8817 30.9613 99.6019 31.8184C100.77 33.2111 102.366 34.7499 104.42 36.4251C105.811 37.5646 107.641 38.6748 109.899 39.7462C110.415 39.9507 110.921 40.1747 111.437 40.4084C111.787 40.574 112.147 40.7591 112.517 40.9636C112.867 41.1973 113.004 41.3921 112.935 41.5577C112.887 41.694 112.536 41.8693 111.884 42.0836C111.417 42.2492 110.931 42.3758 110.415 42.4634C110.045 42.5121 109.743 42.5803 109.51 42.668C108.926 42.9894 108.322 43.301 107.699 43.5737C107.417 43.6906 107.106 43.7393 106.755 43.7101C106.473 43.6906 106.084 43.525 105.568 43.2231C104.78 42.8043 103.816 42.0933 102.668 41.0902C100.877 39.5027 99.271 37.7301 97.8501 35.7433C97.5679 35.3245 97.3148 34.9642 97.0812 34.6622C97.1299 35.2661 97.1883 35.8991 97.2564 36.5517C97.5581 40.0189 97.49 42.4829 97.0521 43.9536C96.8671 44.9762 96.4584 45.8722 95.8355 46.6416C95.4657 47.0409 95.0569 47.3721 94.6189 47.6545C94.2199 47.9077 93.9085 48.122 93.6749 48.2876C93.49 48.5213 93.3245 48.6479 93.1883 48.6674C93.0034 48.7161 92.8087 48.6577 92.5946 48.4921C92.4097 48.3557 92.2442 48.0928 92.108 47.7227C91.8744 47.0701 91.5046 46.4858 90.9887 45.9793C90.4048 45.4437 89.9279 45.0931 89.5581 44.9275C89.305 44.7619 89.159 44.6743 89.1396 44.6451C89.1396 44.5769 89.2856 44.5087 89.597 44.4308C90.3172 44.499 91.0277 44.5477 91.7284 44.5671C92.1664 44.499 92.3999 44.4308 92.4291 44.3626C92.4973 44.2457 92.5362 44.0023 92.5362 43.6322C92.7211 28.0103 92.6238 19.839 92.254 19.1183C91.7868 18.1443 91.563 17.4626 91.5921 17.0925L91.563 17.1022Z" stroke="#3E220E" stroke-width="3.89573"/>
<path d="M127.748 47.5958C127.31 47.7809 127.008 47.8588 126.843 47.8393C126.609 47.8393 126.444 47.7711 126.356 47.625C126.24 47.4887 126.045 47.2257 125.763 46.8556C125.432 46.4563 125.189 46.0862 125.033 45.7356C124.916 45.4824 124.789 45.2097 124.653 44.9273C124.585 44.7227 124.498 44.4598 124.41 44.1578C124.361 43.9046 124.39 43.7001 124.478 43.5637C124.644 43.3982 124.77 43.3203 124.858 43.3203C124.994 43.3884 125.208 43.4371 125.49 43.4566C125.772 43.5248 126.084 43.554 126.434 43.5248C127.135 43.3397 127.865 43.2034 128.634 43.106C128.517 42.9404 128.381 42.8723 128.215 42.9015C127.982 42.9209 127.69 42.8917 127.339 42.7943C127.086 42.6969 126.97 42.4729 126.989 42.0931C127.008 41.6548 127.106 41.275 127.271 40.9731C127.437 40.603 127.807 40.0868 128.39 39.4343C128.089 38.8986 127.758 38.1292 127.417 37.126C126.863 35.5872 126.532 34.4964 126.444 33.8439C126.376 33.4738 126.308 33.1816 126.24 32.9674C126.172 32.7628 126.133 32.607 126.133 32.5096C125.646 32.8115 125.12 33.1037 124.566 33.3861C124.128 33.6004 123.894 33.6588 123.865 33.5615C123.816 33.4933 123.943 33.279 124.244 32.9284C125.081 31.9252 125.85 30.7955 126.551 29.5391C126.853 28.984 127.125 28.4483 127.359 27.9321C127.242 27.8639 127.135 27.7763 127.047 27.6886C126.678 27.3185 126.317 26.9095 125.967 26.4712C125.948 26.5199 125.918 26.5784 125.899 26.6465C125.665 27.1627 125.296 27.6984 124.78 28.2535C124.147 28.9255 123.69 29.3443 123.388 29.5099C123.086 29.6755 122.892 29.8021 122.794 29.8897C122.658 30.0261 122.444 30.1429 122.162 30.2403C121.996 30.3085 121.841 30.3962 121.675 30.4838C121.607 31.6525 121.5 32.8018 121.364 33.9413C121.48 33.9413 121.549 33.951 121.568 33.9802C122.22 34.0971 122.862 34.3601 123.485 34.7789C124.459 35.4314 125.033 36.045 125.198 36.6293C125.266 37.0481 125.257 37.4085 125.159 37.7104C125.062 38.0318 124.916 38.3727 124.702 38.7233C124.536 38.957 124.342 39.1031 124.108 39.181C123.875 39.2492 123.553 39.0057 123.135 38.4506C122.395 37.5448 121.724 36.532 121.15 35.4119C120.897 36.8047 120.546 38.2169 120.098 39.6388C119.563 41.2945 118.755 42.6093 117.695 43.5832C116.692 44.489 115.865 45.0636 115.213 45.2973C114.843 45.4629 114.609 45.5116 114.512 45.4337C114.347 45.346 114.444 45.1123 114.794 44.7325C115.232 44.0994 115.709 43.3008 116.225 42.3269C116.848 41.1387 117.412 39.483 117.899 37.3695C118.415 35.2074 118.697 33.2401 118.775 31.4675C118.843 29.9774 118.882 28.5944 118.882 27.3088C118.882 25.6336 118.872 24.0461 118.843 22.556C118.824 21.7866 118.775 21.0756 118.707 20.4231C118.658 19.868 118.522 19.4297 118.288 19.1278C118.191 18.7577 118.132 18.5239 118.113 18.4265C118.094 18.2902 118.094 18.1733 118.113 18.0759C118.181 17.9883 118.298 17.9688 118.463 18.037C118.697 18.1051 118.862 18.0564 118.95 17.9006C119.067 17.7156 119.378 17.7058 119.894 17.8617C120.731 18.1636 121.373 18.5045 121.811 18.8745C122.133 19.1765 122.22 19.6926 122.055 20.4134C121.987 20.8516 121.938 21.3678 121.918 21.9522C121.87 22.7898 121.841 24.8155 121.811 28.0295C121.792 28.4678 121.763 28.9353 121.743 29.4222C122.181 28.8184 122.522 28.2925 122.755 27.8542C123.154 27.0653 123.398 26.4128 123.485 25.8966C123.505 25.5947 123.407 25.3317 123.174 25.098C122.853 24.7474 122.794 24.5623 122.999 24.5428C123.164 24.5234 123.252 24.4357 123.281 24.2994C123.33 24.1825 123.505 24.1143 123.807 24.0948C124.244 24.0461 124.682 24.0753 125.101 24.163C125.471 24.2604 125.743 24.387 125.909 24.5428C126.074 24.7279 126.162 24.9421 126.191 25.1759C126.493 25.1077 126.833 25.1077 127.203 25.1759C127.738 25.2441 128.108 25.3999 128.322 25.6336C128.76 24.3578 129.062 23.228 129.227 22.2444C129.344 21.9911 129.335 21.845 129.189 21.8256C128.468 21.923 127.816 22.0106 127.232 22.108C127.067 22.108 126.872 22.0301 126.639 21.8645C126.337 21.6308 126.142 21.3678 126.045 21.0659C125.977 20.8808 125.948 20.7542 125.977 20.6861C125.996 20.5692 126.133 20.501 126.356 20.4815C127.193 20.2478 128.069 19.9556 128.974 19.605C129.325 19.4686 129.617 19.2836 129.85 19.0499C130.035 18.7966 130.201 18.6505 130.337 18.6311C130.454 18.5824 130.658 18.5726 130.97 18.5921C131.456 18.6408 131.943 18.67 132.439 18.6992C132.79 18.7187 133.033 18.8356 133.169 19.0499C133.237 19.2154 133.266 19.3713 133.237 19.5368C133.169 19.6537 133.12 19.7608 133.101 19.8485C133.802 19.2641 134.366 18.7577 134.814 18.3097C135.515 17.6377 135.904 17.1604 136.001 16.878C136.215 16.4787 136.4 16.3521 136.556 16.4982C136.76 16.5955 137.091 16.6345 137.529 16.6345C138.084 16.615 138.522 16.7514 138.824 17.0533C139.223 17.3552 139.427 17.6571 139.456 17.959C139.456 18.0759 139.447 18.1831 139.417 18.2707C139.349 18.3876 139.301 18.5239 139.281 18.6895C139.262 18.9232 139.057 19.157 138.687 19.3907C137.802 19.829 136.945 20.1699 136.108 20.4036C135.339 20.6374 134.629 20.8029 133.977 20.8906C134.415 21.3581 134.999 21.9814 135.719 22.78C135.923 23.0332 136.138 23.2767 136.352 23.5105C137.169 23.0235 137.86 22.556 138.444 22.1177C139.33 21.4847 139.855 21.0269 140.011 20.725C140.264 20.3549 140.478 20.2381 140.634 20.3744C140.867 20.5108 141.208 20.6179 141.646 20.6861C142.23 20.7348 142.658 20.9393 142.94 21.3191C143.291 21.6697 143.456 22.0203 143.427 22.371C143.408 22.4878 143.378 22.595 143.359 22.6826C143.291 22.7995 143.223 22.9358 143.155 23.1014C143.135 23.3352 142.902 23.5299 142.454 23.6955C141.383 24.0461 140.381 24.2994 139.456 24.4649C138.717 24.5818 138.045 24.65 137.471 24.6792C138.561 25.7992 139.748 26.8608 141.033 27.8542C142.639 29.1301 143.797 29.8897 144.527 30.1235C145.364 30.4449 146.026 30.7857 146.512 31.1364C146.979 31.4578 147.33 31.7986 147.563 32.1493C147.661 32.3148 147.515 32.5291 147.145 32.8115C146.59 33.2108 145.948 33.4543 145.228 33.542C144.488 33.7075 143.865 33.8634 143.378 34.0289C142.892 34.214 142.464 34.2627 142.084 34.1653C141.666 34.0484 141.169 33.766 140.585 33.3277C139.748 32.6947 138.775 31.7499 137.656 30.4643C136.721 29.4125 136.001 28.4288 135.495 27.4939V27.601C135.476 27.7373 135.447 27.8834 135.427 28.0198C135.378 28.234 135.31 28.4386 135.223 28.6528C135.125 28.8379 135.038 29.0034 134.94 29.1398C134.824 29.2761 134.522 29.4612 134.035 29.6949C133.549 29.9482 133.091 30.1527 132.673 30.289C132.254 30.4254 131.972 30.4936 131.836 30.4936C131.505 30.591 131.3 30.6494 131.203 30.6689C130.901 30.7663 130.395 30.3183 129.704 29.3443C129.607 29.2275 129.529 29.1203 129.461 29.0327C129.159 29.5196 128.828 30.0261 128.488 30.5325C128.167 30.9708 127.583 31.487 126.746 32.0713C126.629 32.12 126.561 32.1785 126.541 32.2466H126.58C127.047 32.383 127.466 32.4414 127.836 32.422C128.05 32.3733 128.235 32.422 128.39 32.5583C130.279 31.9739 131.875 31.5844 133.208 31.3701C133.86 31.2532 134.376 31.0779 134.746 30.8442C135.096 30.6397 135.7 30.7565 136.556 31.1948C137.51 31.6818 138.172 32.1006 138.541 32.4512C138.843 32.7044 138.96 32.9868 138.892 33.2888C138.824 33.7757 138.6 34.3796 138.23 35.1003C137.763 35.7723 137.276 36.3664 136.76 36.8826C136.741 36.9507 136.721 37.0384 136.721 37.126C136.702 37.1747 136.683 37.204 136.683 37.2332C136.867 37.3306 137.043 37.4182 137.208 37.5156C137.558 37.7201 137.812 37.9442 137.977 38.1779C138.113 38.4311 138.172 38.6746 138.152 38.9083C138.103 39.0739 138.035 39.22 137.948 39.3661C137.812 39.4635 137.724 39.5901 137.704 39.7459C137.49 40.2621 137.13 40.8367 136.624 41.4893C136.322 41.8594 135.992 42.2392 135.651 42.6093C135.972 42.6093 136.284 42.619 136.556 42.6482C136.975 42.6969 137.296 42.6677 137.529 42.5801C137.763 42.2976 137.948 42.171 138.084 42.2002C138.249 42.2002 138.551 42.3755 138.989 42.7262C139.388 43.0476 139.875 43.33 140.459 43.5637C140.829 43.7001 141.062 43.9241 141.159 44.226C141.228 44.4305 141.305 44.7227 141.403 45.1026C141.471 45.424 141.442 45.7064 141.296 45.9401C141.159 46.1934 140.984 46.4271 140.77 46.6414C140.537 46.8264 140.284 47.0212 140.001 47.2355C139.836 47.3523 139.68 47.401 139.515 47.3718C139.378 47.3231 139.223 47.2647 139.057 47.1965C137.773 46.9433 136.498 46.8264 135.223 46.8459C133.481 46.8654 131.758 46.9822 130.055 47.1965C128.936 47.3621 128.196 47.4887 127.826 47.5763L127.748 47.5958ZM114.561 26.9874C114.697 26.9387 114.989 27.0653 115.437 27.3672C116.069 27.7373 116.624 28.273 117.111 28.9742C117.831 30.0456 118.181 30.9026 118.162 31.5552C118.094 31.9545 117.977 32.2661 117.811 32.4999C117.626 32.7531 117.393 32.9966 117.111 33.2303C116.906 33.4154 116.682 33.4933 116.449 33.4738C116.196 33.4543 115.982 33.1524 115.816 32.568C115.232 31.0292 114.804 29.3443 114.522 27.5036C114.473 27.1822 114.483 27.0069 114.561 26.9777V26.9874ZM130.23 39.0739C130.23 39.0739 130.181 39.1226 130.162 39.1421C130.113 39.259 130.084 39.3856 130.055 39.5219C129.821 40.1745 129.627 41.1387 129.461 42.4242C129.393 42.6775 129.305 42.882 129.218 43.0183C129.957 42.882 130.726 42.7943 131.524 42.7749C131.846 42.4048 132.167 42.0055 132.468 41.5867C133.072 40.6517 133.519 39.7362 133.792 38.8304C133.86 38.4603 133.889 38.2266 133.86 38.1292C132.653 38.3337 131.437 38.6551 130.23 39.0739ZM131.281 34.214C130.512 34.4672 129.938 34.7107 129.568 34.9444C129.704 35.6652 129.821 36.3079 129.918 36.8631C130.22 36.7267 130.58 36.5806 130.999 36.4443C131.719 36.1911 132.468 35.9768 133.228 35.8112C133.412 35.5288 133.549 35.3438 133.646 35.2561C133.899 34.7691 134.113 34.3016 134.279 33.8634C134.327 33.6491 134.337 33.542 134.318 33.5128C134.298 33.3959 134.142 33.3764 133.86 33.4446C133.004 33.6783 132.137 33.9316 131.281 34.214ZM131.203 24.9616C130.97 25.6823 130.678 26.442 130.327 27.2309C130.746 27.0166 131.271 26.8121 131.894 26.5978C132.079 26.481 132.254 26.4128 132.42 26.3933C132.624 26.3446 132.848 26.3349 133.082 26.3544C133.481 26.4225 133.86 26.4225 134.23 26.3544C134.444 26.3057 134.629 26.3154 134.785 26.3933C134.386 25.7408 133.909 24.9811 133.354 24.124C132.867 23.3839 132.439 22.7508 132.06 22.2346V22.3028C131.777 23.1404 131.485 24.0267 131.184 24.9519L131.203 24.9616Z" stroke="#3E220E" stroke-width="3.89573"/>
<path d="M152.809 28.808C152.575 28.6424 152.429 28.5548 152.351 28.5255C152.215 28.4379 152.128 28.3405 152.108 28.2431C152.059 28.1068 152.118 27.9996 152.283 27.9314C152.42 27.8828 152.488 27.7561 152.488 27.5516C152.488 27.3471 152.536 27.201 152.624 27.1328C152.76 27.016 152.984 26.9088 153.286 26.8212C154.103 26.6166 154.901 26.5192 155.69 26.5387C156.128 26.5582 156.497 26.6556 156.77 26.8212C157.023 26.9867 157.198 27.1815 157.296 27.4153C157.461 27.7854 157.49 28.1847 157.403 28.6035C157.305 28.9054 157.296 29.2657 157.364 29.6845C157.5 30.7559 157.49 32.1096 157.325 33.7361C157.909 33.4147 158.444 33.2004 158.931 33.103C159.116 33.103 159.242 33.0251 159.31 32.8596C159.476 32.6258 159.631 32.5479 159.797 32.6161C160.4 32.8206 160.994 33.0154 161.578 33.1712C162.366 33.405 162.882 33.6679 163.116 33.9796C163.3 34.2133 163.359 34.749 163.291 35.5866C163.008 36.7553 162.824 37.8948 162.736 39.0051C162.639 40.0082 162.444 40.8555 162.142 41.5568C161.909 42.1411 161.442 42.6865 160.751 43.2027C160.196 43.7189 159.699 44.0208 159.281 44.1085C159.067 44.1572 158.901 44.128 158.755 44.0403C158.502 43.8358 158.327 43.5728 158.23 43.2709C157.763 42.3164 157.315 41.6931 156.867 41.3815C156.634 41.2646 156.517 41.138 156.517 41.0016C156.517 40.8653 156.634 40.8068 156.867 40.8263C157.5 41.0114 158.171 41.099 158.892 41.0698C159.125 41.0893 159.271 40.9529 159.349 40.651C159.602 39.5115 159.768 38.5084 159.836 37.6513C159.884 37.0182 159.894 36.317 159.875 35.5184C159.875 35.3528 159.836 35.2652 159.768 35.2359C159.232 35.4405 158.687 35.7716 158.123 36.2099C157.471 36.7455 156.994 37.2033 156.692 37.5734C156.459 38.4304 156.225 39.3167 155.991 40.2322C155.66 41.3036 155.213 42.0924 154.629 42.6086C154.376 42.9592 154.025 43.3196 153.578 43.6897C153.227 43.9916 152.867 44.1767 152.497 44.2448C152.244 44.2935 151.962 44.4007 151.66 44.5565C151.544 44.6052 151.437 44.6149 151.349 44.5954C151.232 44.5273 151.213 44.3714 151.281 44.1377C152.283 42.2093 152.955 40.0374 153.305 37.6416C153.656 35.0606 153.675 32.6453 153.373 30.415C153.257 29.5092 153.062 28.9736 152.78 28.808H152.809ZM163.174 27.688C162.824 27.9217 162.502 28.1847 162.201 28.4963C161.831 28.7301 161.49 28.8567 161.189 28.8762C160.867 28.8762 160.449 28.7009 159.933 28.3502C159.184 27.8341 158.697 27.4445 158.463 27.162C158.162 26.8406 157.928 26.5192 157.763 26.2173C157.626 25.9349 157.568 25.7498 157.588 25.6622C157.607 25.5258 157.763 25.4382 158.045 25.4187C158.444 25.3505 158.824 25.1947 159.193 24.961C159.68 24.7564 160.322 24.4058 161.111 23.9091C161.393 23.7046 161.646 23.5487 161.88 23.4514C161.529 22.1755 161.237 20.9581 161.004 19.8186C160.819 18.6109 160.546 17.6759 160.196 17.0234C159.943 16.4683 159.952 16.1858 160.235 16.1858C160.439 16.1858 160.556 16.0495 160.585 15.767C160.634 15.5333 160.828 15.4651 161.179 15.5625C162.736 16.1663 163.699 16.5364 164.079 16.6825C164.429 16.8189 164.79 17.15 165.159 17.6565C165.51 18.2116 165.675 18.8447 165.646 19.5459C165.627 20.1497 165.627 20.812 165.646 21.5327C165.734 21.4645 165.802 21.4158 165.821 21.3964C165.889 21.3477 166.006 21.3379 166.172 21.3574C166.405 21.4256 166.707 21.4548 167.077 21.4256C167.446 21.4061 167.709 21.4353 167.846 21.5327C168.05 21.6496 168.245 21.7859 168.4 21.9515C168.556 22.1171 168.692 22.3313 168.78 22.6138C168.848 22.828 168.887 23.0813 168.887 23.3832C168.906 23.6851 168.906 23.9188 168.887 24.0844C168.838 24.2987 168.682 24.4448 168.4 24.5422C168.099 24.659 167.777 24.7954 167.427 24.961C167.009 25.146 166.609 25.3603 166.24 25.594C166.678 27.6198 167.291 29.5871 168.05 31.496C168.118 31.7298 168.225 31.9927 168.361 32.2947C168.566 31.5253 168.76 30.8143 168.916 30.1618C169.052 29.4897 169.14 28.993 169.159 28.6911C169.111 28.321 169.082 28.0191 169.052 27.7854C168.955 27.4153 169.033 27.1523 169.257 27.016C169.471 26.8796 169.831 26.8893 170.337 27.0549C170.872 27.2205 171.388 27.4737 171.875 27.8243C172.274 28.1457 172.585 28.4574 172.819 28.7301C173.101 29.0515 173.228 29.3729 173.198 29.6748C173.179 30.0936 173.013 30.6292 172.712 31.2818C172.507 31.7006 172.118 32.5187 171.563 33.7264C171.193 34.5639 170.756 35.382 170.269 36.1709C170.639 36.7748 171.009 37.3883 171.388 38.0214C172.712 40.2322 173.831 41.8003 174.736 42.7352C175.271 43.2709 175.583 43.5533 175.68 43.5728C175.865 43.5533 176.099 43.3196 176.381 42.8716C176.595 42.4723 176.838 42.034 177.111 41.547C177.413 40.914 177.685 40.2907 177.919 39.6576C178.006 39.3557 178.104 39.2193 178.201 39.2388C178.366 39.2583 178.454 39.4239 178.483 39.7258C178.649 40.3588 178.717 41.2354 178.687 42.3749C178.619 43.5144 178.571 44.2351 178.551 44.537C178.532 44.8876 178.561 45.209 178.658 45.5109C178.795 45.9297 178.746 46.2511 178.522 46.4849C178.22 46.7868 178.055 47.1569 178.035 47.6049C177.967 47.9555 177.812 48.2087 177.578 48.3743C177.296 48.5107 176.945 48.5691 176.527 48.5496C176.011 48.5496 175.359 48.2964 174.571 47.7802C173.568 47.1277 172.585 46.2316 171.602 45.0921C170.249 43.602 168.984 41.6931 167.797 39.3654C167.544 39.6186 167.262 39.8621 166.96 40.0959C166.658 40.3296 166.288 40.5926 165.841 40.8945C165.588 41.099 165.266 41.2938 164.897 41.4496C164.595 41.586 164.293 41.6931 163.991 41.7613C163.69 41.8295 163.456 41.8782 163.291 41.8976C163.106 41.9171 162.97 41.849 162.872 41.6931C162.824 41.5276 162.921 41.3425 163.154 41.138C163.408 40.9335 163.622 40.7387 163.787 40.5828C164.721 39.531 165.568 38.3525 166.337 37.0182C166.405 36.8527 166.473 36.7261 166.551 36.6384C165.665 34.6126 164.76 32.2654 163.826 29.5871C163.592 28.8859 163.369 28.2528 163.164 27.6685L163.174 27.688ZM168.653 17.9097C168.702 17.7928 168.77 17.7441 168.867 17.7733C168.984 17.7928 169.266 17.7636 169.704 17.6662C170.541 17.5493 171.281 17.6759 171.933 18.046C172.605 18.4453 173.023 18.9907 173.189 19.6822C173.325 20.1984 173.315 20.7049 173.15 21.2211C172.897 21.8736 172.546 22.2437 172.099 22.3411C171.651 22.4385 171.213 22.3021 170.775 21.9612C170.259 21.523 169.928 21.075 169.763 20.6367C169.529 20.0815 169.266 19.468 168.965 18.8154C168.731 18.2993 168.624 17.9973 168.653 17.9097Z" stroke="#3E220E" stroke-width="3.89573"/>
<path d="M189.306 27.6205C188.936 27.5231 188.527 27.4355 188.089 27.3381C187.719 27.1725 187.388 26.9582 187.116 26.6758C186.814 26.3739 186.542 26.1109 186.308 25.8772C186.006 25.5753 185.87 25.3026 185.89 25.0688C185.909 24.8156 185.88 24.5332 185.783 24.2312C185.598 23.6956 185.549 23.3839 185.646 23.2865C185.831 23.2183 186.113 23.267 186.483 23.4229C187.223 23.6079 188.167 23.4131 189.306 22.8288C190.814 22.0107 192.177 21.4847 193.384 21.2607C193.734 21.1731 194.094 21.2023 194.464 21.3679C194.697 21.4847 194.931 21.6114 195.165 21.7477C195.486 21.9328 195.7 22.1081 195.797 22.2736C195.933 22.5269 195.972 22.8288 195.904 23.1794C195.836 23.4326 195.787 23.6469 195.768 23.8124C195.719 24.0462 195.69 24.2312 195.661 24.3676C195.641 24.5039 195.583 24.6111 195.486 24.6792C194.95 25.0493 194.435 25.4194 193.948 25.7993C193.646 26.0135 193.345 26.2278 193.043 26.4615C192.907 26.5297 192.79 26.6174 192.693 26.705C192.712 26.8901 192.693 27.0849 192.624 27.2991C192.556 27.5816 192.517 27.903 192.517 28.2731C192.469 29.5781 192.459 30.6787 192.478 31.5942C192.478 32.7629 192.469 33.6686 192.439 34.3212C192.508 34.253 192.595 34.2043 192.683 34.1848C193.286 33.9316 194.016 33.6492 194.882 33.3472C195.418 33.1135 195.729 33.0648 195.826 33.2109C195.895 33.3278 195.778 33.6297 195.476 34.1167C194.873 35.3535 194.143 36.3664 193.276 37.1553C192.342 38.0416 190.804 39.0837 188.634 40.3011C188.079 40.5836 187.68 40.7102 187.447 40.681C187.194 40.6615 186.911 40.5446 186.61 40.3303C186.006 39.9116 185.393 39.2688 184.761 38.4117C184.323 37.8079 184.323 37.3891 184.761 37.1553C185.014 36.9898 185.354 36.8631 185.773 36.7755C186.746 36.5417 187.875 36.1717 189.16 35.6555C189.296 35.5678 189.452 35.4996 189.617 35.4802V35.1977C189.549 33.8732 189.51 32.8895 189.51 32.2662C189.51 30.8735 189.461 29.4613 189.374 28.0393C189.354 27.8543 189.325 27.7179 189.306 27.6205ZM197.228 40.2232C196.508 40.9926 196.011 41.4893 195.729 41.7231C195.427 41.9276 195.155 42.1516 194.931 42.3853C194.697 42.5899 194.376 42.8041 193.958 43.0184C193.656 43.1547 193.354 43.2619 193.053 43.3301C192.77 43.4275 192.556 43.4859 192.391 43.5054C192.089 43.5735 191.894 43.5248 191.797 43.369C191.7 43.184 191.778 43.0087 192.002 42.8431C192.235 42.6775 192.469 42.4633 192.702 42.1808C194.357 40.155 195.846 37.9053 197.169 35.4412C198.425 33.1622 199.379 30.7955 200.031 28.351C200.031 28.2341 200.041 28.1659 200.07 28.1367C199.788 28.1854 199.534 28.1757 199.301 28.0977C198.863 27.9809 198.24 27.2504 197.452 25.8967C197.247 25.4973 197.15 25.1565 197.169 24.8448C197.238 24.4747 197.354 24.2994 197.52 24.3189C197.773 24.3384 198.006 24.3091 198.221 24.2118C199.058 23.9585 200.05 23.7248 201.189 23.5105C201.238 23.1891 201.296 22.8677 201.364 22.5658C201.598 21.1926 201.705 20.2965 201.676 19.8778C201.656 19.644 201.52 19.381 201.296 19.0694C201.111 18.7869 201.062 18.5824 201.16 18.4363C201.257 18.3195 201.627 18.3682 202.279 18.5727C203.281 18.8941 204.031 19.2155 204.547 19.5174C204.985 19.7511 205.393 20.1505 205.763 20.7056C206.084 21.1244 206.299 21.5237 206.396 21.8938C206.445 22.0983 206.386 22.3905 206.221 22.7703C206.805 22.6535 207.408 22.5853 208.031 22.5658C208.264 22.4976 208.459 22.3808 208.625 22.2152C208.79 22.0496 209.121 22.0886 209.637 22.3223C210.153 22.5561 210.698 22.819 211.282 23.1209C211.7 23.3547 212.196 23.715 212.78 24.202C213.179 24.5526 213.423 24.9812 213.51 25.4973C213.559 25.8187 213.432 26.1596 213.131 26.5102C212.829 27.0264 212.644 27.5329 212.576 28.049C212.479 29.1204 212.265 31.1656 211.914 34.1946C211.466 38.178 210.678 40.9829 209.539 42.6093C209.17 43.2619 208.771 43.6709 208.352 43.8268C207.632 44.1482 206.99 44.4988 206.435 44.8786C206.036 45.1124 205.491 45.1124 204.8 44.8786C204.167 44.4793 203.505 43.856 202.814 42.9892C202.094 42.0834 201.491 41.129 201.004 40.1258C200.79 39.7557 200.878 39.6096 201.247 39.707C202.152 39.9603 202.902 40.0771 203.476 40.0576C204.031 40.0576 204.527 39.9797 204.946 39.8142C205.481 39.6973 205.861 39.3564 206.094 38.8013C206.999 36.7755 207.593 34.74 207.875 32.6947C208.177 30.4839 208.333 28.3218 208.333 26.1986C208.381 25.4973 208.177 25.1954 207.739 25.2928C206.921 25.4779 205.948 25.7603 204.809 26.1304C204.761 26.1304 204.741 26.1401 204.741 26.1694C204.576 26.52 204.449 26.9193 204.362 27.3576C203.389 30.5228 202.337 33.0258 201.218 34.8666C199.982 36.9411 198.668 38.7234 197.277 40.2135L197.228 40.2232Z" stroke="#3E220E" stroke-width="3.89573"/>
<path d="M223.652 42.385C224.07 42.872 224.294 43.4758 224.314 44.1966C224.265 44.7517 224.022 45.3458 223.584 45.9788C222.951 46.797 222.28 47.1963 221.559 47.1963C221.306 47.2157 221.024 47.1281 220.722 46.9138C220.353 46.6801 220.012 46.5632 219.71 46.5632C219.408 46.5632 219.155 46.4463 218.941 46.2126C218.756 46.0081 218.649 45.5795 218.63 44.9562C218.649 43.9531 218.951 43.1642 219.535 42.5798C220.304 41.8396 220.975 41.4501 221.559 41.4306C222.445 41.4988 223.136 41.8104 223.652 42.3753V42.385ZM224.8 18.0465C225.452 17.9296 226.241 18.0854 227.175 18.5042C228.333 19.0593 228.927 19.595 228.956 20.1112C228.956 20.5495 228.839 20.9975 228.606 21.4357C228.255 21.9909 227.35 25.049 225.881 30.581C224.878 34.165 224.265 36.22 224.031 36.7265C223.681 37.2621 223.039 37.4472 222.114 37.2816C221.481 37.1648 221.18 36.7849 221.209 36.1324C221.511 32.9476 222.085 29.5876 222.922 26.0717C223.808 22.1564 224.236 19.8093 224.216 19.0204C224.168 18.436 224.372 18.1146 224.81 18.0465H224.8Z" stroke="#3E220E" stroke-width="3.89573"/>
<path d="M48.2534 41.5183C48.0004 41.5865 47.796 41.6741 47.6597 41.7618C47.5235 41.8592 47.2996 41.976 46.9979 42.1124C46.7644 42.2098 46.5989 42.2487 46.5113 42.2487C46.3069 42.2682 46.1999 42.239 46.1999 42.1416C46.1804 42.0053 46.1317 41.8202 46.0636 41.5865C45.9955 41.3332 46.3167 40.8073 47.0369 40.0184C47.504 39.4341 48.2048 38.4504 49.1293 37.0479C50.3654 35.2072 51.2705 33.5515 51.8544 32.0906C51.5333 32.3438 51.2121 32.5873 50.9104 32.8211C50.5405 33.0548 50.1999 33.1814 49.8982 33.2009C49.5478 33.2009 49.1293 33.0256 48.6427 32.675C47.8933 32.1393 47.4067 31.7303 47.1731 31.4576C46.8714 31.1556 46.6378 30.8537 46.4724 30.5518C46.3361 30.2499 46.2777 30.0551 46.2972 29.9577C46.3459 29.8214 46.5016 29.7337 46.7838 29.7142C47.1829 29.646 47.5624 29.5 47.9323 29.2954C48.4481 29.0617 49.0904 28.7013 49.8885 28.2144C50.7449 27.6592 51.4651 27.2599 52.0491 27.0262C52.7498 26.7048 53.3532 26.4223 53.8593 26.1886C54.2973 25.9841 54.5698 25.8282 54.6671 25.7308C54.7547 25.6334 54.891 25.6237 55.0467 25.6919C55.2511 25.76 55.543 25.7893 55.9226 25.7601C56.3216 25.7406 56.5844 25.7698 56.7304 25.8672C56.9153 25.9841 57.0905 26.1204 57.2559 26.286C57.4214 26.5002 57.5479 26.7145 57.6355 26.9482C57.7036 27.182 57.7426 27.445 57.7426 27.7566C57.7426 28.0683 57.7328 28.2923 57.7036 28.4578C57.6842 28.6624 57.5187 28.8182 57.217 28.9156C56.9348 29.013 56.6233 29.1396 56.273 29.2954C56.1562 29.2954 56.088 29.3344 56.0588 29.4026C56.0102 29.4513 55.9907 29.5097 55.9907 29.5779C55.4554 30.9316 54.9007 32.2075 54.3167 33.4152C54.3849 33.3957 54.4627 33.3762 54.56 33.3762C55.4457 33.4736 56.3411 33.7366 57.2462 34.1748C57.616 34.2917 57.908 34.4573 58.1221 34.6618C58.3557 34.8663 58.4822 35.0611 58.5017 35.2169C58.5504 35.4215 58.5212 35.7039 58.4336 36.0545C58.2292 36.4733 57.8399 37.5349 57.2851 39.2295C56.8472 40.6223 56.2048 41.9663 55.3678 43.2421C54.6184 44.3816 53.8009 45.3458 52.8861 46.1445C52.7693 46.2419 52.6622 46.3003 52.5746 46.3198C52.4578 46.3393 52.3216 46.3977 52.1561 46.4951C52.088 46.5438 51.9809 46.5535 51.8447 46.534C51.4943 46.4853 51.2024 46.4172 50.9688 46.3295C50.6865 46.2321 50.4724 46.125 50.307 45.9789C50.1221 45.8133 49.8398 45.5991 49.47 45.3166C49.2364 45.0829 49.1099 44.7907 49.0904 44.4401C49.0709 44.1869 48.9347 43.8362 48.7108 43.3882C48.5941 43.1837 48.6427 43.1058 48.8471 43.1837C49.5478 43.3493 50.1707 43.5051 50.7352 43.6707C51.0369 43.7681 51.2705 43.7681 51.4359 43.6707C51.8544 43.5051 52.2145 43.174 52.5162 42.6578C53.4505 41.0021 54.3459 38.7328 55.2024 35.85C55.2024 35.6844 55.1537 35.5578 55.0661 35.4702C54.6963 35.3338 54.2973 35.1098 53.8788 34.8079C53.7815 34.691 53.7231 34.6228 53.7036 34.6034C53.4505 35.0027 53.2072 35.402 52.9737 35.8208C51.7863 37.681 50.4627 39.4146 48.9931 41.0216C48.74 41.3235 48.4967 41.4891 48.2632 41.5085L48.2534 41.5183ZM54.852 18.8549C55.7863 19.3905 56.4384 19.9846 56.8082 20.6372C56.9445 20.9391 57.0029 21.241 56.9834 21.5429C56.9153 22.0104 56.672 22.4292 56.2535 22.7993C55.835 23.1986 55.2608 23.3837 54.5406 23.3544C54.2194 23.335 53.8106 22.9551 53.324 22.2344C52.6038 20.9293 51.9518 19.858 51.3678 19.0204C51.0174 18.6016 50.8909 18.3095 50.9882 18.1439C51.105 18.0075 51.3094 17.9491 51.6208 17.9686C51.8739 17.9881 52.1172 18.0173 52.3508 18.0368C53.4019 18.2023 54.2389 18.4653 54.8618 18.8354L54.852 18.8549ZM67.5918 37.7102C68.1757 38.4601 68.8473 39.1906 69.6161 39.9113C70.385 40.6125 71.1928 41.2748 72.059 41.8981C72.5748 42.3169 73.0809 42.648 73.5967 42.8721C74.0639 43.1058 74.7938 43.5733 75.7962 44.2648C76.5651 44.781 77.1588 45.1705 77.5773 45.453C77.879 45.6575 78.1126 45.8523 78.278 46.0081C78.3753 46.0958 78.4045 46.2126 78.3851 46.3587C78.2878 46.5243 78.0639 46.7093 77.6843 46.9139C77.1491 47.1476 76.7695 47.2937 76.5359 47.3716C75.9325 47.5372 75.4069 47.5664 74.969 47.4788C74.5018 47.3814 74.0931 47.3424 73.7524 47.3424C73.149 47.3911 72.5359 47.4495 71.9033 47.5177C71.5042 47.5372 71.1247 47.469 70.7548 47.3132C70.385 47.1087 70.0249 46.8457 69.6745 46.5438C69.1392 46.1932 68.6137 45.8036 68.1076 45.3556C67.4361 44.8199 66.8132 44.2648 66.2584 43.6804C65.8886 43.2811 65.4604 42.7747 64.964 42.1416C64.8278 42.278 64.6818 42.3948 64.5455 42.4922C63.4555 43.3103 62.054 43.9336 60.3606 44.3816C60.0589 44.4985 59.8642 44.557 59.7669 44.557C59.582 44.557 59.4165 44.5667 59.2803 44.5959C59.0272 44.6446 58.7839 44.6154 58.5504 44.5277C58.3168 44.4401 58.0248 44.4011 57.6744 44.4206C57.3435 44.4693 57.1002 44.3427 56.9445 44.0408C56.7304 43.6902 56.7304 43.5051 56.9445 43.4856C57.4992 43.4175 58.0735 43.3006 58.6574 43.135C59.3095 42.95 59.9226 42.5993 60.5066 42.0832C61.3922 41.2261 62.1806 40.2522 62.8813 39.1808C62.5309 38.6257 62.1708 38.0511 61.801 37.4667C60.127 34.8176 59.1148 33.2983 58.7645 32.9282C58.2486 32.4607 57.9469 32.1101 57.8593 31.8763C57.655 31.4381 57.5382 30.9901 57.509 30.5518C57.509 30.0356 57.6647 29.8311 57.9664 29.9187C58.2681 29.9187 58.5698 29.909 58.8715 29.8798C59.1051 29.8603 59.2316 29.8603 59.2511 29.8798C59.3679 29.948 59.5041 29.9967 59.6696 30.0161C59.7182 30.0161 59.7766 30.0259 59.8448 30.0551C60.2438 29.3539 60.6136 28.5065 60.964 27.5034C61.0808 27.0359 61.2073 26.5879 61.3436 26.1399C61.2754 26.0035 61.2852 25.9159 61.3825 25.8964C61.5966 25.0588 61.801 24.1433 62.0151 23.1402C62.2973 21.6695 62.4239 20.1599 62.3947 18.6016C62.4141 17.9978 62.3947 17.579 62.3265 17.3453C62.2292 16.9947 62.2 16.6733 62.2195 16.3713C62.2681 16.1181 62.3363 15.8844 62.4239 15.6701C62.5115 15.5045 62.6477 15.4753 62.8034 15.563C63.0857 15.7285 63.3387 15.8552 63.5723 15.9428C63.8059 16.0305 64.0686 16.1181 64.3801 16.1863C64.7499 16.2545 65.1781 16.4395 65.6745 16.7414C66.1417 16.9947 66.5504 17.2966 66.8911 17.6472C67.1246 17.8517 67.3485 18.2218 67.5529 18.7283C67.6697 19.0302 67.6113 19.4782 67.3777 20.0528C67.1733 20.4229 66.8229 21.4455 66.3266 23.1304C66.1611 23.5492 66.0346 23.9485 65.947 24.3186C66.1806 24.2018 66.4434 24.0946 66.7451 24.007C68.3704 23.3739 69.7232 22.7409 70.7938 22.0883C71.0273 21.9033 71.222 21.8546 71.3874 21.952C71.7086 22.0883 72.1563 22.176 72.7111 22.1955C73.0614 22.1955 73.4215 22.3026 73.7914 22.5071C74.0249 22.6435 74.1709 22.8577 74.2488 23.1402C74.2974 23.3739 74.1709 23.8901 73.8692 24.679C73.7719 24.9322 73.4021 25.1465 72.75 25.3023C71.4458 25.7016 70.3266 26.0522 69.402 26.3541C69.4896 26.4905 69.5577 26.6463 69.5772 26.8119C69.5967 27.0456 69.5383 27.2989 69.402 27.5813C69.2171 27.8345 69.1101 28.078 69.0906 28.3118C68.9543 29.3636 68.8473 30.6589 68.7791 32.227C68.6818 33.8145 68.3217 35.587 67.6988 37.5739C67.6794 37.5933 67.6502 37.642 67.6307 37.7102H67.5918ZM65.1781 27.8637C64.9446 27.9319 64.6915 28.0001 64.4093 28.0683C64.1562 28.5358 63.9129 28.9448 63.6793 29.2857C63.329 29.7532 62.9494 30.2012 62.5309 30.6492C62.3947 30.7855 62.1027 31.0095 61.655 31.3115C62.3265 31.8958 63.2025 32.7821 64.273 33.9703C64.3898 34.1067 64.5163 34.2527 64.6526 34.3891C65.0711 32.4315 65.2463 30.2596 65.1781 27.8637Z" fill="url(#paint0_linear_406_300)"/>
<path d="M84.5459 29.0816C86.0544 28.4291 86.9303 27.9324 87.1639 27.5817C87.3488 27.4162 87.631 27.387 88.0009 27.4746C90.1907 28.0103 91.3586 28.3609 91.524 28.5265C91.7284 28.7115 91.8257 28.994 91.8063 29.364C91.8063 29.7147 91.6992 30.0068 91.4948 30.2406C91.2904 30.4743 90.9595 31.234 90.5216 32.5099C90.1712 33.4838 89.9182 34.224 89.7527 34.7109C89.3829 35.7628 88.9741 36.5712 88.5362 37.1555C87.7965 38.1781 86.9984 39.0157 86.1614 39.6683C85.3926 40.3208 84.3025 40.9344 82.8816 41.5187C82.5312 41.6551 82.3074 41.6843 82.2198 41.5869C82.1225 41.4895 82.3366 41.1194 82.8524 40.4669C83.6699 39.4443 84.2247 38.6067 84.5264 37.9541C85.159 36.8341 85.6943 35.8504 86.1322 34.9836C86.6189 34.0292 87.0179 32.9968 87.3196 31.8768C87.4364 31.4093 87.4461 31.1658 87.3585 31.1463C87.2904 31.1463 87.1152 31.195 86.833 31.2827C85.996 31.8184 85.0811 32.2371 84.0787 32.5391C83.7283 32.6559 83.4072 32.7241 83.1055 32.7533C82.6383 32.8215 82.2685 32.7923 81.9862 32.6462C81.6845 32.4806 81.3925 32.2469 81.1103 31.945C80.7891 31.5457 80.575 31.2048 80.4777 30.8931C80.4096 30.6399 80.4777 30.4938 80.6821 30.4743C80.8962 30.4549 81.1103 30.4354 81.3439 30.4354C81.7137 30.3185 82.7843 29.8608 84.5556 29.0719L84.5459 29.0816ZM91.563 17.1022C91.6116 16.7029 91.6408 16.4984 91.67 16.4692C91.7187 16.4692 91.8549 16.4789 92.0885 16.5081C92.3707 16.5568 92.5751 16.5471 92.7211 16.4692C93.0033 16.3328 93.2953 16.2646 93.597 16.2646C93.7625 16.2841 94.1518 16.44 94.7844 16.7224C95.3683 17.0048 95.9815 17.4334 96.6336 18.0177C96.9547 18.3002 97.1883 18.5534 97.3343 18.7871C97.4997 18.9917 97.5679 19.1864 97.5387 19.3423C97.5192 19.5273 97.4608 19.8098 97.3635 20.1799C97.0618 21.3681 96.8963 23.6471 96.8769 27.0266V27.4454C96.9742 27.5428 97.0326 27.6304 97.0521 27.7278C97.2175 27.9616 97.344 28.2635 97.4316 28.6336C98.4535 27.611 99.4657 26.4715 100.468 25.2151C101.539 23.8418 102.113 22.8971 102.181 22.3907C102.278 21.9914 102.473 21.8063 102.775 21.8355C103.057 21.8842 103.349 21.9914 103.651 22.1472C103.972 22.3322 104.39 22.6731 104.906 23.1601C105.461 23.6763 105.821 24.1145 105.986 24.4846C106.191 24.9716 106.113 25.3709 105.743 25.6728C104.274 26.8416 103.047 27.6402 102.045 28.0785C100.721 28.6823 99.3586 29.2277 97.9669 29.7244C98.3367 30.2601 98.8817 30.9613 99.6019 31.8184C100.77 33.2111 102.366 34.7499 104.42 36.4251C105.811 37.5646 107.641 38.6748 109.899 39.7462C110.415 39.9507 110.921 40.1747 111.437 40.4084C111.787 40.574 112.147 40.7591 112.517 40.9636C112.867 41.1973 113.004 41.3921 112.935 41.5577C112.887 41.694 112.536 41.8693 111.884 42.0836C111.417 42.2492 110.931 42.3758 110.415 42.4634C110.045 42.5121 109.743 42.5803 109.51 42.668C108.926 42.9894 108.322 43.301 107.699 43.5737C107.417 43.6906 107.106 43.7393 106.755 43.7101C106.473 43.6906 106.084 43.525 105.568 43.2231C104.78 42.8043 103.816 42.0933 102.668 41.0902C100.877 39.5027 99.271 37.7301 97.8501 35.7433C97.5679 35.3245 97.3148 34.9642 97.0812 34.6622C97.1299 35.2661 97.1883 35.8991 97.2564 36.5517C97.5581 40.0189 97.49 42.4829 97.0521 43.9536C96.8671 44.9762 96.4584 45.8722 95.8355 46.6416C95.4657 47.0409 95.0569 47.3721 94.6189 47.6545C94.2199 47.9077 93.9085 48.122 93.6749 48.2876C93.49 48.5213 93.3245 48.6479 93.1883 48.6674C93.0034 48.7161 92.8087 48.6577 92.5946 48.4921C92.4097 48.3557 92.2442 48.0928 92.108 47.7227C91.8744 47.0701 91.5046 46.4858 90.9887 45.9793C90.4048 45.4437 89.9279 45.0931 89.5581 44.9275C89.305 44.7619 89.159 44.6743 89.1396 44.6451C89.1396 44.5769 89.2856 44.5087 89.597 44.4308C90.3172 44.499 91.0277 44.5477 91.7284 44.5671C92.1664 44.499 92.3999 44.4308 92.4291 44.3626C92.4973 44.2457 92.5362 44.0023 92.5362 43.6322C92.7211 28.0103 92.6238 19.839 92.254 19.1183C91.7868 18.1443 91.563 17.4626 91.5921 17.0925L91.563 17.1022Z" fill="url(#paint1_linear_406_300)"/>
<path d="M127.748 47.5958C127.31 47.7809 127.008 47.8588 126.843 47.8393C126.609 47.8393 126.444 47.7711 126.356 47.625C126.24 47.4887 126.045 47.2257 125.763 46.8556C125.432 46.4563 125.189 46.0862 125.033 45.7356C124.916 45.4824 124.789 45.2097 124.653 44.9273C124.585 44.7227 124.498 44.4598 124.41 44.1578C124.361 43.9046 124.39 43.7001 124.478 43.5637C124.644 43.3982 124.77 43.3203 124.858 43.3203C124.994 43.3884 125.208 43.4371 125.49 43.4566C125.772 43.5248 126.084 43.554 126.434 43.5248C127.135 43.3397 127.865 43.2034 128.634 43.106C128.517 42.9404 128.381 42.8723 128.215 42.9015C127.982 42.9209 127.69 42.8917 127.339 42.7943C127.086 42.6969 126.97 42.4729 126.989 42.0931C127.008 41.6548 127.106 41.275 127.271 40.9731C127.437 40.603 127.807 40.0868 128.39 39.4343C128.089 38.8986 127.758 38.1292 127.417 37.126C126.863 35.5872 126.532 34.4964 126.444 33.8439C126.376 33.4738 126.308 33.1816 126.24 32.9674C126.172 32.7628 126.133 32.607 126.133 32.5096C125.646 32.8115 125.12 33.1037 124.566 33.3861C124.128 33.6004 123.894 33.6588 123.865 33.5615C123.816 33.4933 123.943 33.279 124.244 32.9284C125.081 31.9252 125.85 30.7955 126.551 29.5391C126.853 28.984 127.125 28.4483 127.359 27.9321C127.242 27.8639 127.135 27.7763 127.047 27.6886C126.678 27.3185 126.317 26.9095 125.967 26.4712C125.948 26.5199 125.918 26.5784 125.899 26.6465C125.665 27.1627 125.296 27.6984 124.78 28.2535C124.147 28.9255 123.69 29.3443 123.388 29.5099C123.086 29.6755 122.892 29.8021 122.794 29.8897C122.658 30.0261 122.444 30.1429 122.162 30.2403C121.996 30.3085 121.841 30.3962 121.675 30.4838C121.607 31.6525 121.5 32.8018 121.364 33.9413C121.48 33.9413 121.549 33.951 121.568 33.9802C122.22 34.0971 122.862 34.3601 123.485 34.7789C124.459 35.4314 125.033 36.045 125.198 36.6293C125.266 37.0481 125.257 37.4085 125.159 37.7104C125.062 38.0318 124.916 38.3727 124.702 38.7233C124.536 38.957 124.342 39.1031 124.108 39.181C123.875 39.2492 123.553 39.0057 123.135 38.4506C122.395 37.5448 121.724 36.532 121.15 35.4119C120.897 36.8047 120.546 38.2169 120.098 39.6388C119.563 41.2945 118.755 42.6093 117.695 43.5832C116.692 44.489 115.865 45.0636 115.213 45.2973C114.843 45.4629 114.609 45.5116 114.512 45.4337C114.347 45.346 114.444 45.1123 114.794 44.7325C115.232 44.0994 115.709 43.3008 116.225 42.3269C116.848 41.1387 117.412 39.483 117.899 37.3695C118.415 35.2074 118.697 33.2401 118.775 31.4675C118.843 29.9774 118.882 28.5944 118.882 27.3088C118.882 25.6336 118.872 24.0461 118.843 22.556C118.824 21.7866 118.775 21.0756 118.707 20.4231C118.658 19.868 118.522 19.4297 118.288 19.1278C118.191 18.7577 118.132 18.5239 118.113 18.4265C118.094 18.2902 118.094 18.1733 118.113 18.0759C118.181 17.9883 118.298 17.9688 118.463 18.037C118.697 18.1051 118.862 18.0564 118.95 17.9006C119.067 17.7156 119.378 17.7058 119.894 17.8617C120.731 18.1636 121.373 18.5045 121.811 18.8745C122.133 19.1765 122.22 19.6926 122.055 20.4134C121.987 20.8516 121.938 21.3678 121.918 21.9522C121.87 22.7898 121.841 24.8155 121.811 28.0295C121.792 28.4678 121.763 28.9353 121.743 29.4222C122.181 28.8184 122.522 28.2925 122.755 27.8542C123.154 27.0653 123.398 26.4128 123.485 25.8966C123.505 25.5947 123.407 25.3317 123.174 25.098C122.853 24.7474 122.794 24.5623 122.999 24.5428C123.164 24.5234 123.252 24.4357 123.281 24.2994C123.33 24.1825 123.505 24.1143 123.807 24.0948C124.244 24.0461 124.682 24.0753 125.101 24.163C125.471 24.2604 125.743 24.387 125.909 24.5428C126.074 24.7279 126.162 24.9421 126.191 25.1759C126.493 25.1077 126.833 25.1077 127.203 25.1759C127.738 25.2441 128.108 25.3999 128.322 25.6336C128.76 24.3578 129.062 23.228 129.227 22.2444C129.344 21.9911 129.335 21.845 129.189 21.8256C128.468 21.923 127.816 22.0106 127.232 22.108C127.067 22.108 126.872 22.0301 126.639 21.8645C126.337 21.6308 126.142 21.3678 126.045 21.0659C125.977 20.8808 125.948 20.7542 125.977 20.6861C125.996 20.5692 126.133 20.501 126.356 20.4815C127.193 20.2478 128.069 19.9556 128.974 19.605C129.325 19.4686 129.617 19.2836 129.85 19.0499C130.035 18.7966 130.201 18.6505 130.337 18.6311C130.454 18.5824 130.658 18.5726 130.97 18.5921C131.456 18.6408 131.943 18.67 132.439 18.6992C132.79 18.7187 133.033 18.8356 133.169 19.0499C133.237 19.2154 133.266 19.3713 133.237 19.5368C133.169 19.6537 133.12 19.7608 133.101 19.8485C133.802 19.2641 134.366 18.7577 134.814 18.3097C135.515 17.6377 135.904 17.1604 136.001 16.878C136.215 16.4787 136.4 16.3521 136.556 16.4982C136.76 16.5955 137.091 16.6345 137.529 16.6345C138.084 16.615 138.522 16.7514 138.824 17.0533C139.223 17.3552 139.427 17.6571 139.456 17.959C139.456 18.0759 139.447 18.1831 139.417 18.2707C139.349 18.3876 139.301 18.5239 139.281 18.6895C139.262 18.9232 139.057 19.157 138.687 19.3907C137.802 19.829 136.945 20.1699 136.108 20.4036C135.339 20.6374 134.629 20.8029 133.977 20.8906C134.415 21.3581 134.999 21.9814 135.719 22.78C135.923 23.0332 136.138 23.2767 136.352 23.5105C137.169 23.0235 137.86 22.556 138.444 22.1177C139.33 21.4847 139.855 21.0269 140.011 20.725C140.264 20.3549 140.478 20.2381 140.634 20.3744C140.867 20.5108 141.208 20.6179 141.646 20.6861C142.23 20.7348 142.658 20.9393 142.94 21.3191C143.291 21.6697 143.456 22.0203 143.427 22.371C143.408 22.4878 143.378 22.595 143.359 22.6826C143.291 22.7995 143.223 22.9358 143.155 23.1014C143.135 23.3352 142.902 23.5299 142.454 23.6955C141.383 24.0461 140.381 24.2994 139.456 24.4649C138.717 24.5818 138.045 24.65 137.471 24.6792C138.561 25.7992 139.748 26.8608 141.033 27.8542C142.639 29.1301 143.797 29.8897 144.527 30.1235C145.364 30.4449 146.026 30.7857 146.512 31.1364C146.979 31.4578 147.33 31.7986 147.563 32.1493C147.661 32.3148 147.515 32.5291 147.145 32.8115C146.59 33.2108 145.948 33.4543 145.228 33.542C144.488 33.7075 143.865 33.8634 143.378 34.0289C142.892 34.214 142.464 34.2627 142.084 34.1653C141.666 34.0484 141.169 33.766 140.585 33.3277C139.748 32.6947 138.775 31.7499 137.656 30.4643C136.721 29.4125 136.001 28.4288 135.495 27.4939V27.601C135.476 27.7373 135.447 27.8834 135.427 28.0198C135.378 28.234 135.31 28.4386 135.223 28.6528C135.125 28.8379 135.038 29.0034 134.94 29.1398C134.824 29.2761 134.522 29.4612 134.035 29.6949C133.549 29.9482 133.091 30.1527 132.673 30.289C132.254 30.4254 131.972 30.4936 131.836 30.4936C131.505 30.591 131.3 30.6494 131.203 30.6689C130.901 30.7663 130.395 30.3183 129.704 29.3443C129.607 29.2275 129.529 29.1203 129.461 29.0327C129.159 29.5196 128.828 30.0261 128.488 30.5325C128.167 30.9708 127.583 31.487 126.746 32.0713C126.629 32.12 126.561 32.1785 126.541 32.2466H126.58C127.047 32.383 127.466 32.4414 127.836 32.422C128.05 32.3733 128.235 32.422 128.39 32.5583C130.279 31.9739 131.875 31.5844 133.208 31.3701C133.86 31.2532 134.376 31.0779 134.746 30.8442C135.096 30.6397 135.7 30.7565 136.556 31.1948C137.51 31.6818 138.172 32.1006 138.541 32.4512C138.843 32.7044 138.96 32.9868 138.892 33.2888C138.824 33.7757 138.6 34.3796 138.23 35.1003C137.763 35.7723 137.276 36.3664 136.76 36.8826C136.741 36.9507 136.721 37.0384 136.721 37.126C136.702 37.1747 136.683 37.204 136.683 37.2332C136.867 37.3306 137.043 37.4182 137.208 37.5156C137.558 37.7201 137.812 37.9442 137.977 38.1779C138.113 38.4311 138.172 38.6746 138.152 38.9083C138.103 39.0739 138.035 39.22 137.948 39.3661C137.812 39.4635 137.724 39.5901 137.704 39.7459C137.49 40.2621 137.13 40.8367 136.624 41.4893C136.322 41.8594 135.992 42.2392 135.651 42.6093C135.972 42.6093 136.284 42.619 136.556 42.6482C136.975 42.6969 137.296 42.6677 137.529 42.5801C137.763 42.2976 137.948 42.171 138.084 42.2002C138.249 42.2002 138.551 42.3755 138.989 42.7262C139.388 43.0476 139.875 43.33 140.459 43.5637C140.829 43.7001 141.062 43.9241 141.159 44.226C141.228 44.4305 141.305 44.7227 141.403 45.1026C141.471 45.424 141.442 45.7064 141.296 45.9401C141.159 46.1934 140.984 46.4271 140.77 46.6414C140.537 46.8264 140.284 47.0212 140.001 47.2355C139.836 47.3523 139.68 47.401 139.515 47.3718C139.378 47.3231 139.223 47.2647 139.057 47.1965C137.773 46.9433 136.498 46.8264 135.223 46.8459C133.481 46.8654 131.758 46.9822 130.055 47.1965C128.936 47.3621 128.196 47.4887 127.826 47.5763L127.748 47.5958ZM114.561 26.9874C114.697 26.9387 114.989 27.0653 115.437 27.3672C116.069 27.7373 116.624 28.273 117.111 28.9742C117.831 30.0456 118.181 30.9026 118.162 31.5552C118.094 31.9545 117.977 32.2661 117.811 32.4999C117.626 32.7531 117.393 32.9966 117.111 33.2303C116.906 33.4154 116.682 33.4933 116.449 33.4738C116.196 33.4543 115.982 33.1524 115.816 32.568C115.232 31.0292 114.804 29.3443 114.522 27.5036C114.473 27.1822 114.483 27.0069 114.561 26.9777V26.9874ZM130.23 39.0739C130.23 39.0739 130.181 39.1226 130.162 39.1421C130.113 39.259 130.084 39.3856 130.055 39.5219C129.821 40.1745 129.627 41.1387 129.461 42.4242C129.393 42.6775 129.305 42.882 129.218 43.0183C129.957 42.882 130.726 42.7943 131.524 42.7749C131.846 42.4048 132.167 42.0055 132.468 41.5867C133.072 40.6517 133.519 39.7362 133.792 38.8304C133.86 38.4603 133.889 38.2266 133.86 38.1292C132.653 38.3337 131.437 38.6551 130.23 39.0739ZM131.281 34.214C130.512 34.4672 129.938 34.7107 129.568 34.9444C129.704 35.6652 129.821 36.3079 129.918 36.8631C130.22 36.7267 130.58 36.5806 130.999 36.4443C131.719 36.1911 132.468 35.9768 133.228 35.8112C133.412 35.5288 133.549 35.3438 133.646 35.2561C133.899 34.7691 134.113 34.3016 134.279 33.8634C134.327 33.6491 134.337 33.542 134.318 33.5128C134.298 33.3959 134.142 33.3764 133.86 33.4446C133.004 33.6783 132.137 33.9316 131.281 34.214ZM131.203 24.9616C130.97 25.6823 130.678 26.442 130.327 27.2309C130.746 27.0166 131.271 26.8121 131.894 26.5978C132.079 26.481 132.254 26.4128 132.42 26.3933C132.624 26.3446 132.848 26.3349 133.082 26.3544C133.481 26.4225 133.86 26.4225 134.23 26.3544C134.444 26.3057 134.629 26.3154 134.785 26.3933C134.386 25.7408 133.909 24.9811 133.354 24.124C132.867 23.3839 132.439 22.7508 132.06 22.2346V22.3028C131.777 23.1404 131.485 24.0267 131.184 24.9519L131.203 24.9616Z" fill="url(#paint2_linear_406_300)"/>
<path d="M152.809 28.808C152.575 28.6424 152.429 28.5548 152.351 28.5255C152.215 28.4379 152.128 28.3405 152.108 28.2431C152.059 28.1068 152.118 27.9996 152.283 27.9314C152.42 27.8828 152.488 27.7561 152.488 27.5516C152.488 27.3471 152.536 27.201 152.624 27.1328C152.76 27.016 152.984 26.9088 153.286 26.8212C154.103 26.6166 154.901 26.5192 155.69 26.5387C156.128 26.5582 156.497 26.6556 156.77 26.8212C157.023 26.9867 157.198 27.1815 157.296 27.4153C157.461 27.7854 157.49 28.1847 157.403 28.6035C157.305 28.9054 157.296 29.2657 157.364 29.6845C157.5 30.7559 157.49 32.1096 157.325 33.7361C157.909 33.4147 158.444 33.2004 158.931 33.103C159.116 33.103 159.242 33.0251 159.31 32.8596C159.476 32.6258 159.631 32.5479 159.797 32.6161C160.4 32.8206 160.994 33.0154 161.578 33.1712C162.366 33.405 162.882 33.6679 163.116 33.9796C163.3 34.2133 163.359 34.749 163.291 35.5866C163.008 36.7553 162.824 37.8948 162.736 39.0051C162.639 40.0082 162.444 40.8555 162.142 41.5568C161.909 42.1411 161.442 42.6865 160.751 43.2027C160.196 43.7189 159.699 44.0208 159.281 44.1085C159.067 44.1572 158.901 44.128 158.755 44.0403C158.502 43.8358 158.327 43.5728 158.23 43.2709C157.763 42.3164 157.315 41.6931 156.867 41.3815C156.634 41.2646 156.517 41.138 156.517 41.0016C156.517 40.8653 156.634 40.8068 156.867 40.8263C157.5 41.0114 158.171 41.099 158.892 41.0698C159.125 41.0893 159.271 40.9529 159.349 40.651C159.602 39.5115 159.768 38.5084 159.836 37.6513C159.884 37.0182 159.894 36.317 159.875 35.5184C159.875 35.3528 159.836 35.2652 159.768 35.2359C159.232 35.4405 158.687 35.7716 158.123 36.2099C157.471 36.7455 156.994 37.2033 156.692 37.5734C156.459 38.4304 156.225 39.3167 155.991 40.2322C155.66 41.3036 155.213 42.0924 154.629 42.6086C154.376 42.9592 154.025 43.3196 153.578 43.6897C153.227 43.9916 152.867 44.1767 152.497 44.2448C152.244 44.2935 151.962 44.4007 151.66 44.5565C151.544 44.6052 151.437 44.6149 151.349 44.5954C151.232 44.5273 151.213 44.3714 151.281 44.1377C152.283 42.2093 152.955 40.0374 153.305 37.6416C153.656 35.0606 153.675 32.6453 153.373 30.415C153.257 29.5092 153.062 28.9736 152.78 28.808H152.809ZM163.174 27.688C162.824 27.9217 162.502 28.1847 162.201 28.4963C161.831 28.7301 161.49 28.8567 161.189 28.8762C160.867 28.8762 160.449 28.7009 159.933 28.3502C159.184 27.8341 158.697 27.4445 158.463 27.162C158.162 26.8406 157.928 26.5192 157.763 26.2173C157.626 25.9349 157.568 25.7498 157.588 25.6622C157.607 25.5258 157.763 25.4382 158.045 25.4187C158.444 25.3505 158.824 25.1947 159.193 24.961C159.68 24.7564 160.322 24.4058 161.111 23.9091C161.393 23.7046 161.646 23.5487 161.88 23.4514C161.529 22.1755 161.237 20.9581 161.004 19.8186C160.819 18.6109 160.546 17.6759 160.196 17.0234C159.943 16.4683 159.952 16.1858 160.235 16.1858C160.439 16.1858 160.556 16.0495 160.585 15.767C160.634 15.5333 160.828 15.4651 161.179 15.5625C162.736 16.1663 163.699 16.5364 164.079 16.6825C164.429 16.8189 164.79 17.15 165.159 17.6565C165.51 18.2116 165.675 18.8447 165.646 19.5459C165.627 20.1497 165.627 20.812 165.646 21.5327C165.734 21.4645 165.802 21.4158 165.821 21.3964C165.889 21.3477 166.006 21.3379 166.172 21.3574C166.405 21.4256 166.707 21.4548 167.077 21.4256C167.446 21.4061 167.709 21.4353 167.846 21.5327C168.05 21.6496 168.245 21.7859 168.4 21.9515C168.556 22.1171 168.692 22.3313 168.78 22.6138C168.848 22.828 168.887 23.0813 168.887 23.3832C168.906 23.6851 168.906 23.9188 168.887 24.0844C168.838 24.2987 168.682 24.4448 168.4 24.5422C168.099 24.659 167.777 24.7954 167.427 24.961C167.009 25.146 166.609 25.3603 166.24 25.594C166.678 27.6198 167.291 29.5871 168.05 31.496C168.118 31.7298 168.225 31.9927 168.361 32.2947C168.566 31.5253 168.76 30.8143 168.916 30.1618C169.052 29.4897 169.14 28.993 169.159 28.6911C169.111 28.321 169.082 28.0191 169.052 27.7854C168.955 27.4153 169.033 27.1523 169.257 27.016C169.471 26.8796 169.831 26.8893 170.337 27.0549C170.872 27.2205 171.388 27.4737 171.875 27.8243C172.274 28.1457 172.585 28.4574 172.819 28.7301C173.101 29.0515 173.228 29.3729 173.198 29.6748C173.179 30.0936 173.013 30.6292 172.712 31.2818C172.507 31.7006 172.118 32.5187 171.563 33.7264C171.193 34.5639 170.756 35.382 170.269 36.1709C170.639 36.7748 171.009 37.3883 171.388 38.0214C172.712 40.2322 173.831 41.8003 174.736 42.7352C175.271 43.2709 175.583 43.5533 175.68 43.5728C175.865 43.5533 176.099 43.3196 176.381 42.8716C176.595 42.4723 176.838 42.034 177.111 41.547C177.413 40.914 177.685 40.2907 177.919 39.6576C178.006 39.3557 178.104 39.2193 178.201 39.2388C178.366 39.2583 178.454 39.4239 178.483 39.7258C178.649 40.3588 178.717 41.2354 178.687 42.3749C178.619 43.5144 178.571 44.2351 178.551 44.537C178.532 44.8876 178.561 45.209 178.658 45.5109C178.795 45.9297 178.746 46.2511 178.522 46.4849C178.22 46.7868 178.055 47.1569 178.035 47.6049C177.967 47.9555 177.812 48.2087 177.578 48.3743C177.296 48.5107 176.945 48.5691 176.527 48.5496C176.011 48.5496 175.359 48.2964 174.571 47.7802C173.568 47.1277 172.585 46.2316 171.602 45.0921C170.249 43.602 168.984 41.6931 167.797 39.3654C167.544 39.6186 167.262 39.8621 166.96 40.0959C166.658 40.3296 166.288 40.5926 165.841 40.8945C165.588 41.099 165.266 41.2938 164.897 41.4496C164.595 41.586 164.293 41.6931 163.991 41.7613C163.69 41.8295 163.456 41.8782 163.291 41.8976C163.106 41.9171 162.97 41.849 162.872 41.6931C162.824 41.5276 162.921 41.3425 163.154 41.138C163.408 40.9335 163.622 40.7387 163.787 40.5828C164.721 39.531 165.568 38.3525 166.337 37.0182C166.405 36.8527 166.473 36.7261 166.551 36.6384C165.665 34.6126 164.76 32.2654 163.826 29.5871C163.592 28.8859 163.369 28.2528 163.164 27.6685L163.174 27.688ZM168.653 17.9097C168.702 17.7928 168.77 17.7441 168.867 17.7733C168.984 17.7928 169.266 17.7636 169.704 17.6662C170.541 17.5493 171.281 17.6759 171.933 18.046C172.605 18.4453 173.023 18.9907 173.189 19.6822C173.325 20.1984 173.315 20.7049 173.15 21.2211C172.897 21.8736 172.546 22.2437 172.099 22.3411C171.651 22.4385 171.213 22.3021 170.775 21.9612C170.259 21.523 169.928 21.075 169.763 20.6367C169.529 20.0815 169.266 19.468 168.965 18.8154C168.731 18.2993 168.624 17.9973 168.653 17.9097Z" fill="url(#paint3_linear_406_300)"/>
<path d="M189.306 27.6205C188.936 27.5231 188.527 27.4355 188.089 27.3381C187.719 27.1725 187.388 26.9582 187.116 26.6758C186.814 26.3739 186.542 26.1109 186.308 25.8772C186.006 25.5753 185.87 25.3026 185.89 25.0688C185.909 24.8156 185.88 24.5332 185.783 24.2312C185.598 23.6956 185.549 23.3839 185.646 23.2865C185.831 23.2183 186.113 23.267 186.483 23.4229C187.223 23.6079 188.167 23.4131 189.306 22.8288C190.814 22.0107 192.177 21.4847 193.384 21.2607C193.734 21.1731 194.094 21.2023 194.464 21.3679C194.697 21.4847 194.931 21.6114 195.165 21.7477C195.486 21.9328 195.7 22.1081 195.797 22.2736C195.933 22.5269 195.972 22.8288 195.904 23.1794C195.836 23.4326 195.787 23.6469 195.768 23.8124C195.719 24.0462 195.69 24.2312 195.661 24.3676C195.641 24.5039 195.583 24.6111 195.486 24.6792C194.95 25.0493 194.435 25.4194 193.948 25.7993C193.646 26.0135 193.345 26.2278 193.043 26.4615C192.907 26.5297 192.79 26.6174 192.693 26.705C192.712 26.8901 192.693 27.0849 192.624 27.2991C192.556 27.5816 192.517 27.903 192.517 28.2731C192.469 29.5781 192.459 30.6787 192.478 31.5942C192.478 32.7629 192.469 33.6686 192.439 34.3212C192.508 34.253 192.595 34.2043 192.683 34.1848C193.286 33.9316 194.016 33.6492 194.882 33.3472C195.418 33.1135 195.729 33.0648 195.826 33.2109C195.895 33.3278 195.778 33.6297 195.476 34.1167C194.873 35.3535 194.143 36.3664 193.276 37.1553C192.342 38.0416 190.804 39.0837 188.634 40.3011C188.079 40.5836 187.68 40.7102 187.447 40.681C187.194 40.6615 186.911 40.5446 186.61 40.3303C186.006 39.9116 185.393 39.2688 184.761 38.4117C184.323 37.8079 184.323 37.3891 184.761 37.1553C185.014 36.9898 185.354 36.8631 185.773 36.7755C186.746 36.5417 187.875 36.1717 189.16 35.6555C189.296 35.5678 189.452 35.4996 189.617 35.4802V35.1977C189.549 33.8732 189.51 32.8895 189.51 32.2662C189.51 30.8735 189.461 29.4613 189.374 28.0393C189.354 27.8543 189.325 27.7179 189.306 27.6205ZM197.228 40.2232C196.508 40.9926 196.011 41.4893 195.729 41.7231C195.427 41.9276 195.155 42.1516 194.931 42.3853C194.697 42.5899 194.376 42.8041 193.958 43.0184C193.656 43.1547 193.354 43.2619 193.053 43.3301C192.77 43.4275 192.556 43.4859 192.391 43.5054C192.089 43.5735 191.894 43.5248 191.797 43.369C191.7 43.184 191.778 43.0087 192.002 42.8431C192.235 42.6775 192.469 42.4633 192.702 42.1808C194.357 40.155 195.846 37.9053 197.169 35.4412C198.425 33.1622 199.379 30.7955 200.031 28.351C200.031 28.2341 200.041 28.1659 200.07 28.1367C199.788 28.1854 199.534 28.1757 199.301 28.0977C198.863 27.9809 198.24 27.2504 197.452 25.8967C197.247 25.4973 197.15 25.1565 197.169 24.8448C197.238 24.4747 197.354 24.2994 197.52 24.3189C197.773 24.3384 198.006 24.3091 198.221 24.2118C199.058 23.9585 200.05 23.7248 201.189 23.5105C201.238 23.1891 201.296 22.8677 201.364 22.5658C201.598 21.1926 201.705 20.2965 201.676 19.8778C201.656 19.644 201.52 19.381 201.296 19.0694C201.111 18.7869 201.062 18.5824 201.16 18.4363C201.257 18.3195 201.627 18.3682 202.279 18.5727C203.281 18.8941 204.031 19.2155 204.547 19.5174C204.985 19.7511 205.393 20.1505 205.763 20.7056C206.084 21.1244 206.299 21.5237 206.396 21.8938C206.445 22.0983 206.386 22.3905 206.221 22.7703C206.805 22.6535 207.408 22.5853 208.031 22.5658C208.264 22.4976 208.459 22.3808 208.625 22.2152C208.79 22.0496 209.121 22.0886 209.637 22.3223C210.153 22.5561 210.698 22.819 211.282 23.1209C211.7 23.3547 212.196 23.715 212.78 24.202C213.179 24.5526 213.423 24.9812 213.51 25.4973C213.559 25.8187 213.432 26.1596 213.131 26.5102C212.829 27.0264 212.644 27.5329 212.576 28.049C212.479 29.1204 212.265 31.1656 211.914 34.1946C211.466 38.178 210.678 40.9829 209.539 42.6093C209.17 43.2619 208.771 43.6709 208.352 43.8268C207.632 44.1482 206.99 44.4988 206.435 44.8786C206.036 45.1124 205.491 45.1124 204.8 44.8786C204.167 44.4793 203.505 43.856 202.814 42.9892C202.094 42.0834 201.491 41.129 201.004 40.1258C200.79 39.7557 200.878 39.6096 201.247 39.707C202.152 39.9603 202.902 40.0771 203.476 40.0576C204.031 40.0576 204.527 39.9797 204.946 39.8142C205.481 39.6973 205.861 39.3564 206.094 38.8013C206.999 36.7755 207.593 34.74 207.875 32.6947C208.177 30.4839 208.333 28.3218 208.333 26.1986C208.381 25.4973 208.177 25.1954 207.739 25.2928C206.921 25.4779 205.948 25.7603 204.809 26.1304C204.761 26.1304 204.741 26.1401 204.741 26.1694C204.576 26.52 204.449 26.9193 204.362 27.3576C203.389 30.5228 202.337 33.0258 201.218 34.8666C199.982 36.9411 198.668 38.7234 197.277 40.2135L197.228 40.2232Z" fill="url(#paint4_linear_406_300)"/>
<path d="M223.652 42.385C224.07 42.872 224.294 43.4758 224.314 44.1966C224.265 44.7517 224.022 45.3458 223.584 45.9788C222.951 46.797 222.28 47.1963 221.559 47.1963C221.306 47.2157 221.024 47.1281 220.722 46.9138C220.353 46.6801 220.012 46.5632 219.71 46.5632C219.408 46.5632 219.155 46.4463 218.941 46.2126C218.756 46.0081 218.649 45.5795 218.63 44.9562C218.649 43.9531 218.951 43.1642 219.535 42.5798C220.304 41.8396 220.975 41.4501 221.559 41.4306C222.445 41.4988 223.136 41.8104 223.652 42.3753V42.385ZM224.8 18.0465C225.452 17.9296 226.241 18.0854 227.175 18.5042C228.333 19.0593 228.927 19.595 228.956 20.1112C228.956 20.5495 228.839 20.9975 228.606 21.4357C228.255 21.9909 227.35 25.049 225.881 30.581C224.878 34.165 224.265 36.22 224.031 36.7265C223.681 37.2621 223.039 37.4472 222.114 37.2816C221.481 37.1648 221.18 36.7849 221.209 36.1324C221.511 32.9476 222.085 29.5876 222.922 26.0717C223.808 22.1564 224.236 19.8093 224.216 19.0204C224.168 18.436 224.372 18.1146 224.81 18.0465H224.8Z" fill="url(#paint5_linear_406_300)"/>
</g>
<defs>
<linearGradient id="paint0_linear_406_300" x1="61.7329" y1="16.9362" x2="62.2494" y2="45.6477" gradientUnits="userSpaceOnUse">
<stop stop-color="white"/>
<stop offset="0.21" stop-color="#FEFCFC"/>
<stop offset="0.37" stop-color="#FDF2F3" stop-opacity="0.99"/>
<stop offset="0.52" stop-color="#FAE3E4" stop-opacity="0.98"/>
<stop offset="0.66" stop-color="#F7CDCF" stop-opacity="0.97"/>
<stop offset="0.79" stop-color="#F3B1B4" stop-opacity="0.95"/>
<stop offset="0.92" stop-color="#EE8E94" stop-opacity="0.93"/>
<stop offset="1" stop-color="#EA747B" stop-opacity="0.92"/>
</linearGradient>
<linearGradient id="paint1_linear_406_300" x1="96.3416" y1="16.3231" x2="96.8484" y2="45.0346" gradientUnits="userSpaceOnUse">
<stop stop-color="white"/>
<stop offset="0.21" stop-color="#FEFCFC"/>
<stop offset="0.37" stop-color="#FDF2F3" stop-opacity="0.99"/>
<stop offset="0.52" stop-color="#FAE3E4" stop-opacity="0.98"/>
<stop offset="0.66" stop-color="#F7CDCF" stop-opacity="0.97"/>
<stop offset="0.79" stop-color="#F3B1B4" stop-opacity="0.95"/>
<stop offset="0.92" stop-color="#EE8E94" stop-opacity="0.93"/>
<stop offset="1" stop-color="#EA747B" stop-opacity="0.92"/>
</linearGradient>
<linearGradient id="paint2_linear_406_300" x1="130.561" y1="15.719" x2="131.068" y2="44.4305" gradientUnits="userSpaceOnUse">
<stop stop-color="white"/>
<stop offset="0.21" stop-color="#FEFCFC"/>
<stop offset="0.37" stop-color="#FDF2F3" stop-opacity="0.99"/>
<stop offset="0.52" stop-color="#FAE3E4" stop-opacity="0.98"/>
<stop offset="0.66" stop-color="#F7CDCF" stop-opacity="0.97"/>
<stop offset="0.79" stop-color="#F3B1B4" stop-opacity="0.95"/>
<stop offset="0.92" stop-color="#EE8E94" stop-opacity="0.93"/>
<stop offset="1" stop-color="#EA747B" stop-opacity="0.92"/>
</linearGradient>
<linearGradient id="paint3_linear_406_300" x1="164.488" y1="15.1145" x2="165.004" y2="43.826" gradientUnits="userSpaceOnUse">
<stop stop-color="white"/>
<stop offset="0.21" stop-color="#FEFCFC"/>
<stop offset="0.37" stop-color="#FDF2F3" stop-opacity="0.99"/>
<stop offset="0.52" stop-color="#FAE3E4" stop-opacity="0.98"/>
<stop offset="0.66" stop-color="#F7CDCF" stop-opacity="0.97"/>
<stop offset="0.79" stop-color="#F3B1B4" stop-opacity="0.95"/>
<stop offset="0.92" stop-color="#EE8E94" stop-opacity="0.93"/>
<stop offset="1" stop-color="#EA747B" stop-opacity="0.92"/>
</linearGradient>
<linearGradient id="paint4_linear_406_300" x1="198.668" y1="14.5114" x2="199.175" y2="43.2229" gradientUnits="userSpaceOnUse">
<stop stop-color="white"/>
<stop offset="0.21" stop-color="#FEFCFC"/>
<stop offset="0.37" stop-color="#FDF2F3" stop-opacity="0.99"/>
<stop offset="0.52" stop-color="#FAE3E4" stop-opacity="0.98"/>
<stop offset="0.66" stop-color="#F7CDCF" stop-opacity="0.97"/>
<stop offset="0.79" stop-color="#F3B1B4" stop-opacity="0.95"/>
<stop offset="0.92" stop-color="#EE8E94" stop-opacity="0.93"/>
<stop offset="1" stop-color="#EA747B" stop-opacity="0.92"/>
</linearGradient>
<linearGradient id="paint5_linear_406_300" x1="223.457" y1="14.0728" x2="223.974" y2="42.7843" gradientUnits="userSpaceOnUse">
<stop stop-color="white"/>
<stop offset="0.21" stop-color="#FEFCFC"/>
<stop offset="0.37" stop-color="#FDF2F3" stop-opacity="0.99"/>
<stop offset="0.52" stop-color="#FAE3E4" stop-opacity="0.98"/>
<stop offset="0.66" stop-color="#F7CDCF" stop-opacity="0.97"/>
<stop offset="0.79" stop-color="#F3B1B4" stop-opacity="0.95"/>
<stop offset="0.92" stop-color="#EE8E94" stop-opacity="0.93"/>
<stop offset="1" stop-color="#EA747B" stop-opacity="0.92"/>
</linearGradient>
<clipPath id="clip0_406_300">
<rect width="275" height="68" fill="white"/>
</clipPath>
</defs>
</svg>
